<?xml version="1.0" standalone="no"?>
<!DOCTYPE svg PUBLIC "-//W3C//DTD SVG 1.1//EN" "http://www.w3.org/Graphics/SVG/1.1/DTD/svg11.dtd" >
<svg xmlns="http://www.w3.org/2000/svg" xmlns:xlink="http://www.w3.org/1999/xlink" version="1.1">
<metadata>
Created by FontForge 20190801 at Fri Sep 27 09:45:05 2019
 By Jimmy Wärting
(c) 2019 JetBrains s.r.o. All Rights Reserved.
</metadata>
<defs>
<font id="JetBrainsMono-Italic" horiz-adv-x="600" >
  <font-face 
    font-family="JetBrains Mono"
    font-weight="400"
    font-style="italic"
    font-stretch="normal"
    units-per-em="1000"
    panose-1="0 0 0 0 0 0 0 0 0 0"
    ascent="800"
    descent="-200"
    x-height="550"
    cap-height="720"
    bbox="-56 -240 2311 985"
    underline-thickness="45"
    underline-position="-122"
    unicode-range="U+000A-2260"
  />
<missing-glyph 
d="M33 0l114 720h420l-114 -720h-420zM111 50h300l89 561zM489 670h-300l-89 -561z" />
    <glyph glyph-name=".notdef" 
d="M33 0l114 720h420l-114 -720h-420zM111 50h300l89 561zM489 670h-300l-89 -561z" />
    <glyph glyph-name="uni0000" horiz-adv-x="0" 
 />
    <glyph glyph-name="uni0000" horiz-adv-x="0" 
 />
    <glyph glyph-name="uni000D" unicode="&#xd;" 
 />
    <glyph glyph-name="space" unicode=" " 
 />
    <glyph glyph-name="H" unicode="H" 
d="M40 0l114 720h88l-48 -304h240l48 304h88l-114 -720h-88l53 334h-240l-53 -334h-88z" />
    <glyph glyph-name="n" unicode="n" 
d="M38 0l87 550h85l-14 -95h7q21 50 65 77.5t103 27.5q41 0 71.5 -13.5t50 -38t27 -59.5t0.5 -78l-59 -371h-88l56 351q10 63 -17 98t-84 35q-53 0 -90.5 -30t-50.5 -84l-59 -370h-90z" />
    <glyph glyph-name="p" unicode="p" 
d="M162 205h1q-11 -63 17 -100t84 -37q62 0 101 36.5t50 100.5l22 140q10 64 -18 100.5t-90 36.5q-54 0 -93.5 -36t-50.5 -96zM503 205q-8 -48 -27.5 -88t-48.5 -68t-65.5 -43.5t-78.5 -15.5q-60 0 -95 28t-40 77h-8q-1 -17 -3 -34q-1 -15 -3 -31t-4 -30l-26 -165h-88
l113 715h83l-15 -95h8q20 49 64.5 77t104.5 28q42 0 73.5 -15.5t51 -43.5t27 -68t-0.5 -88z" />
    <glyph glyph-name="parenleft" unicode="(" 
d="M264 255q-9 -59 -2.5 -109t28 -89t56 -65.5t80.5 -37.5l-14 -89q-68 18 -118.5 53t-81 85t-40.5 113.5t2 138.5l30 190q24 156 115.5 254.5t245.5 135.5l-14 -91q-106 -25 -171.5 -99.5t-85.5 -199.5z" />
    <glyph glyph-name="o" unicode="o" 
d="M150 200q-11 -63 18.5 -96.5t90.5 -33.5q60 0 100 33.5t51 96.5l23 150q11 63 -19 96.5t-90 33.5q-61 0 -101 -34.5t-50 -95.5zM85 350q17 100 82.5 155t169.5 55q101 0 150.5 -56t34.5 -153l-24 -151q-16 -100 -81.5 -155t-170.5 -55q-102 0 -151 56.5t-33 153.5z" />
    <glyph glyph-name="i" unicode="i" 
d="M60 416l3 14q6 29 21.5 53t38.5 41t53 26.5t64 9.5q69 0 103.5 -35.5t23.5 -94.5l-58 -295q-5 -29 10.5 -47t46.5 -18q32 0 55.5 18.5t29.5 48.5l1 8h88l-1 -8q-6 -33 -23 -60t-41.5 -46.5t-56 -30t-67.5 -10.5q-71 0 -107 39.5t-23 105.5l58 295q5 25 -10 40t-44 15
t-49 -15t-25 -40l-3 -14h-88zM365 765h20q29 0 43.5 -17t9.5 -44t-26 -43t-50 -16h-20q-29 0 -44 15.5t-10 43.5q5 27 26.5 44t50.5 17z" />
    <glyph glyph-name="l" unicode="l" 
d="M74 646l13 82h248l-90 -568q-6 -41 16 -65.5t65 -24.5q44 0 74.5 25t37.5 67l11 73h88l-11 -73q-6 -39 -24.5 -70.5t-46.5 -54t-64.5 -35t-78.5 -12.5q-41 0 -72.5 12t-52 34.5t-28.5 54t-2 69.5l77 486h-160z" />
    <glyph glyph-name="O" unicode="O" 
d="M152 204q-10 -62 19.5 -98t89.5 -36t100.5 36t50.5 98l50 312q10 62 -19.5 98t-89.5 36t-100.5 -36t-50.5 -98zM112 516q16 100 83.5 157t170.5 57q50 0 88 -15.5t62.5 -43.5t34 -67.5t1.5 -87.5l-50 -312q-16 -100 -83.5 -157t-170.5 -57q-50 0 -88 15.5t-62.5 43.5
t-33.5 67.5t-2 87.5z" />
    <glyph glyph-name="h" unicode="h" 
d="M40 0l116 730h88l-29 -180q-2 -14 -5.5 -30.5t-6.5 -30.5l-8 -34h8q21 50 65 77.5t103 27.5q41 0 71.5 -13.5t50 -38t27 -59.5t0.5 -78l-59 -371h-88l56 351q10 63 -17 98t-84 35q-55 0 -93 -32t-50 -89l-57 -363h-88z" />
    <glyph glyph-name="k" unicode="k" 
d="M45 0l116 730h88l-65 -411h110l202 231h101l-232 -267l153 -283h-99l-130 241h-118l-38 -241h-88z" />
    <glyph glyph-name="g" unicode="g" 
d="M224 50q-44 0 -77 15t-54 42.5t-28.5 66t-0.5 86.5l14 90q8 48 27.5 87t49 66.5t67 42t81.5 14.5q67 0 103 -32t34 -88h2l17 110h88l-87 -537q-14 -85 -69.5 -131.5t-146.5 -46.5h-176l12 78h176q48 0 78 26t38 74l8 47l23 110h-6q-16 -56 -61.5 -88t-111.5 -32zM156 260
q-10 -62 19 -97t89 -35t99.5 35t49.5 97l14 90q10 62 -18.5 97t-88.5 35t-100 -35t-50 -97z" />
    <glyph glyph-name="greater" unicode="&#x3e;" 
d="M525 395l-19 -120l-463 -205l15 92l333 146q18 8 31 13t21 8q10 3 16 5l1 7q-6 2 -14 6q-8 3 -19 7.5t-27 12.5l-288 140l15 93z" />
    <glyph glyph-name="braceright" unicode="}" 
d="M148 830h45q89 0 132 -43.5t26 -122.5l-36 -164q-6 -27 -5.5 -46t9.5 -31t28 -17.5t52 -5.5h110l-12 -80h-110q-32 0 -53.5 -5.5t-34.5 -17.5t-19 -31t-9 -46l-16 -165q-4 -39 -21 -70t-45 -52.5t-65 -32.5t-81 -11h-45l13 80h45q48 0 76 21.5t33 64.5l16 165
q3 27 13.5 51.5t27.5 43t41 29.5t54 12l1 5q-30 1 -50 12.5t-31.5 30.5t-14.5 44t3 52l36 164q9 43 -12 64.5t-69 21.5h-45z" />
    <glyph glyph-name="A" unicode="A" 
d="M148 274v4h2l190 442h126l76 -720h-92l-18 203h-222l-84 -203h-96zM241 278h185l-25 285q-3 42 -3 70v27h-4l-9 -27q-5 -14 -11.5 -31.5t-15.5 -38.5z" />
    <glyph glyph-name="B" unicode="B" 
d="M550 530q-11 -65 -51.5 -105t-102.5 -45l-1 -6q65 -4 97 -51t20 -120q-15 -96 -80.5 -149.5t-169.5 -53.5h-220l114 720h209q49 0 86.5 -14t61.5 -39t34 -60t3 -77zM422 203q9 58 -23 92.5t-95 34.5h-123l-39 -248h123q65 0 106.5 32t50.5 89zM460 522q8 53 -21.5 84.5
t-86.5 31.5h-122l-36 -230h121q58 0 97.5 31t47.5 83z" />
    <glyph glyph-name="C" unicode="C" 
d="M372 730q91 0 141 -52t46 -143h-88q2 54 -28 85.5t-84 31.5q-60 0 -100.5 -37t-50.5 -100l-49 -310q-11 -64 18.5 -100.5t89.5 -36.5q55 0 94.5 31.5t53.5 85.5h88q-25 -93 -90.5 -144t-158.5 -51q-102 0 -151 55.5t-33 154.5l50 320q16 99 83 154.5t169 55.5z" />
    <glyph glyph-name="D" unicode="D" 
d="M252 80q63 0 107.5 38.5t54.5 101.5l44 281q11 63 -22 101t-96 38h-111l-88 -560h111zM38 0l114 720h201q52 0 92 -16t66 -44.5t36 -69t2 -89.5l-44 -281q-8 -49 -31 -90t-58 -69.5t-80 -44.5t-97 -16h-201z" />
    <glyph glyph-name="E" unicode="E" 
d="M159 720h425l-13 -82h-335l-36 -226h300l-13 -82h-300l-39 -248h335l-13 -82h-425z" />
    <glyph glyph-name="F" unicode="F" 
d="M159 721h430l-12 -80h-342l-37 -233h316l-13 -80h-314l-52 -328h-90z" />
    <glyph glyph-name="G" unicode="G" 
d="M353 650q-62 0 -101.5 -35.5t-49.5 -99.5l-49 -310q-11 -63 18.5 -99t89.5 -36q61 0 101 35.5t51 99.5l11 73h-146l13 80h236l-25 -158q-16 -100 -82.5 -155t-171.5 -55q-103 0 -152.5 55.5t-33.5 154.5l50 320q16 100 83 155t171 55q88 0 139.5 -47.5t56.5 -132.5h-92
q-5 47 -36 73.5t-81 26.5z" />
    <glyph glyph-name="I" unicode="I" 
d="M45 0l13 79h159l89 562h-159l12 79h410l-12 -79h-159l-89 -562h159l-13 -79h-410z" />
    <glyph glyph-name="J" unicode="J" 
d="M231 70q66 0 109 35.5t54 99.5l68 437h-280l12 78h368l-81 -515q-17 -103 -85.5 -159t-177.5 -56q-51 0 -89 15.5t-62 43.5t-33 67.5t-1 88.5h85q-11 -63 19.5 -99t93.5 -36z" />
    <glyph glyph-name="K" unicode="K" 
d="M154 720h90l-48 -306h116l212 306h105l-245 -351l141 -369h-98l-124 335h-120l-53 -335h-90z" />
    <glyph glyph-name="L" unicode="L" 
d="M289 720l-101 -638h340l-13 -82h-430l114 720h90z" />
    <glyph glyph-name="M" unicode="M" 
d="M28 0l114 720h108l48 -244q3 -11 5 -25.5t4 -26.5q1 -15 3 -29h6q7 14 13 29q6 12 12.5 26.5t11.5 25.5l121 244h112l-114 -720h-81l80 505q3 16 7 36t8 39q4 22 9 44h-6q-9 -21 -18 -41q-8 -18 -18 -39t-19 -39l-90 -185h-84l-32 185q-3 19 -6.5 40t-5.5 39q-3 21 -6 41
h-5q-3 -22 -5 -44q-2 -18 -5 -38.5t-6 -37.5l-80 -505h-81z" />
    <glyph glyph-name="N" unicode="N" 
d="M149 720h115l111 -483q5 -18 8.5 -41.5t6.5 -44.5q4 -25 7 -51h7l0.5 10.5t1.5 28.5t3.5 41.5t6.5 49.5l78 490h85l-114 -720h-115l-107 484q-5 23 -9.5 47t-7.5 44q-4 23 -7 46h-7q-1 -16 -2 -36q-2 -17 -4.5 -40.5t-7.5 -52.5l-78 -492h-85z" />
    <glyph glyph-name="P" unicode="P" 
d="M130 0h-90l114 720h243q48 0 85.5 -15t62 -42.5t34.5 -65t3 -82.5q-7 -47 -28.5 -85t-54 -64.5t-75 -41t-92.5 -14.5h-153zM345 390q57 0 95.5 33.5t48.5 91.5q8 56 -21 90.5t-84 34.5h-153l-39 -250h153z" />
    <glyph glyph-name="Q" unicode="Q" 
d="M248 -10q-50 0 -88 15.5t-62.5 43.5t-33.5 67.5t-2 87.5l50 312q16 100 83.5 157t170.5 57q50 0 88 -15.5t62.5 -43.5t34 -67.5t1.5 -87.5l-50 -312q-9 -56 -34.5 -98.5t-65.5 -70.5l103 -165h-100l-80 130q-34 -10 -77 -10zM152 204q-10 -62 19.5 -98t89.5 -36t100.5 36
t50.5 98l50 312q10 62 -19.5 98t-89.5 36t-100.5 -36t-50.5 -98z" />
    <glyph glyph-name="R" unicode="R" 
d="M154 720h228q48 0 85.5 -15t62 -42.5t34.5 -65t3 -82.5q-12 -76 -59 -127.5t-119 -69.5l106 -318h-99l-98 310h-119l-49 -310h-90zM330 390q57 0 95.5 33.5t48.5 91.5q8 56 -21 90.5t-84 34.5h-138l-39 -250h138z" />
    <glyph glyph-name="S" unicode="S" 
d="M248 -10q-50 0 -89.5 14.5t-66 40t-38 61.5t-5.5 79h95q-4 -25 3 -46t23 -36.5t39.5 -24t53.5 -8.5q64 0 105.5 29t49.5 80q7 45 -15 80t-70 53l-71 28q-74 29 -110 81.5t-26 117.5q15 93 78.5 142t166.5 49q47 0 84 -14t61.5 -39t35 -60.5t4.5 -77.5h-95
q8 48 -21.5 79.5t-82.5 31.5q-57 0 -93.5 -27t-44.5 -76q-14 -86 84 -124l75 -29q75 -29 108.5 -84t22.5 -127q-14 -93 -82.5 -143t-178.5 -50z" />
    <glyph glyph-name="T" unicode="T" 
d="M97 641l12 79h510l-12 -79h-209l-102 -641h-92l102 641h-209z" />
    <glyph glyph-name="U" unicode="U" 
d="M248 -10q-100 0 -148.5 56t-32.5 154l82 520h90l-82 -520q-10 -61 17.5 -95.5t86.5 -34.5q60 0 98 33.5t48 96.5l82 520h90l-82 -520q-16 -101 -80.5 -155.5t-168.5 -54.5z" />
    <glyph glyph-name="V" unicode="V" 
d="M108 720h92l49 -563q2 -21 3 -38.5t1 -30.5v-28h4q4 12 9 28q10 28 26 69l232 563h96l-310 -720h-126z" />
    <glyph glyph-name="W" unicode="W" 
d="M48 0l41 720h75l-35 -522q-1 -19 -3.5 -43.5t-5.5 -46.5q-3 -26 -6 -53h11q5 27 11 53q5 22 10.5 46.5t11.5 43.5l144 452h103l-4 -462q0 -18 -1 -41.5t-3 -43.5l-4 -48h11q4 24 9 48q4 20 8.5 43t9.5 42l131 532h77l-188 -720h-122l9 459q1 29 3 53.5t4 41.5q3 21 7 38
h-13q-2 -17 -6 -38q-4 -17 -9.5 -41.5t-14.5 -53.5l-139 -459h-122z" />
    <glyph glyph-name="X" unicode="X" 
d="M-10 0l268 367l-143 353h104l80 -209q5 -11 9 -22.5t7 -21.5l6 -20h3q6 9 13 20q6 9 13.5 20.5t15.5 23.5l148 209h99l-254 -347l151 -373h-103l-89 229q-5 12 -8.5 23.5t-6.5 20.5q-3 11 -6 21h-3q-6 -10 -13 -21q-6 -9 -13.5 -20.5t-15.5 -22.5l-162 -230h-100z" />
    <glyph glyph-name="Y" unicode="Y" 
d="M185 720l98 -317q5 -15 7.5 -29.5t4.5 -25.5q1 -13 2 -24h4q4 11 10 24q5 11 12.5 25.5t16.5 29.5l194 317h100l-299 -470l-40 -250h-90l40 250l-151 470h91z" />
    <glyph glyph-name="Z" unicode="Z" 
d="M568 720l-13 -81l-408 -562v-2l71 4h260l-13 -79h-430l13 80l408 562v2l-72 -3h-239l12 79h411z" />
    <glyph glyph-name="period" unicode="." 
d="M221 79q6 39 33 62.5t66 23.5t59 -23.5t14 -62.5q-7 -40 -34.5 -64.5t-66.5 -24.5t-58.5 24.5t-12.5 64.5z" />
    <glyph glyph-name="a" unicode="a" 
d="M63 205l22 140q6 48 25.5 88t48.5 68t66 43.5t79 15.5q60 0 95 -28t40 -77h8l15 95h83l-87 -550h-83l15 95h-8q-20 -49 -64.5 -77t-104.5 -28q-42 0 -73.5 15.5t-51 43.5t-26.5 68t1 88zM253 68q57 0 96 34t52 92l25 160q7 59 -21 93.5t-82 34.5q-62 0 -101 -36.5
t-49 -100.5l-22 -140q-11 -64 16.5 -100.5t85.5 -36.5z" />
    <glyph glyph-name="b" unicode="b" 
d="M38 0l118 730h88l-27 -170q-2 -12 -5 -27.5t-6.5 -30.5t-6 -28t-4.5 -19h8q20 49 64.5 77t104.5 28q42 0 73.5 -15.5t51 -43.5t27 -68t-0.5 -88l-22 -140q-8 -48 -27.5 -88t-48.5 -68t-65.5 -43.5t-78.5 -15.5q-60 0 -95 28t-40 77h-8l-15 -95h-85zM161 205
q-11 -63 17.5 -100t88.5 -37q58 0 96.5 36.5t49.5 100.5l22 140q10 64 -18 100.5t-90 36.5q-56 0 -95 -37t-49 -100z" />
    <glyph glyph-name="c" unicode="c" 
d="M257 -10q-49 0 -86.5 15.5t-61.5 43.5t-33.5 67.5t-1.5 88.5l22 140q16 101 82.5 158t169.5 57q42 0 77.5 -13.5t60 -38t38 -58.5t12.5 -75h-88q2 47 -30 76t-83 29q-60 0 -100.5 -36t-50.5 -99l-22 -140q-11 -63 18 -99t90 -36q55 0 94 28t53 77h88q-26 -89 -90 -137
t-158 -48z" />
    <glyph glyph-name="e" unicode="e" 
d="M248 -10q-50 0 -88.5 15t-62.5 42t-33.5 66t-1.5 87l23 150q16 98 83.5 154t170.5 56q50 0 88.5 -15t62.5 -42t33.5 -66t1.5 -87l-16 -101h-349l-7 -44q-11 -63 18 -99t90 -36q45 0 80.5 14t55.5 41h90q-27 -63 -91.5 -99t-147.5 -36zM431 324l4 26q10 62 -18.5 96
t-90.5 34t-101.5 -34t-49.5 -96l-4 -26h260z" />
    <glyph glyph-name="f" unicode="f" 
d="M-35 -85h87q51 0 82 27t39 78l68 425h-155l12 80h155l11 68q11 66 56 101.5t118 35.5h151l-13 -78h-151q-64 0 -73 -60l-11 -67h215l-12 -80h-215l-68 -425q-14 -90 -71.5 -137.5t-151.5 -47.5h-85z" />
    <glyph glyph-name="j" unicode="j" 
d="M361 415q5 32 -10 51t-44 19t-50 -19t-26 -51l-15 -95h-86l15 95q11 65 58 105t116 40q70 0 105.5 -39.5t24.5 -105.5l-60 -381q-15 -93 -78.5 -146t-160.5 -53h-166l12 78h167q56 0 92.5 32.5t45.5 88.5zM457 765h20q29 0 43.5 -17t9.5 -44t-26 -43t-50 -16h-20
q-29 0 -44 15.5t-10 43.5q5 27 26.5 44t50.5 17z" />
    <glyph glyph-name="m" unicode="m" 
d="M16 0l87 550h71l-12 -81h6q11 44 38.5 67.5t67.5 23.5q41 0 62 -24t23 -67h5q11 44 38.5 67.5t67.5 23.5q52 0 72.5 -38.5t9.5 -106.5l-66 -415h-80l66 415q5 36 -5 54t-39 18q-57 0 -71 -69q-1 -1 -1 -3l-66 -415h-80l66 415q6 35 -5 54q-10 18 -39 18q-32 0 -49 -19
t-22 -48l-67 -420h-78z" />
    <glyph glyph-name="r" unicode="r" 
d="M62 0l87 550h85l-15 -95h8q20 49 66 77t106 28q86 0 127.5 -53.5t26.5 -145.5l-6 -41h-90l4 30q11 63 -16.5 97t-87.5 34q-57 0 -95 -30t-52 -84l-58 -367h-90z" />
    <glyph glyph-name="s" unicode="s" 
d="M233 -10q-87 0 -137 39.5t-48 105.5h95q2 -29 30 -47t73 -18h28q54 0 87.5 22.5t39.5 60.5q10 65 -79 79l-81 12q-80 12 -113.5 51t-22.5 109q12 74 71 115t153 41h28q80 0 128 -38t48 -101h-95q-2 26 -27.5 42.5t-66.5 16.5h-28q-51 0 -82.5 -20t-37.5 -60
q-5 -32 11.5 -48.5t59.5 -22.5l81 -12q88 -13 122 -52t22 -111q-12 -77 -72.5 -120.5t-158.5 -43.5h-28z" />
    <glyph glyph-name="t" unicode="t" 
d="M65 472l12 78h166l26 160h88l-26 -160h221l-12 -78h-221l-54 -339q-5 -32 14 -48.5t45 -16.5q14 0 27.5 4.5t25 13t20 21t10.5 28.5l1 5h88l-1 -5q-6 -33 -22.5 -60t-40.5 -46t-55 -29t-65 -10t-61 10t-45.5 28.5t-26 45t-2.5 59.5l54 339h-166z" />
    <glyph glyph-name="v" unicode="v" 
d="M177 550l76 -389q4 -22 5.5 -39.5t1.5 -30.5q0 -14 -1 -26h9q0 12 3 26q3 13 9 30.5t17 39.5l193 389h97l-284 -550h-102l-114 550h90z" />
    <glyph glyph-name="w" unicode="w" 
d="M68 550h79l-17 -377q0 -15 -1 -36t-2 -40q-2 -23 -3 -47h9q6 24 13 47q5 20 11 41t11 35l113 332h98l3 -332q1 -15 0.5 -36t-0.5 -41q0 -22 -1 -46h10q6 24 11 47q5 19 10.5 40t9.5 36l104 377h80l-165 -550h-121v50l-2 294q0 17 1.5 36t3.5 36q1 20 4 39h-10
q-3 -19 -7 -39q-3 -17 -7.5 -36t-10.5 -36l-116 -344h-118z" />
    <glyph glyph-name="x" unicode="x" 
d="M242 283l-145 267h98l90 -175q8 -14 11 -25q2 -5 3 -10h4q2 5 6 10q3 5 7.5 11.5t10.5 13.5l142 175h109l-229 -268l153 -282h-101l-95 186q-3 7 -6 13.5t-5 12.5q-3 7 -5 13h-4q-4 -7 -8 -13q-3 -6 -7.5 -13t-9.5 -13l-155 -186h-108z" />
    <glyph glyph-name="y" unicode="y" 
d="M75 239l49 311h90l-46 -291q-10 -63 17 -98t84 -35t95.5 34.5t47.5 94.5l47 295h88l-87 -537q-14 -85 -69.5 -131.5t-146.5 -46.5h-176l12 78h176q48 0 78 26t38 74l8 47l20 95h-6q-21 -50 -65 -77.5t-103 -27.5q-41 0 -72 13.5t-51 38.5t-27.5 59.5t-0.5 77.5z" />
    <glyph glyph-name="z" unicode="z" 
d="M125 550h421l-16 -101l-385 -366q0 -1 -0.5 -3.5t-0.5 -3.5q11 1 24 2q11 1 24.5 1.5t27.5 0.5h263l-13 -80h-440l16 100l387 367q0 1 0.5 3t0.5 3q-13 -1 -26 -1q-12 -1 -26.5 -1.5t-28.5 -0.5h-241z" />
    <glyph glyph-name="comma" unicode="," 
d="M393 151l-179 -311h-80l129 311h130z" />
    <glyph glyph-name="zero" unicode="0" 
d="M152 204q-10 -62 19.5 -98t89.5 -36t100.5 36t50.5 98l50 312q10 62 -19.5 98t-89.5 36t-100.5 -36t-50.5 -98zM112 516q16 100 83.5 157t170.5 57q50 0 88 -15.5t62.5 -43.5t34 -67.5t1.5 -87.5l-50 -312q-16 -100 -83.5 -157t-170.5 -57q-50 0 -88 15.5t-62.5 43.5
t-33.5 67.5t-2 87.5zM263 395q4 25 19.5 40t38.5 15t34.5 -15t7.5 -40l-13 -80q-4 -25 -20 -40t-39 -15t-34 15t-7 40z" />
    <glyph glyph-name="one" unicode="1" 
d="M40 0l13 80h193l80 505q1 8 3 18.5t3.5 19.5t3 15.5l1.5 6.5h-2q-8 -6 -16 -11q-6 -5 -13.5 -10t-14.5 -9l-156 -96l15 91l172 110h115l-101 -640h162l-13 -80h-445z" />
    <glyph glyph-name="two" unicode="2" 
d="M546 530q-7 -43 -23 -82t-44 -77t-69 -77t-98 -83l-135 -104q-11 -8 -27 -15l-16 -8v-4q16 1 31 1q14 1 28.5 1h26.5h263l-13 -82h-450l16 100l217 162q49 37 84.5 69.5t59.5 64.5t37.5 64.5t19.5 68.5q4 26 -1.5 48.5t-19.5 38.5t-35.5 25t-48.5 9q-64 0 -106 -32
t-51 -88h-93q18 94 88 147t175 53q47 0 84 -15t61.5 -42t35 -63.5t3.5 -79.5z" />
    <glyph glyph-name="three" unicode="3" 
d="M305 431q54 0 95 -15.5t67.5 -44.5t37 -70t2.5 -91q-8 -51 -30.5 -91.5t-57 -69t-79.5 -44t-98 -15.5q-47 0 -84 14t-62.5 39.5t-38.5 61.5t-10 80h90q0 -52 32 -83.5t86 -31.5q63 0 107 38.5t54 101.5q5 32 -1 57.5t-22 44t-41 28.5t-57 10h-83l16 96l165 145
q11 10 23.5 18.5t23.5 16.5l26 16v2q-11 -1 -23 -2q-11 -1 -24 -1.5t-27 -0.5h-251l13 80h400l-16 -100l-195 -160q-17 -13 -26 -20q-7 -5 -12 -9z" />
    <glyph glyph-name="four" unicode="4" 
d="M166 266l-4 -31h235l29 180h90l-66 -415h-90l25 155h-325l21 137l350 428h102z" />
    <glyph glyph-name="five" unicode="5" 
d="M354 460q91 0 133.5 -56.5t27.5 -153.5l-8 -50q-8 -48 -30.5 -87t-56.5 -66t-78 -42t-96 -15q-92 0 -144 43.5t-53 116.5h95q4 -36 34 -58t82 -22q61 0 102.5 35t51.5 95l8 50q9 60 -21.5 95t-92.5 35q-78 0 -122 -55h-92l67 395h396l-13 -82h-309l-43 -254h6
q12 21 34 38q18 14 47.5 26t74.5 12z" />
    <glyph glyph-name="six" unicode="6" 
d="M249 -10q-51 0 -91 16t-65.5 45.5t-36 70t-2.5 89.5q10 63 48 131.5t101 150.5l172 227h109l-190 -240q-26 -32 -42.5 -52t-25.5 -31q-11 -12 -17 -17h15q11 16 28 28q15 11 38.5 19.5t57.5 8.5q44 0 78.5 -16t56.5 -45t30.5 -69.5t0.5 -90.5t-31.5 -91.5t-59 -71
t-80 -46t-94.5 -16.5zM424 215q5 33 -1 59.5t-21.5 45.5t-39.5 29.5t-54 10.5q-31 0 -58.5 -10.5t-49 -29.5t-36.5 -46t-20 -59q-5 -33 1 -59.5t21.5 -45.5t40 -29.5t55.5 -10.5q30 0 57.5 10.5t49 29.5t36 45.5t19.5 59.5z" />
    <glyph glyph-name="seven" unicode="7" 
d="M216 638l-17 -108h-90l30 190h450l-16 -102l-351 -618h-104l331 574q18 31 30 46q7 9 12 14l1 6q-16 -1 -31 -1q-13 0 -26.5 -0.5t-23.5 -0.5h-195z" />
    <glyph glyph-name="eight" unicode="8" 
d="M304 342q-62 0 -105 -37.5t-53 -99.5q-10 -61 21 -100.5t93 -39.5q31 0 58 10.5t48 29t35 44.5t19 56q10 62 -22 99.5t-94 37.5zM354 655q-57 0 -95 -33t-46 -87q-9 -55 19 -91t83 -36t94 36t48 91q8 54 -19 87t-84 33zM366 730q48 0 85.5 -14t61.5 -39t34 -60t3 -78
q-4 -30 -18 -57t-34 -48.5t-46.5 -35.5t-56.5 -19l-1 -5q65 -11 97 -58t21 -116q-7 -46 -29.5 -85t-57 -66.5t-79.5 -43t-98 -15.5t-93 15t-65.5 42t-35.5 65.5t-3 84.5q6 35 21 65t37.5 53t52 38.5t62.5 20.5l1 5q-28 5 -50 19.5t-35.5 35.5t-18.5 48t-1 57q7 43 28 78
t53.5 60t74.5 39t90 14z" />
    <glyph glyph-name="nine" unicode="9" 
d="M365 730q51 0 91 -16t65.5 -45.5t36 -70t2.5 -89.5q-10 -63 -48 -131.5t-101 -150.5l-172 -227h-109l190 240q26 33 42.5 52.5t25.5 30.5q11 12 17 17h-15q-11 -16 -28 -28q-14 -11 -37.5 -19.5t-58.5 -8.5q-44 0 -78.5 16t-56.5 45t-30.5 69.5t-0.5 90.5t31.5 91.5
t59 71t80 46t94.5 16.5zM190 505q-10 -65 22.5 -105t93.5 -40q31 0 58.5 10.5t49 29.5t36.5 46t20 59q5 33 -1 59.5t-21.5 45.5t-40 29.5t-55.5 10.5q-30 0 -57.5 -10.5t-49 -29.5t-36 -45.5t-19.5 -59.5z" />
    <glyph glyph-name="hyphen" unicode="-" 
d="M106 370h400l-12 -75h-400z" />
    <glyph glyph-name="plus" unicode="+" 
d="M78 365h190l32 205h80l-32 -205h190l-11 -70h-190l-33 -205h-80l33 205h-190z" />
    <glyph glyph-name="asterisk" unicode="*" 
d="M85 450l103 -39q38 -15 59.5 -33.5t39.5 -32.5q-1 12 -3.5 25.5t-4.5 29.5t-2 34.5t4 40.5l19 115h88l-19 -115q-8 -46 -22.5 -76t-23.5 -56q23 14 50.5 33t69.5 34l114 39l17 -83l-114 -39q-44 -15 -75 -16.5t-57 -3.5q8 -9 18 -18t21 -18.5t22 -22t20 -29.5l51 -94
l-81 -52l-51 95q-10 17 -15 33.5t-7.5 32t-4.5 30t-5 26.5q-15 -25 -27.5 -56t-41.5 -66l-81 -94l-66 51l81 94q29 35 58 53t52 36q-25 3 -56 4t-71 16l-102 39z" />
    <glyph glyph-name="slash" unicode="/" 
d="M496 830h97l-502 -940h-97z" />
    <glyph glyph-name="backslash" unicode="\" 
d="M440 -110h-91l-206 940h91z" />
    <glyph glyph-name="colon" unicode=":" 
d="M179 71q6 35 32 58t63 23t56 -23t13 -58q-5 -37 -32 -59t-63 -22q-37 0 -55.5 22.5t-13.5 58.5zM244 479q5 35 31.5 58t63.5 23t55.5 -23t13.5 -58q-6 -37 -32.5 -59t-62.5 -22q-37 0 -56 22.5t-13 58.5z" />
    <glyph glyph-name="semicolon" unicode=";" 
d="M373 151l-179 -311h-80l129 311h130zM291 479q7 35 34 58t64 23t55 -23t11 -58q-7 -37 -34.5 -59t-63.5 -22q-37 0 -55 22.5t-11 58.5z" />
    <glyph glyph-name="less" unicode="&#x3c;" 
d="M141 336l-1 -7q6 -2 14 -5t19 -8t27 -13l288 -140l-15 -93l-398 205l19 120l463 205l-15 -92l-333 -146q-18 -8 -31 -13t-21 -8q-10 -3 -16 -5z" />
    <glyph glyph-name="equal" unicode="=" 
d="M69 265h440l-12 -75h-440zM102 475h440l-12 -75h-440z" />
    <glyph glyph-name="exclam" unicode="!" 
d="M257 115h20q29 0 45 -17t11 -44t-25.5 -43t-49.5 -16h-20q-29 0 -44.5 15.5t-10.5 43.5q5 27 25 44t49 17zM313 720h102l-25 -160l-77 -345h-58l33 345z" />
    <glyph glyph-name="question" unicode="?" 
d="M228 115h20q29 0 43.5 -17t9.5 -44t-26 -43t-50 -16h-20q-29 0 -44 15.5t-10 43.5q5 27 26.5 44t50.5 17zM522 515q-7 -42 -26 -77.5t-48.5 -61.5t-66.5 -42t-80 -19l-17 -110h-90l29 185h50q65 0 106 32.5t51 92.5q9 60 -22 92.5t-97 32.5h-125l13 80h125
q108 0 160.5 -54t37.5 -151z" />
    <glyph glyph-name="quotesingle" unicode="'" 
d="M265 730h97l-24 -150l-35 -150h-74l12 150z" />
    <glyph glyph-name="quotedbl" unicode="&#x22;" 
d="M383 430l12 150l24 150h97l-24 -150l-35 -150h-74zM180 430l12 150l24 150h97l-24 -150l-35 -150h-74z" />
    <glyph glyph-name="numbersign" unicode="#" 
d="M13 258h102l85 199h-122l10 58h137l88 205h65l-88 -205h140l88 205h65l-88 -205h89l-10 -58h-104l-85 -199h123l-9 -58h-138l-86 -200h-65l86 200h-140l-86 -200h-65l86 200h-87zM320 258l85 199h-140l-85 -199h140z" />
    <glyph glyph-name="percent" unicode="%" 
d="M597 564v-63l-594 -358v63zM213 660q-35 0 -56 -21.5t-26 -58.5l-11 -65q-5 -37 9 -58.5t49 -21.5q38 0 57.5 23.5t24.5 56.5l11 65q5 37 -9 58.5t-49 21.5zM169 380q-63 0 -91 36t-18 99l11 65q10 63 49 99t102 36t91 -36t18 -99l-11 -65q-10 -63 -49 -99t-102 -36z
M422 275q-35 0 -56 -21.5t-26 -58.5l-11 -65q-5 -37 9 -58.5t49 -21.5q38 0 57.5 23.5t24.5 56.5l11 65q5 37 -9 58.5t-49 21.5zM378 -5q-63 0 -91 36t-18 99l11 65q10 63 49 99t102 36t91 -36t18 -99l-11 -65q-10 -63 -49 -99t-102 -36z" />
    <glyph glyph-name="braceleft" unicode="{" 
d="M449 -121h-45q-44 0 -77.5 11t-54.5 32.5t-28 52.5t1 70l36 164q6 27 6 46t-9 31t-28.5 17.5t-52.5 5.5h-110l13 80h110q32 0 53 5.5t34 17.5t19.5 31t9.5 46l16 165q8 79 65 122.5t146 43.5h45l-13 -80h-45q-48 0 -75.5 -21.5t-32.5 -64.5l-16 -165q-3 -27 -13.5 -51.5
t-28 -43t-41.5 -29.5t-54 -12l-1 -5q30 -1 50.5 -12.5t32 -30.5t14 -44t-3.5 -52l-36 -164q-9 -43 12.5 -64.5t69.5 -21.5h45z" />
    <glyph glyph-name="bar" unicode="|" 
d="M337 820h90l-149 -940h-90z" />
    <glyph glyph-name="bracketleft" unicode="[" 
d="M273 820h245l-13 -80h-155l-123 -780h155l-13 -80h-245z" />
    <glyph glyph-name="underscore" unicode="_" 
d="M66 -25h480l-12 -75h-480z" />
    <glyph glyph-name="parenright" unicode=")" 
d="M202 835q67 -17 117 -53t80.5 -86.5t41.5 -114t0 -136.5l-31 -190q-49 -315 -361 -390l14 93q106 25 172 100.5t85 196.5l31 190q9 60 3 110.5t-27 90t-56 66t-82 38.5z" />
    <glyph glyph-name="d" unicode="d" 
d="M63 205l22 140q6 48 25.5 88t48.5 68t66 43.5t79 15.5q60 0 95 -28t40 -77h7q1 6 2 17.5t2.5 25t3.5 27.5t3 25l29 180h88l-116 -730h-83l15 95h-8q-20 -49 -64.5 -77t-104.5 -28q-42 0 -73.5 15.5t-51 43.5t-26.5 68t1 88zM253 68q56 0 94.5 33t52.5 90l27 169
q5 56 -23.5 89t-80.5 33q-62 0 -101 -36.5t-49 -100.5l-22 -140q-11 -64 16.5 -100.5t85.5 -36.5z" />
    <glyph glyph-name="q" unicode="q" 
d="M221 -10q-42 0 -73.5 14.5t-51.5 41.5t-27 65t0 84l25 160q8 47 27 85t47.5 64.5t65 41t78.5 14.5q61 0 96.5 -27.5t40.5 -77.5h8l15 95h83l-113 -715h-88l26 165q2 14 5.5 30t6.5 31l8 34h-8q-20 -50 -65 -77.5t-106 -27.5zM161 205q-11 -63 17.5 -100t86.5 -37
q55 0 93.5 33t51.5 90l27 167q5 57 -23 90.5t-81 33.5q-61 0 -100.5 -36t-49.5 -101z" />
    <glyph glyph-name="u" unicode="u" 
d="M73 194l56 356h90l-58 -356q-21 -125 99 -125q121 0 141 125l56 356h88l-56 -356q-16 -98 -78 -151t-164 -53q-98 0 -143.5 54t-30.5 150z" />
    <glyph glyph-name="emdash" unicode="&#x2014;" 
d="M21 370h570l-12 -75h-570z" />
    <glyph glyph-name="asciicircum" unicode="^" 
d="M322 710h84l112 -410h-79l-70 280q-3 14 -5 26t-3 22q-2 12 -2 22h-4q-3 -10 -8 -22q-8 -21 -23 -48l-160 -280h-86z" />
    <glyph glyph-name="divide" unicode="&#xf7;" 
d="M106 370h400l-12 -75h-400zM266 205h20q29 0 45 -17t11 -44t-25.5 -43t-49.5 -16h-20q-29 0 -44.5 15.5t-10.5 43.5q5 27 25 44t49 17zM326 580h20q29 0 45 -17t11 -44t-25.5 -43t-49.5 -16h-20q-29 0 -44.5 15.5t-10.5 43.5q5 27 25 44t49 17z" />
    <glyph glyph-name="multiply" unicode="&#xd7;" 
d="M520 471l-168 -145l119 -141l-55 -49l-119 142l-164 -142l-47 55l164 141l-119 142l55 48l119 -141l168 145z" />
    <glyph glyph-name="plusminus" unicode="&#xb1;" 
d="M86 321l11 70h190l32 205h80l-32 -205h190l-11 -70h-190l-33 -205h-80l33 205h-190zM39 0l11 70h460l-11 -70h-460z" />
    <glyph glyph-name="minus" unicode="&#x2212;" 
d="M106 370h400l-12 -75h-400z" />
    <glyph glyph-name="at" unicode="@" 
d="M15 125l50 315q11 68 38 121.5t67.5 91t94 57.5t116.5 20q57 0 100 -14.5t70 -42t37.5 -68.5t2.5 -95l-69 -435h-71l14 98q-41 -108 -135 -108q-63 0 -89.5 45.5t-12.5 129.5l13 80q13 83 54 129t103 46q88 0 100 -95q1 12 3 37t7 53l3 20q12 76 -25.5 113t-115.5 37
q-91 0 -149.5 -57.5t-75.5 -162.5l-50 -315q-8 -48 0 -88t30 -68t56.5 -43.5t79.5 -15.5h70l-12 -75h-70q-64 0 -112.5 20.5t-79 58t-41.5 91.5t-1 120zM361 128q84 0 106 106l12 77q19 121 -70 121q-34 0 -57 -29t-31 -83l-13 -80q-8 -54 5.5 -83t47.5 -29z" />
    <glyph glyph-name="ampersand" unicode="&#x26;" 
d="M30 155l19 125q9 54 43 89t88 48l-8 15q-21 38 -29.5 69t-3.5 59q6 36 23 65.5t44 50.5t62 32.5t76 11.5q42 0 75 -11.5t54.5 -32.5t31 -50.5t3.5 -65.5h-90q5 36 -18.5 59t-67.5 23q-41 0 -69 -22.5t-34 -59.5t20 -84l136 -242l90 126h94l-143 -198l91 -162h-100l-49 87
q-44 -48 -92.5 -72.5t-97.5 -24.5q-82 0 -121.5 43.5t-26.5 121.5zM196 70q34 0 69 22.5t64 62.5l-120 211q-28 -8 -46.5 -29.5t-23.5 -56.5l-19 -125q-7 -41 13 -63t63 -22z" />
    <glyph glyph-name="bracketright" unicode="]" 
d="M366 -120h-245l13 80h155l123 780h-155l13 80h245z" />
    <glyph glyph-name="dollar" unicode="$" 
d="M49 185h95q-4 -25 3 -46t23 -36.5t39.5 -24t53.5 -8.5q64 0 105.5 29t49.5 80q7 45 -15 80t-70 53l-71 28q-74 29 -110 81.5t-26 117.5q13 81 63.5 129t132.5 59v13l13 80h90l-13 -80l-3 -12q39 -6 68.5 -22t49 -40.5t27 -56.5t2.5 -70h-95q8 48 -21.5 79.5t-82.5 31.5
q-57 0 -93.5 -27t-44.5 -76q-14 -86 84 -124l75 -29q75 -29 108.5 -84t22.5 -127q-13 -84 -70 -133t-149 -58l-1 -22l-12 -80h-90l12 80l7 23q-41 6 -72.5 22t-52 41t-29 58t-3.5 71z" />
    <glyph glyph-name="uni000A" unicode="&#xa;" 
 />
    <glyph glyph-name="endash" unicode="&#x2013;" 
d="M76 370h460l-12 -75h-460z" />
    <glyph glyph-name="periodcentered" unicode="&#xb7;" 
d="M226 349q6 39 33 62.5t66 23.5t59 -23.5t14 -62.5q-7 -40 -34.5 -64.5t-66.5 -24.5t-58.5 24.5t-12.5 64.5z" />
    <glyph glyph-name="hyphen_hyphen_greater.liga" horiz-adv-x="1800" 
d="M101 370h1513q-3 5 -6.5 10.5t-8.5 11.5l-141 218h100l177 -277l-266 -277h-109l214 220q5 5 10 9.5t10 9.5h-1505z" />
    <glyph glyph-name="slash_slash.liga" horiz-adv-x="1200" 
d="M1036 830h97l-502 -940h-97zM556 830h97l-502 -940h-97z" />
    <glyph glyph-name="slash_asterisk_asterisk.liga" horiz-adv-x="1800" 
d="M496 830h97l-502 -940h-97zM635 490l103 -39q38 -15 59.5 -33.5t39.5 -32.5q-1 12 -3.5 25.5t-4.5 29.5t-2 34.5t4 40.5l19 115h88l-19 -115q-8 -46 -22.5 -76t-23.5 -56q23 14 50.5 33t69.5 34l114 39l17 -83l-114 -39q-44 -15 -75 -16.5t-57 -3.5q8 -9 18 -18t21 -18.5
t22 -22t20 -29.5l51 -94l-81 -52l-51 95q-10 17 -15 33.5t-7.5 32t-4.5 30t-5 26.5q-15 -25 -27.5 -56t-41.5 -66l-81 -94l-66 51l81 94q29 35 58 53t52 36q-25 3 -56 4t-71 16l-102 39zM1225 490l103 -39q38 -15 59.5 -33.5t39.5 -32.5q-1 12 -3.5 25.5t-4.5 29.5t-2 34.5
t4 40.5l19 115h88l-19 -115q-8 -46 -22.5 -76t-23.5 -56q23 14 50.5 33t69.5 34l114 39l17 -83l-114 -39q-44 -15 -75 -16.5t-57 -3.5q8 -9 18 -18t21 -18.5t22 -22t20 -29.5l51 -94l-81 -52l-51 95q-10 17 -15 33.5t-7.5 32t-4.5 30t-5 26.5q-15 -25 -27.5 -56t-41.5 -66
l-81 -94l-66 51l81 94q29 35 58 53t52 36q-25 3 -56 4t-71 16l-102 39z" />
    <glyph glyph-name="slash_asterisk.liga" horiz-adv-x="1200" 
d="M496 830h97l-502 -940h-97zM635 490l103 -39q38 -15 59.5 -33.5t39.5 -32.5q-1 12 -3.5 25.5t-4.5 29.5t-2 34.5t4 40.5l19 115h88l-19 -115q-8 -46 -22.5 -76t-23.5 -56q23 14 50.5 33t69.5 34l114 39l17 -83l-114 -39q-44 -15 -75 -16.5t-57 -3.5q8 -9 18 -18t21 -18.5
t22 -22t20 -29.5l51 -94l-81 -52l-51 95q-10 17 -15 33.5t-7.5 32t-4.5 30t-5 26.5q-15 -25 -27.5 -56t-41.5 -66l-81 -94l-66 51l81 94q29 35 58 53t52 36q-25 3 -56 4t-71 16l-102 39z" />
    <glyph glyph-name="asterisk_slash.liga" horiz-adv-x="1200" 
d="M135 410l103 -39q38 -15 59.5 -33.5t39.5 -32.5q-1 12 -3.5 25.5t-4.5 29.5t-2 34.5t4 40.5l19 115h88l-19 -115q-8 -46 -22.5 -76t-23.5 -56q23 14 50.5 33t69.5 34l114 39l17 -83l-114 -39q-44 -15 -75 -16.5t-57 -3.5q8 -9 18 -18t21 -18.5t22 -22t20 -29.5l51 -94
l-81 -52l-51 95q-10 17 -15 33.5t-7.5 32t-4.5 30t-5 26.5q-15 -25 -27.5 -56t-41.5 -66l-81 -94l-66 51l81 94q29 35 58 53t52 36q-25 3 -56 4t-71 16l-102 39zM1096 830h97l-502 -940h-97z" />
    <glyph glyph-name="less_exclam_hyphen_hyphen.liga" horiz-adv-x="2400" 
d="M911 370h1400l-12 -75h-1400zM55 333l265 277h106l-211 -218l-11.5 -11.5l-10.5 -10.5h378l-12 -75h-383q3 -5 6 -9.5t7 -9.5l141 -220h-97zM685 215l33 345l25 160h102l-25 -160l-77 -345h-58zM613 54q5 27 25 44t49 17h20q29 0 45 -17t11 -44t-25.5 -43t-49.5 -16h-20
q-29 0 -44.5 15.5t-10.5 43.5z" />
    <glyph glyph-name="colon_equal.liga" horiz-adv-x="1200" 
d="M246 480q6 36 31.5 58t61.5 22t54.5 -22t12.5 -58q-6 -37 -31.5 -58.5t-61.5 -21.5t-54.5 21.5t-12.5 58.5zM199 185q6 37 31.5 58.5t61.5 21.5t54.5 -21.5t12.5 -58.5q-5 -36 -30.5 -58t-61.5 -22t-54.5 22t-13.5 58zM562 265h550l-12 -75h-550zM595 475h550l-12 -75
h-550z" />
    <glyph glyph-name="hyphen_greater_greater.liga" horiz-adv-x="1800" 
d="M89 295l12 75h1223q-3 5 -6.5 10.5t-8.5 11.5l-141 218h100l177 -277l-266 -277h-109l214 220q5 5 10 9.5t10 9.5h-1215zM1360 56l214 220q16 16 29 26.5t22 16.5q11 8 19 12v3l-11 11q-5 7 -13.5 18.5t-20.5 28.5l-141 218h100l177 -277l-266 -277h-109z" />
    <glyph glyph-name="less_less_hyphen.liga" horiz-adv-x="1800" 
d="M610 610h106l-211 -218l-11.5 -11.5l-10.5 -10.5h1226l-12 -75h-1231q3 -5 6 -9.5t7 -9.5l141 -220h-97l-178 277zM320 610h106l-211 -218q-17 -17 -30 -28.5t-21 -18.5q-11 -8 -18 -12l-1 -3q5 -4 12 -11q6 -6 14 -16t18 -27l141 -220h-97l-178 277z" />
    <glyph glyph-name="hyphen_greater.liga" horiz-adv-x="1200" 
d="M101 370h913q-3 5 -6.5 10.5t-8.5 11.5l-141 218h100l177 -277l-266 -277h-109l214 220q5 5 10 9.5t10 9.5h-905z" />
    <glyph glyph-name="less_hyphen.liga" horiz-adv-x="1200" 
d="M55 333l265 277h106l-211 -218l-11.5 -11.5l-10.5 -10.5h908l-12 -75h-913q3 -5 6 -9.5t7 -9.5l141 -220h-97z" />
    <glyph glyph-name="less_equal_greater.liga" horiz-adv-x="1800" 
d="M320 610h106l-131 -135h1250l-87 135h100l177 -277l-266 -277h-109l130 134h-1246l86 -134h-97l-178 277zM145 330q5 -4 12 -11q6 -6 14 -16t18 -27l7 -11h1367l11 11q16 16 29 26.5t22 16.5q11 8 19 12v3l-11 11q-5 7 -13.5 18.5t-20.5 28.5l-5 8h-1371l-8 -8
q-17 -17 -30 -28.5t-21 -18.5q-11 -8 -18 -12z" />
    <glyph glyph-name="equal_equal.liga" horiz-adv-x="1200" 
d="M105 475h1040l-12 -75h-480l6 35h-90l-6 -35h-470zM72 265h470l-6 -35h90l6 35h480l-12 -75h-1040z" />
    <glyph glyph-name="exclam_equal.liga" horiz-adv-x="1200" 
d="M537 190l-152 -190h-97l152 190h-380l12 75h428l108 135h-515l12 75h563l152 190h97l-152 -190h380l-12 -75h-428l-108 -135h515l-12 -75h-563z" />
    <glyph glyph-name="less_equal.liga" horiz-adv-x="1200" 
d="M775 -62l-437 206l13 85l438 -206zM876 573l-373 -144q-18 -7 -30.5 -11t-20.5 -7q-10 -3 -16 -4l-2 -7q6 -2 14 -5t19.5 -7.5t27.5 -11.5l327 -141l-15 -95l-437 205l19 120l502 205z" />
    <glyph glyph-name="greater_equal.liga" horiz-adv-x="1200" 
d="M859 465l-19 -120l-503 -205l16 102l373 141q37 14 52 18q9 3 15 4l1 7q-6 1 -15 3q-8 2 -19 6t-27 11l-327 145l15 93zM821 227l-15 -92l-502 -206l14 92z" />
    <glyph glyph-name="equal_colon_equal.liga" horiz-adv-x="1800" 
d="M91 400l12 75h545l-12 -75h-545zM58 190l12 75h545l-12 -75h-545zM1153 190l12 75h545l-12 -75h-545zM1186 400l12 75h545l-12 -75h-545zM843 475q0 2 0.5 2.5t0.5 2.5q5 36 30.5 58t61.5 22t54.5 -22t13.5 -58q0 -2 -0.5 -2.5t-0.5 -2.5q-8 -35 -32.5 -55t-59.5 -20
t-53.5 20t-14.5 55zM797 185q0 2 0.5 2.5t0.5 2.5q8 35 32.5 55t59.5 20t53.5 -20t14.5 -55q0 -2 -0.5 -2.5t-0.5 -2.5q-6 -36 -31.5 -58t-61.5 -22t-54.5 22t-12.5 58z" />
    <glyph glyph-name="exclam_equal_equal.liga" horiz-adv-x="1800" 
d="M61 195h684l84 105h-751l11 70h797l84 105h-865l11 70h910l97 120h94l-97 -120h636l-11 -70h-681l-84 -105h749l-11 -70h-795l-84 -105h862l-11 -70h-907l-101 -125h-94l101 125h-639z" />
    <glyph glyph-name="dotlessi" unicode="&#x131;" 
d="M60 416l3 14q6 29 21.5 53t38.5 41t53 26.5t64 9.5q69 0 103.5 -35.5t23.5 -94.5l-58 -295q-5 -29 10.5 -47t46.5 -18q32 0 55.5 18.5t29.5 48.5l1 8h88l-1 -8q-6 -33 -23 -60t-41.5 -46.5t-56 -30t-67.5 -10.5q-71 0 -107 39.5t-23 105.5l58 295q5 25 -10 40t-44 15
t-49 -15t-25 -40l-3 -14h-88z" />
    <glyph glyph-name="ampersand_ampersand.liga" horiz-adv-x="1200" 
d="M670 0q-48 16 -69 55.5t-11 99.5l19 125q9 54 43 89.5t88 47.5l-8 15q-21 38 -29.5 69t-3.5 59q6 36 23 65.5t44 50.5t62 32.5t76 11.5q85 0 130 -44t34 -116h-90q6 37 -17.5 59.5t-68.5 22.5q-41 0 -69 -22.5t-34 -59.5t20 -84l136 -242l90 126h93l-143 -198l91 -162
h-99l-49 87q-37 -40 -85.5 -68.5t-104.5 -28.5q-39 0 -68 10zM80 155l19 125q9 54 43 89t88 48l-8 15q-21 38 -29.5 69t-3.5 59q6 36 23 65.5t44 50.5t62 32.5t76 11.5q85 0 130 -44t34 -116h-90q6 37 -17.5 59.5t-68.5 22.5q-41 0 -69 -22.5t-34 -59.5t20 -84l267 -476h-99
l-49 87q-44 -48 -92.5 -72.5t-97.5 -24.5q-82 0 -121.5 43.5t-26.5 121.5zM756 70q34 0 69 22.5t64 62.5l-120 211q-28 -8 -46.5 -29.5t-23.5 -56.5l-19 -125q-7 -41 13 -63t63 -22zM246 70q34 0 69 22.5t64 62.5l-120 211q-28 -8 -46.5 -29.5t-23.5 -56.5l-19 -125
q-7 -41 13 -63t63 -22z" />
    <glyph glyph-name="bar_bar.liga" horiz-adv-x="1200" 
d="M877 820h90l-149 -940h-90zM397 820h90l-149 -940h-90z" />
    <glyph glyph-name="period_period_period.liga" horiz-adv-x="1800" 
d="M332 79q6 39 33 62.5t66 23.5t59 -23.5t14 -62.5q-7 -40 -34.5 -64.5t-66.5 -24.5t-58.5 24.5t-12.5 64.5zM826 79q6 39 33 62.5t66 23.5t59 -23.5t14 -62.5q-7 -40 -34.5 -64.5t-66.5 -24.5t-58.5 24.5t-12.5 64.5zM1320 79q6 39 33 62.5t66 23.5t59 -23.5t14 -62.5
q-7 -40 -34.5 -64.5t-66.5 -24.5t-58.5 24.5t-12.5 64.5z" />
    <glyph glyph-name="period_period.liga" horiz-adv-x="1200" 
d="M316 79q6 39 33 62.5t66 23.5t59 -23.5t14 -62.5q-7 -40 -34.5 -64.5t-66.5 -24.5t-58.5 24.5t-12.5 64.5zM746 79q6 39 33 62.5t66 23.5t59 -23.5t14 -62.5q-7 -40 -34.5 -64.5t-66.5 -24.5t-58.5 24.5t-12.5 64.5z" />
    <glyph glyph-name="Euro" unicode="&#x20ac;" 
d="M15 255l10 60h73l11 70h-73l10 60h72l12 75q16 99 83 154.5t169 55.5q91 0 141 -52t46 -143h-88q2 54 -28 85.5t-84 31.5q-60 0 -100.5 -37t-50.5 -100l-11 -70h160l-10 -60h-160l-11 -70h160l-10 -60h-159l-8 -50q-11 -64 18.5 -100.5t89.5 -36.5q55 0 94.5 31.5
t53.5 85.5h88q-25 -93 -90.5 -144t-158.5 -51q-102 0 -151 55.5t-33 154.5l9 55h-74z" />
    <glyph glyph-name="bullet" unicode="&#x2022;" 
d="M181 355q4 26 17.5 49t33 40t44 26.5t50.5 9.5t47.5 -9.5t35.5 -26.5t20 -40t2 -49t-17.5 -49t-33 -40t-44 -26.5t-50.5 -9.5t-47.5 9.5t-35.5 26.5t-20 40t-2 49z" />
    <glyph glyph-name="brokenbar" unicode="&#xa6;" 
d="M321 730h90l-57 -360h-90zM236 195h90l-57 -360h-90z" />
    <glyph glyph-name="guillemotright" unicode="&#xbb;" 
d="M432 244q10 9 18 15.5t13 11.5q7 5 13 8l1 2l-8 8q-3 5 -8 11.5t-12 15.5l-145 204h104l163 -240l-239 -240h-110zM-11 40l210 204q10 9 18 15.5t13 11.5q7 5 13 8l1 2l-8 8q-3 5 -8 11.5t-12 15.5l-145 204h104l163 -240l-239 -240h-110z" />
    <glyph glyph-name="guillemotleft" unicode="&#xab;" 
d="M22 280l239 240h106l-204 -204q-9 -9 -17.5 -15.5t-14.5 -11.5q-7 -5 -13 -8l-1 -2q4 -3 8 -8t9.5 -11.5t11.5 -15.5l144 -204h-104zM255 280l239 240h106l-205 -204q-9 -9 -17 -15.5t-14 -11.5q-7 -5 -13 -8l-1 -2q4 -3 8 -8t9.5 -11.5t11.5 -15.5l144 -204h-104z" />
    <glyph glyph-name="guilsinglleft" unicode="&#x2039;" 
d="M330 520h109l-203 -204q-9 -9 -18 -15.5t-16 -11.5q-9 -5 -16 -8l-1 -2l8 -8q4 -5 9 -11.5t11 -15.5l144 -204h-102l-164 240z" />
    <glyph glyph-name="guilsinglright" unicode="&#x203a;" 
d="M447 280l-236 -240h-109l204 204q17 17 34 27q8 5 15 8l1 2q-4 3 -8 8l-21 27l-145 204h102z" />
    <glyph glyph-name="quoteleft" unicode="&#x2018;" 
d="M210 464l179 311h80l-129 -311h-130z" />
    <glyph glyph-name="quoteright" unicode="&#x2019;" 
d="M391 776l-179 -311h-80l129 311h130z" />
    <glyph glyph-name="quotedblleft" unicode="&#x201c;" 
d="M72 464l179 311h80l-129 -311h-130zM347 464l179 311h80l-129 -311h-130z" />
    <glyph glyph-name="quotedblright" unicode="&#x201d;" 
d="M528 776l-179 -311h-80l129 311h130zM253 776l-179 -311h-80l129 311h130z" />
    <glyph glyph-name="quotesinglbase" unicode="&#x201a;" 
d="M393 151l-179 -311h-80l129 311h130z" />
    <glyph glyph-name="quotedblbase" unicode="&#x201e;" 
d="M528 151l-179 -311h-80l129 311h130zM253 151l-179 -311h-80l129 311h130z" />
    <glyph glyph-name="tilde" unicode="&#x2dc;" 
d="M461 715q21 0 35.5 14.5t19.5 40.5l3 20h65l-3 -20q-11 -58 -45 -89t-86 -31q-34 0 -54 12.5t-35 27.5t-29.5 27.5t-37.5 12.5q-21 0 -35.5 -14.5t-19.5 -40.5l-4 -20h-65l4 20q11 58 45 89t86 31q34 0 54 -12.5t35 -27.5t30 -27.5t37 -12.5z" />
    <glyph glyph-name="macron" unicode="&#xaf;" 
d="M240 770h260l-11 -75h-260z" />
    <glyph glyph-name="asciitilde" unicode="~" 
d="M399 250q-29 0 -50 9.5t-36.5 24t-27.5 31.5t-23.5 31.5t-24.5 24t-30 9.5q-47 0 -55 -55l-12 -70h-85l12 70q9 61 47.5 95.5t98.5 34.5q29 0 50 -9.5t36.5 -24t27.5 -31.5t23.5 -31.5t24.5 -24t30 -9.5q47 0 55 55l11 70h85l-11 -70q-10 -61 -48.5 -95.5t-97.5 -34.5z
" />
    <glyph glyph-name="breve" unicode="&#x2d8;" 
d="M219 790h75q-6 -34 17 -52t65 -18t72 18t36 52h75q-5 -30 -22.5 -55t-43.5 -43t-59 -27.5t-69 -9.5t-65.5 9.5t-49 27.5t-28 43t-3.5 55z" />
    <glyph glyph-name="dotaccent" unicode="&#x2d9;" 
d="M346 805h20q29 0 45 -17t11 -44t-25.5 -43t-49.5 -16h-20q-29 0 -44.5 15.5t-10.5 43.5q5 27 25 44t49 17z" />
    <glyph glyph-name="ring" unicode="&#x2da;" 
d="M292 720q8 48 46 76.5t92 28.5t82 -28.5t20 -76.5t-46.5 -76.5t-92.5 -28.5t-81.5 28.5t-19.5 76.5zM352 720q-5 -26 7.5 -40t41.5 -14t47.5 14t23.5 40t-8.5 40.5t-42.5 14.5q-28 0 -46 -14.5t-23 -40.5z" />
    <glyph glyph-name="grave" unicode="`" 
d="M245 796h110l86 -146h-90z" />
    <glyph glyph-name="acute" unicode="&#xb4;" 
d="M451 796h-110l-109 -146h90z" />
    <glyph glyph-name="hungarumlaut" unicode="&#x2dd;" 
d="M414 796h-110l-132 -146h90zM614 796h-110l-132 -146h90z" />
    <glyph glyph-name="agrave" unicode="&#xe0;" 
d="M66 205l22 140q6 48 25.5 88t48.5 68t66 43.5t79 15.5q60 0 95 -28t40 -77h8l15 95h83l-87 -550h-83l15 95h-8q-20 -49 -64.5 -77t-104.5 -28q-42 0 -73.5 15.5t-51 43.5t-26.5 68t1 88zM256 68q57 0 96 34t52 92l25 160q7 59 -21 93.5t-82 34.5q-62 0 -101 -36.5
t-49 -100.5l-22 -140q-11 -64 16.5 -100.5t85.5 -36.5zM248 796h110l86 -146h-90z" />
    <glyph glyph-name="ntilde" unicode="&#xf1;" 
d="M38 0l87 550h85l-14 -95h7q21 50 65 77.5t103 27.5q41 0 71.5 -13.5t50 -38t27 -59.5t0.5 -78l-59 -371h-88l56 351q10 63 -17 98t-84 35q-53 0 -90.5 -30t-50.5 -84l-59 -370h-90zM461 715q21 0 35.5 14.5t19.5 40.5l3 20h65l-3 -20q-11 -58 -45 -89t-86 -31
q-34 0 -54 12.5t-35 27.5t-29.5 27.5t-37.5 12.5q-21 0 -35.5 -14.5t-19.5 -40.5l-4 -20h-65l4 20q11 58 45 89t86 31q34 0 54 -12.5t35 -27.5t30 -27.5t37 -12.5z" />
    <glyph glyph-name="Uhungarumlaut" unicode="&#x170;" 
d="M260 -10q-100 0 -148.5 56t-32.5 154l82 520h90l-82 -520q-10 -61 17.5 -95.5t86.5 -34.5q60 0 98 33.5t48 96.5l82 520h90l-82 -520q-16 -101 -80.5 -155.5t-168.5 -54.5zM426 956h-110l-132 -146h90zM626 956h-110l-132 -146h90z" />
    <glyph glyph-name="uhungarumlaut" unicode="&#x171;" 
d="M84 194l56 356h90l-58 -356q-21 -125 99 -125q121 0 141 125l56 356h88l-56 -356q-16 -98 -78 -151t-164 -53q-98 0 -143.5 54t-30.5 150zM425 796h-110l-132 -146h90zM625 796h-110l-132 -146h90z" />
    <glyph glyph-name="dieresis" unicode="&#xa8;" 
d="M226 727q5 27 24.5 43.5t46.5 16.5t40.5 -16.5t8.5 -43.5t-24 -43.5t-46 -16.5t-41 16.5t-9 43.5zM426 727q5 27 24.5 43.5t46.5 16.5t40.5 -16.5t8.5 -43.5t-24 -43.5t-46 -16.5t-41 16.5t-9 43.5z" />
    <glyph glyph-name="adieresis" unicode="&#xe4;" 
d="M66 205l22 140q6 48 25.5 88t48.5 68t66 43.5t79 15.5q60 0 95 -28t40 -77h8l15 95h83l-87 -550h-83l15 95h-8q-20 -49 -64.5 -77t-104.5 -28q-42 0 -73.5 15.5t-51 43.5t-26.5 68t1 88zM256 68q57 0 96 34t52 92l25 160q7 59 -21 93.5t-82 34.5q-62 0 -101 -36.5
t-49 -100.5l-22 -140q-11 -64 16.5 -100.5t85.5 -36.5zM229 727q5 27 24.5 43.5t46.5 16.5t40.5 -16.5t8.5 -43.5t-24 -43.5t-46 -16.5t-41 16.5t-9 43.5zM429 727q5 27 24.5 43.5t46.5 16.5t40.5 -16.5t8.5 -43.5t-24 -43.5t-46 -16.5t-41 16.5t-9 43.5z" />
    <glyph glyph-name="circumflex" unicode="&#x2c6;" 
d="M200 650l155 145h70l105 -145h-75l-45 57q-15 20 -19 26q-4 5 -5 8h-3q-3 -3 -8 -7q-6 -7 -28 -26l-66 -58h-81z" />
    <glyph glyph-name="caron" unicode="&#x2c7;" 
d="M225 795h76l46 -58q14 -17 19 -25q3 -5 5 -8h3l8 8l10.5 10.5t17.5 15.5l65 57h80l-155 -145h-70z" />
    <glyph glyph-name="ccaron" unicode="&#x10d;" 
d="M261 -10q-49 0 -86.5 15.5t-61.5 43.5t-33.5 67.5t-1.5 88.5l22 140q16 101 82.5 158t169.5 57q42 0 77.5 -13.5t60 -38t38 -58.5t12.5 -75h-88q2 47 -30 76t-83 29q-60 0 -100.5 -36t-50.5 -99l-22 -140q-11 -63 18 -99t90 -36q55 0 94 28t53 77h88q-26 -89 -90 -137
t-158 -48zM229 795h76l46 -58q14 -17 19 -25q3 -5 5 -8h3l8 8l10.5 10.5t17.5 15.5l65 57h80l-155 -145h-70z" />
    <glyph glyph-name="cedilla" unicode="&#xb8;" 
d="M268 26h57l-45 -61q33 -3 58 -12q21 -8 37.5 -24t11.5 -42q-5 -35 -41.5 -56t-90.5 -21q-24 0 -40.5 2t-27.5 4q-12 3 -20 7l9 55q9 -4 20 -7q9 -2 22.5 -4t30.5 -2q22 0 36.5 8t16.5 22q3 18 -23.5 29t-74.5 11z" />
    <glyph glyph-name="ogonek" unicode="&#x2db;" 
d="M129 -99q7 38 35 64t59 43q37 19 82 30h25l-15.5 -11t-35 -28.5t-37 -39.5t-21.5 -45q-3 -21 8 -33.5t32 -12.5q15 0 28.5 3t24 6.5t17 6.5l6.5 3l-9 -55q-11 -6 -25 -11q-12 -5 -28.5 -8t-37.5 -3q-55 0 -84.5 24.5t-23.5 66.5z" />
    <glyph glyph-name="Uogonek" unicode="&#x172;" 
d="M260 -10q-100 0 -148.5 56t-32.5 154l82 520h90l-82 -520q-10 -61 17.5 -95.5t86.5 -34.5q60 0 98 33.5t48 96.5l82 520h90l-82 -520q-16 -101 -80.5 -155.5t-168.5 -54.5zM216 -99q7 38 35 64t59 43q37 19 82 30h25l-15.5 -11t-35 -28.5t-37 -39.5t-21.5 -45
q-3 -21 8 -33.5t32 -12.5q15 0 28.5 3t24 6.5t17 6.5l6.5 3l-9 -55q-11 -6 -25 -11q-12 -5 -28.5 -8t-37.5 -3q-55 0 -84.5 24.5t-23.5 66.5z" />
    <glyph glyph-name="uogonek" unicode="&#x173;" 
d="M84 194l56 356h90l-58 -356q-21 -125 99 -125q121 0 141 125l56 356h88l-56 -356q-16 -98 -78 -151t-164 -53q-98 0 -143.5 54t-30.5 150zM205 -99q7 38 35 64t59 43q37 19 82 30h25l-15.5 -11t-35 -28.5t-37 -39.5t-21.5 -45q-3 -21 8 -33.5t32 -12.5q15 0 28.5 3
t24 6.5t17 6.5l6.5 3l-9 -55q-11 -6 -25 -11q-12 -5 -28.5 -8t-37.5 -3q-55 0 -84.5 24.5t-23.5 66.5z" />
    <glyph glyph-name="ccedilla" unicode="&#xe7;" 
d="M261 -10q-49 0 -86.5 15.5t-61.5 43.5t-33.5 67.5t-1.5 88.5l22 140q16 101 82.5 158t169.5 57q42 0 77.5 -13.5t60 -38t38 -58.5t12.5 -75h-88q2 47 -30 76t-83 29q-60 0 -100.5 -36t-50.5 -99l-22 -140q-11 -63 18 -99t90 -36q55 0 94 28t53 77h88q-26 -89 -90 -137
t-158 -48zM272 26h57l-45 -61q33 -3 58 -12q21 -8 37.5 -24t11.5 -42q-5 -35 -41.5 -56t-90.5 -21q-24 0 -40.5 2t-27.5 4q-12 3 -20 7l9 55q9 -4 20 -7q9 -2 22.5 -4t30.5 -2q22 0 36.5 8t16.5 22q3 18 -23.5 29t-74.5 11z" />
    <glyph glyph-name="Agrave" unicode="&#xc0;" 
d="M148 274v4h2l190 442h126l76 -720h-92l-18 203h-222l-84 -203h-96zM241 278h185l-25 285q-3 42 -3 70v27h-4l-9 -27q-5 -14 -11.5 -31.5t-15.5 -38.5zM245 956h110l86 -146h-90z" />
    <glyph glyph-name="Aacute" unicode="&#xc1;" 
d="M148 274v4h2l190 442h126l76 -720h-92l-18 203h-222l-84 -203h-96zM241 278h185l-25 285q-3 42 -3 70v27h-4l-9 -27q-5 -14 -11.5 -31.5t-15.5 -38.5zM451 956h-110l-109 -146h90z" />
    <glyph glyph-name="Acircumflex" unicode="&#xc2;" 
d="M148 274v4h2l190 442h126l76 -720h-92l-18 203h-222l-84 -203h-96zM241 278h185l-25 285q-3 42 -3 70v27h-4l-9 -27q-5 -14 -11.5 -31.5t-15.5 -38.5zM247 810l155 145h70l105 -145h-75l-45 57q-15 20 -19 26q-4 5 -5 8h-3q-3 -3 -8 -7q-6 -7 -28 -26l-66 -58h-81z" />
    <glyph glyph-name="Atilde" unicode="&#xc3;" 
d="M148 274v4h2l190 442h126l76 -720h-92l-18 203h-222l-84 -203h-96zM241 278h185l-25 285q-3 42 -3 70v27h-4l-9 -27q-5 -14 -11.5 -31.5t-15.5 -38.5zM511 875q21 0 35.5 14.5t19.5 40.5l3 20h65l-3 -20q-11 -58 -45 -89t-86 -31q-34 0 -54 12.5t-35 27.5t-29.5 27.5
t-37.5 12.5q-21 0 -35.5 -14.5t-19.5 -40.5l-4 -20h-65l4 20q11 58 45 89t86 31q34 0 54 -12.5t35 -27.5t30 -27.5t37 -12.5z" />
    <glyph glyph-name="Adieresis" unicode="&#xc4;" 
d="M148 274v4h2l190 442h126l76 -720h-92l-18 203h-222l-84 -203h-96zM241 278h185l-25 285q-3 42 -3 70v27h-4l-9 -27q-5 -14 -11.5 -31.5t-15.5 -38.5zM266 887q5 27 24.5 43.5t46.5 16.5t40.5 -16.5t8.5 -43.5t-24 -43.5t-46 -16.5t-41 16.5t-9 43.5zM466 887
q5 27 24.5 43.5t46.5 16.5t40.5 -16.5t8.5 -43.5t-24 -43.5t-46 -16.5t-41 16.5t-9 43.5z" />
    <glyph glyph-name="Aring" unicode="&#xc5;" 
d="M148 274v4h2l190 442h126l76 -720h-92l-18 203h-222l-84 -203h-96zM241 278h185l-25 285q-3 42 -3 70v27h-4l-9 -27q-5 -14 -11.5 -31.5t-15.5 -38.5zM311 880q8 48 46 76.5t92 28.5t82 -28.5t20 -76.5t-46.5 -76.5t-92.5 -28.5t-81.5 28.5t-19.5 76.5zM371 880
q-5 -26 7.5 -40t41.5 -14t47.5 14t23.5 40t-8.5 40.5t-42.5 14.5q-28 0 -46 -14.5t-23 -40.5z" />
    <glyph glyph-name="Ccedilla" unicode="&#xc7;" 
d="M384 730q91 0 141 -52t46 -143h-88q2 54 -28 85.5t-84 31.5q-60 0 -100.5 -37t-50.5 -100l-49 -310q-11 -64 18.5 -100.5t89.5 -36.5q55 0 94.5 31.5t53.5 85.5h88q-25 -93 -90.5 -144t-158.5 -51q-102 0 -151 55.5t-33 154.5l50 320q16 99 83 154.5t169 55.5zM280 26h57
l-45 -61q33 -3 58 -12q21 -8 37.5 -24t11.5 -42q-5 -35 -41.5 -56t-90.5 -21q-24 0 -40.5 2t-27.5 4q-12 3 -20 7l9 55q9 -4 20 -7q9 -2 22.5 -4t30.5 -2q22 0 36.5 8t16.5 22q3 18 -23.5 29t-74.5 11z" />
    <glyph glyph-name="Egrave" unicode="&#xc8;" 
d="M159 720h425l-13 -82h-335l-36 -226h300l-13 -82h-300l-39 -248h335l-13 -82h-425zM245 956h110l86 -146h-90z" />
    <glyph glyph-name="Eacute" unicode="&#xc9;" 
d="M159 720h425l-13 -82h-335l-36 -226h300l-13 -82h-300l-39 -248h335l-13 -82h-425zM451 956h-110l-109 -146h90z" />
    <glyph glyph-name="Ecircumflex" unicode="&#xca;" 
d="M159 720h425l-13 -82h-335l-36 -226h300l-13 -82h-300l-39 -248h335l-13 -82h-425zM200 810l155 145h70l105 -145h-75l-45 57q-15 20 -19 26q-4 5 -5 8h-3q-3 -3 -8 -7q-6 -7 -28 -26l-66 -58h-81z" />
    <glyph glyph-name="Edieresis" unicode="&#xcb;" 
d="M159 720h425l-13 -82h-335l-36 -226h300l-13 -82h-300l-39 -248h335l-13 -82h-425zM226 887q5 27 24.5 43.5t46.5 16.5t40.5 -16.5t8.5 -43.5t-24 -43.5t-46 -16.5t-41 16.5t-9 43.5zM426 887q5 27 24.5 43.5t46.5 16.5t40.5 -16.5t8.5 -43.5t-24 -43.5t-46 -16.5
t-41 16.5t-9 43.5z" />
    <glyph glyph-name="Igrave" unicode="&#xcc;" 
d="M45 0l13 79h159l89 562h-159l12 79h410l-12 -79h-159l-89 -562h159l-13 -79h-410zM245 956h110l86 -146h-90z" />
    <glyph glyph-name="Iacute" unicode="&#xcd;" 
d="M45 0l13 79h159l89 562h-159l12 79h410l-12 -79h-159l-89 -562h159l-13 -79h-410zM451 956h-110l-109 -146h90z" />
    <glyph glyph-name="Icircumflex" unicode="&#xce;" 
d="M45 0l13 79h159l89 562h-159l12 79h410l-12 -79h-159l-89 -562h159l-13 -79h-410zM206 810l155 145h70l105 -145h-75l-45 57q-15 20 -19 26q-4 5 -5 8h-3q-3 -3 -8 -7q-6 -7 -28 -26l-66 -58h-81z" />
    <glyph glyph-name="Idieresis" unicode="&#xcf;" 
d="M45 0l13 79h159l89 562h-159l12 79h410l-12 -79h-159l-89 -562h159l-13 -79h-410zM228 887q5 27 24.5 43.5t46.5 16.5t40.5 -16.5t8.5 -43.5t-24 -43.5t-46 -16.5t-41 16.5t-9 43.5zM428 887q5 27 24.5 43.5t46.5 16.5t40.5 -16.5t8.5 -43.5t-24 -43.5t-46 -16.5
t-41 16.5t-9 43.5z" />
    <glyph glyph-name="Ograve" unicode="&#xd2;" 
d="M155 204q-10 -62 19.5 -98t89.5 -36t100.5 36t50.5 98l50 312q10 62 -19.5 98t-89.5 36t-100.5 -36t-50.5 -98zM115 516q16 100 83.5 157t170.5 57q50 0 88 -15.5t62.5 -43.5t34 -67.5t1.5 -87.5l-50 -312q-16 -100 -83.5 -157t-170.5 -57q-50 0 -88 15.5t-62.5 43.5
t-33.5 67.5t-2 87.5zM248 956h110l86 -146h-90z" />
    <glyph glyph-name="Oacute" unicode="&#xd3;" 
d="M155 204q-10 -62 19.5 -98t89.5 -36t100.5 36t50.5 98l50 312q10 62 -19.5 98t-89.5 36t-100.5 -36t-50.5 -98zM115 516q16 100 83.5 157t170.5 57q50 0 88 -15.5t62.5 -43.5t34 -67.5t1.5 -87.5l-50 -312q-16 -100 -83.5 -157t-170.5 -57q-50 0 -88 15.5t-62.5 43.5
t-33.5 67.5t-2 87.5zM454 956h-110l-109 -146h90z" />
    <glyph glyph-name="Ocircumflex" unicode="&#xd4;" 
d="M155 204q-10 -62 19.5 -98t89.5 -36t100.5 36t50.5 98l50 312q10 62 -19.5 98t-89.5 36t-100.5 -36t-50.5 -98zM115 516q16 100 83.5 157t170.5 57q50 0 88 -15.5t62.5 -43.5t34 -67.5t1.5 -87.5l-50 -312q-16 -100 -83.5 -157t-170.5 -57q-50 0 -88 15.5t-62.5 43.5
t-33.5 67.5t-2 87.5zM203 810l155 145h70l105 -145h-75l-45 57q-15 20 -19 26q-4 5 -5 8h-3q-3 -3 -8 -7q-6 -7 -28 -26l-66 -58h-81z" />
    <glyph glyph-name="Otilde" unicode="&#xd5;" 
d="M155 204q-10 -62 19.5 -98t89.5 -36t100.5 36t50.5 98l50 312q10 62 -19.5 98t-89.5 36t-100.5 -36t-50.5 -98zM115 516q16 100 83.5 157t170.5 57q50 0 88 -15.5t62.5 -43.5t34 -67.5t1.5 -87.5l-50 -312q-16 -100 -83.5 -157t-170.5 -57q-50 0 -88 15.5t-62.5 43.5
t-33.5 67.5t-2 87.5zM464 875q21 0 35.5 14.5t19.5 40.5l3 20h65l-3 -20q-11 -58 -45 -89t-86 -31q-34 0 -54 12.5t-35 27.5t-29.5 27.5t-37.5 12.5q-21 0 -35.5 -14.5t-19.5 -40.5l-4 -20h-65l4 20q11 58 45 89t86 31q34 0 54 -12.5t35 -27.5t30 -27.5t37 -12.5z" />
    <glyph glyph-name="Odieresis" unicode="&#xd6;" 
d="M155 204q-10 -62 19.5 -98t89.5 -36t100.5 36t50.5 98l50 312q10 62 -19.5 98t-89.5 36t-100.5 -36t-50.5 -98zM115 516q16 100 83.5 157t170.5 57q50 0 88 -15.5t62.5 -43.5t34 -67.5t1.5 -87.5l-50 -312q-16 -100 -83.5 -157t-170.5 -57q-50 0 -88 15.5t-62.5 43.5
t-33.5 67.5t-2 87.5zM229 887q5 27 24.5 43.5t46.5 16.5t40.5 -16.5t8.5 -43.5t-24 -43.5t-46 -16.5t-41 16.5t-9 43.5zM429 887q5 27 24.5 43.5t46.5 16.5t40.5 -16.5t8.5 -43.5t-24 -43.5t-46 -16.5t-41 16.5t-9 43.5z" />
    <glyph glyph-name="Scaron" unicode="&#x160;" 
d="M251 -10q-50 0 -89.5 14.5t-66 40t-38 61.5t-5.5 79h95q-4 -25 3 -46t23 -36.5t39.5 -24t53.5 -8.5q64 0 105.5 29t49.5 80q7 45 -15 80t-70 53l-71 28q-74 29 -110 81.5t-26 117.5q15 93 78.5 142t166.5 49q47 0 84 -14t61.5 -39t35 -60.5t4.5 -77.5h-95
q8 48 -21.5 79.5t-82.5 31.5q-57 0 -93.5 -27t-44.5 -76q-14 -86 84 -124l75 -29q75 -29 108.5 -84t22.5 -127q-14 -93 -82.5 -143t-178.5 -50zM228 955h76l46 -58q14 -17 19 -25q3 -5 5 -8h3l8 8l10.5 10.5t17.5 15.5l65 57h80l-155 -145h-70z" />
    <glyph glyph-name="Ugrave" unicode="&#xd9;" 
d="M260 -10q-100 0 -148.5 56t-32.5 154l82 520h90l-82 -520q-10 -61 17.5 -95.5t86.5 -34.5q60 0 98 33.5t48 96.5l82 520h90l-82 -520q-16 -101 -80.5 -155.5t-168.5 -54.5zM257 956h110l86 -146h-90z" />
    <glyph glyph-name="Uacute" unicode="&#xda;" 
d="M260 -10q-100 0 -148.5 56t-32.5 154l82 520h90l-82 -520q-10 -61 17.5 -95.5t86.5 -34.5q60 0 98 33.5t48 96.5l82 520h90l-82 -520q-16 -101 -80.5 -155.5t-168.5 -54.5zM463 956h-110l-109 -146h90z" />
    <glyph glyph-name="Ucircumflex" unicode="&#xdb;" 
d="M260 -10q-100 0 -148.5 56t-32.5 154l82 520h90l-82 -520q-10 -61 17.5 -95.5t86.5 -34.5q60 0 98 33.5t48 96.5l82 520h90l-82 -520q-16 -101 -80.5 -155.5t-168.5 -54.5zM212 810l155 145h70l105 -145h-75l-45 57q-15 20 -19 26q-4 5 -5 8h-3q-3 -3 -8 -7
q-6 -7 -28 -26l-66 -58h-81z" />
    <glyph glyph-name="Udieresis" unicode="&#xdc;" 
d="M260 -10q-100 0 -148.5 56t-32.5 154l82 520h90l-82 -520q-10 -61 17.5 -95.5t86.5 -34.5q60 0 98 33.5t48 96.5l82 520h90l-82 -520q-16 -101 -80.5 -155.5t-168.5 -54.5zM238 887q5 27 24.5 43.5t46.5 16.5t40.5 -16.5t8.5 -43.5t-24 -43.5t-46 -16.5t-41 16.5t-9 43.5
zM438 887q5 27 24.5 43.5t46.5 16.5t40.5 -16.5t8.5 -43.5t-24 -43.5t-46 -16.5t-41 16.5t-9 43.5z" />
    <glyph glyph-name="Ydieresis" unicode="&#x178;" 
d="M185 720l98 -317q5 -15 7.5 -29.5t4.5 -25.5q1 -13 2 -24h4q4 11 10 24q5 11 12.5 25.5t16.5 29.5l194 317h100l-299 -470l-40 -250h-90l40 250l-151 470h91zM226 887q5 27 24.5 43.5t46.5 16.5t40.5 -16.5t8.5 -43.5t-24 -43.5t-46 -16.5t-41 16.5t-9 43.5zM426 887
q5 27 24.5 43.5t46.5 16.5t40.5 -16.5t8.5 -43.5t-24 -43.5t-46 -16.5t-41 16.5t-9 43.5z" />
    <glyph glyph-name="Yacute" unicode="&#xdd;" 
d="M185 720l98 -317q5 -15 7.5 -29.5t4.5 -25.5q1 -13 2 -24h4q4 11 10 24q5 11 12.5 25.5t16.5 29.5l194 317h100l-299 -470l-40 -250h-90l40 250l-151 470h91zM451 956h-110l-109 -146h90z" />
    <glyph glyph-name="Zcaron" unicode="&#x17d;" 
d="M568 720l-13 -81l-408 -562v-2l71 4h260l-13 -79h-430l13 80l408 562v2l-72 -3h-239l12 79h411zM225 955h76l46 -58q14 -17 19 -25q3 -5 5 -8h3l8 8l10.5 10.5t17.5 15.5l65 57h80l-155 -145h-70z" />
    <glyph glyph-name="aacute" unicode="&#xe1;" 
d="M66 205l22 140q6 48 25.5 88t48.5 68t66 43.5t79 15.5q60 0 95 -28t40 -77h8l15 95h83l-87 -550h-83l15 95h-8q-20 -49 -64.5 -77t-104.5 -28q-42 0 -73.5 15.5t-51 43.5t-26.5 68t1 88zM256 68q57 0 96 34t52 92l25 160q7 59 -21 93.5t-82 34.5q-62 0 -101 -36.5
t-49 -100.5l-22 -140q-11 -64 16.5 -100.5t85.5 -36.5zM454 796h-110l-109 -146h90z" />
    <glyph glyph-name="acircumflex" unicode="&#xe2;" 
d="M66 205l22 140q6 48 25.5 88t48.5 68t66 43.5t79 15.5q60 0 95 -28t40 -77h8l15 95h83l-87 -550h-83l15 95h-8q-20 -49 -64.5 -77t-104.5 -28q-42 0 -73.5 15.5t-51 43.5t-26.5 68t1 88zM256 68q57 0 96 34t52 92l25 160q7 59 -21 93.5t-82 34.5q-62 0 -101 -36.5
t-49 -100.5l-22 -140q-11 -64 16.5 -100.5t85.5 -36.5zM203 650l155 145h70l105 -145h-75l-45 57q-15 20 -19 26q-4 5 -5 8h-3q-3 -3 -8 -7q-6 -7 -28 -26l-66 -58h-81z" />
    <glyph glyph-name="atilde" unicode="&#xe3;" 
d="M66 205l22 140q6 48 25.5 88t48.5 68t66 43.5t79 15.5q60 0 95 -28t40 -77h8l15 95h83l-87 -550h-83l15 95h-8q-20 -49 -64.5 -77t-104.5 -28q-42 0 -73.5 15.5t-51 43.5t-26.5 68t1 88zM256 68q57 0 96 34t52 92l25 160q7 59 -21 93.5t-82 34.5q-62 0 -101 -36.5
t-49 -100.5l-22 -140q-11 -64 16.5 -100.5t85.5 -36.5zM464 715q21 0 35.5 14.5t19.5 40.5l3 20h65l-3 -20q-11 -58 -45 -89t-86 -31q-34 0 -54 12.5t-35 27.5t-29.5 27.5t-37.5 12.5q-21 0 -35.5 -14.5t-19.5 -40.5l-4 -20h-65l4 20q11 58 45 89t86 31q34 0 54 -12.5
t35 -27.5t30 -27.5t37 -12.5z" />
    <glyph glyph-name="aring" unicode="&#xe5;" 
d="M66 205l22 140q6 48 25.5 88t48.5 68t66 43.5t79 15.5q60 0 95 -28t40 -77h8l15 95h83l-87 -550h-83l15 95h-8q-20 -49 -64.5 -77t-104.5 -28q-42 0 -73.5 15.5t-51 43.5t-26.5 68t1 88zM256 68q57 0 96 34t52 92l25 160q7 59 -21 93.5t-82 34.5q-62 0 -101 -36.5
t-49 -100.5l-22 -140q-11 -64 16.5 -100.5t85.5 -36.5zM285 720q8 48 46 76.5t92 28.5t82 -28.5t20 -76.5t-46.5 -76.5t-92.5 -28.5t-81.5 28.5t-19.5 76.5zM345 720q-5 -26 7.5 -40t41.5 -14t47.5 14t23.5 40t-8.5 40.5t-42.5 14.5q-28 0 -46 -14.5t-23 -40.5z" />
    <glyph glyph-name="egrave" unicode="&#xe8;" 
d="M252 -10q-50 0 -88.5 15t-62.5 42t-33.5 66t-1.5 87l23 150q16 98 83.5 154t170.5 56q50 0 88.5 -15t62.5 -42t33.5 -66t1.5 -87l-16 -101h-349l-7 -44q-11 -63 18 -99t90 -36q45 0 80.5 14t55.5 41h90q-27 -63 -91.5 -99t-147.5 -36zM435 324l4 26q10 62 -18.5 96
t-90.5 34t-101.5 -34t-49.5 -96l-4 -26h260zM249 796h110l86 -146h-90z" />
    <glyph glyph-name="eacute" unicode="&#xe9;" 
d="M252 -10q-50 0 -88.5 15t-62.5 42t-33.5 66t-1.5 87l23 150q16 98 83.5 154t170.5 56q50 0 88.5 -15t62.5 -42t33.5 -66t1.5 -87l-16 -101h-349l-7 -44q-11 -63 18 -99t90 -36q45 0 80.5 14t55.5 41h90q-27 -63 -91.5 -99t-147.5 -36zM435 324l4 26q10 62 -18.5 96
t-90.5 34t-101.5 -34t-49.5 -96l-4 -26h260zM455 796h-110l-109 -146h90z" />
    <glyph glyph-name="ecircumflex" unicode="&#xea;" 
d="M252 -10q-50 0 -88.5 15t-62.5 42t-33.5 66t-1.5 87l23 150q16 98 83.5 154t170.5 56q50 0 88.5 -15t62.5 -42t33.5 -66t1.5 -87l-16 -101h-349l-7 -44q-11 -63 18 -99t90 -36q45 0 80.5 14t55.5 41h90q-27 -63 -91.5 -99t-147.5 -36zM435 324l4 26q10 62 -18.5 96
t-90.5 34t-101.5 -34t-49.5 -96l-4 -26h260zM204 650l155 145h70l105 -145h-75l-45 57q-15 20 -19 26q-4 5 -5 8h-3q-3 -3 -8 -7q-6 -7 -28 -26l-66 -58h-81z" />
    <glyph glyph-name="edieresis" unicode="&#xeb;" 
d="M252 -10q-50 0 -88.5 15t-62.5 42t-33.5 66t-1.5 87l23 150q16 98 83.5 154t170.5 56q50 0 88.5 -15t62.5 -42t33.5 -66t1.5 -87l-16 -101h-349l-7 -44q-11 -63 18 -99t90 -36q45 0 80.5 14t55.5 41h90q-27 -63 -91.5 -99t-147.5 -36zM435 324l4 26q10 62 -18.5 96
t-90.5 34t-101.5 -34t-49.5 -96l-4 -26h260zM230 727q5 27 24.5 43.5t46.5 16.5t40.5 -16.5t8.5 -43.5t-24 -43.5t-46 -16.5t-41 16.5t-9 43.5zM430 727q5 27 24.5 43.5t46.5 16.5t40.5 -16.5t8.5 -43.5t-24 -43.5t-46 -16.5t-41 16.5t-9 43.5z" />
    <glyph glyph-name="igrave" unicode="&#xec;" 
d="M60 416l3 14q6 29 21.5 53t38.5 41t53 26.5t64 9.5q69 0 103.5 -35.5t23.5 -94.5l-58 -295q-5 -29 10.5 -47t46.5 -18q32 0 55.5 18.5t29.5 48.5l1 8h88l-1 -8q-6 -33 -23 -60t-41.5 -46.5t-56 -30t-67.5 -10.5q-71 0 -107 39.5t-23 105.5l58 295q5 25 -10 40t-44 15
t-49 -15t-25 -40l-3 -14h-88zM245 796h110l86 -146h-90z" />
    <glyph glyph-name="iacute" unicode="&#xed;" 
d="M60 416l3 14q6 29 21.5 53t38.5 41t53 26.5t64 9.5q69 0 103.5 -35.5t23.5 -94.5l-58 -295q-5 -29 10.5 -47t46.5 -18q32 0 55.5 18.5t29.5 48.5l1 8h88l-1 -8q-6 -33 -23 -60t-41.5 -46.5t-56 -30t-67.5 -10.5q-71 0 -107 39.5t-23 105.5l58 295q5 25 -10 40t-44 15
t-49 -15t-25 -40l-3 -14h-88zM451 796h-110l-109 -146h90z" />
    <glyph glyph-name="icircumflex" unicode="&#xee;" 
d="M60 416l3 14q6 29 21.5 53t38.5 41t53 26.5t64 9.5q69 0 103.5 -35.5t23.5 -94.5l-58 -295q-5 -29 10.5 -47t46.5 -18q32 0 55.5 18.5t29.5 48.5l1 8h88l-1 -8q-6 -33 -23 -60t-41.5 -46.5t-56 -30t-67.5 -10.5q-71 0 -107 39.5t-23 105.5l58 295q5 25 -10 40t-44 15
t-49 -15t-25 -40l-3 -14h-88zM200 650l155 145h70l105 -145h-75l-45 57q-15 20 -19 26q-4 5 -5 8h-3q-3 -3 -8 -7q-6 -7 -28 -26l-66 -58h-81z" />
    <glyph glyph-name="idieresis" unicode="&#xef;" 
d="M60 416l3 14q6 29 21.5 53t38.5 41t53 26.5t64 9.5q69 0 103.5 -35.5t23.5 -94.5l-58 -295q-5 -29 10.5 -47t46.5 -18q32 0 55.5 18.5t29.5 48.5l1 8h88l-1 -8q-6 -33 -23 -60t-41.5 -46.5t-56 -30t-67.5 -10.5q-71 0 -107 39.5t-23 105.5l58 295q5 25 -10 40t-44 15
t-49 -15t-25 -40l-3 -14h-88zM226 727q5 27 24.5 43.5t46.5 16.5t40.5 -16.5t8.5 -43.5t-24 -43.5t-46 -16.5t-41 16.5t-9 43.5zM426 727q5 27 24.5 43.5t46.5 16.5t40.5 -16.5t8.5 -43.5t-24 -43.5t-46 -16.5t-41 16.5t-9 43.5z" />
    <glyph glyph-name="ograve" unicode="&#xf2;" 
d="M162 200q-11 -63 18.5 -96.5t90.5 -33.5q60 0 100 33.5t51 96.5l23 150q11 63 -19 96.5t-90 33.5q-61 0 -101 -34.5t-50 -95.5zM97 350q17 100 82.5 155t169.5 55q101 0 150.5 -56t34.5 -153l-24 -151q-16 -100 -81.5 -155t-170.5 -55q-102 0 -151 56.5t-33 153.5z
M257 796h110l86 -146h-90z" />
    <glyph glyph-name="oacute" unicode="&#xf3;" 
d="M162 200q-11 -63 18.5 -96.5t90.5 -33.5q60 0 100 33.5t51 96.5l23 150q11 63 -19 96.5t-90 33.5q-61 0 -101 -34.5t-50 -95.5zM97 350q17 100 82.5 155t169.5 55q101 0 150.5 -56t34.5 -153l-24 -151q-16 -100 -81.5 -155t-170.5 -55q-102 0 -151 56.5t-33 153.5z
M463 796h-110l-109 -146h90z" />
    <glyph glyph-name="ocircumflex" unicode="&#xf4;" 
d="M162 200q-11 -63 18.5 -96.5t90.5 -33.5q60 0 100 33.5t51 96.5l23 150q11 63 -19 96.5t-90 33.5q-61 0 -101 -34.5t-50 -95.5zM97 350q17 100 82.5 155t169.5 55q101 0 150.5 -56t34.5 -153l-24 -151q-16 -100 -81.5 -155t-170.5 -55q-102 0 -151 56.5t-33 153.5z
M212 650l155 145h70l105 -145h-75l-45 57q-15 20 -19 26q-4 5 -5 8h-3q-3 -3 -8 -7q-6 -7 -28 -26l-66 -58h-81z" />
    <glyph glyph-name="otilde" unicode="&#xf5;" 
d="M162 200q-11 -63 18.5 -96.5t90.5 -33.5q60 0 100 33.5t51 96.5l23 150q11 63 -19 96.5t-90 33.5q-61 0 -101 -34.5t-50 -95.5zM97 350q17 100 82.5 155t169.5 55q101 0 150.5 -56t34.5 -153l-24 -151q-16 -100 -81.5 -155t-170.5 -55q-102 0 -151 56.5t-33 153.5z
M473 715q21 0 35.5 14.5t19.5 40.5l3 20h65l-3 -20q-11 -58 -45 -89t-86 -31q-34 0 -54 12.5t-35 27.5t-29.5 27.5t-37.5 12.5q-21 0 -35.5 -14.5t-19.5 -40.5l-4 -20h-65l4 20q11 58 45 89t86 31q34 0 54 -12.5t35 -27.5t30 -27.5t37 -12.5z" />
    <glyph glyph-name="odieresis" unicode="&#xf6;" 
d="M162 200q-11 -63 18.5 -96.5t90.5 -33.5q60 0 100 33.5t51 96.5l23 150q11 63 -19 96.5t-90 33.5q-61 0 -101 -34.5t-50 -95.5zM97 350q17 100 82.5 155t169.5 55q101 0 150.5 -56t34.5 -153l-24 -151q-16 -100 -81.5 -155t-170.5 -55q-102 0 -151 56.5t-33 153.5z
M238 727q5 27 24.5 43.5t46.5 16.5t40.5 -16.5t8.5 -43.5t-24 -43.5t-46 -16.5t-41 16.5t-9 43.5zM438 727q5 27 24.5 43.5t46.5 16.5t40.5 -16.5t8.5 -43.5t-24 -43.5t-46 -16.5t-41 16.5t-9 43.5z" />
    <glyph glyph-name="scaron" unicode="&#x161;" 
d="M234 -10q-87 0 -137 39.5t-48 105.5h95q2 -29 30 -47t73 -18h28q54 0 87.5 22.5t39.5 60.5q10 65 -79 79l-81 12q-80 12 -113.5 51t-22.5 109q12 74 71 115t153 41h28q80 0 128 -38t48 -101h-95q-2 26 -27.5 42.5t-66.5 16.5h-28q-51 0 -82.5 -20t-37.5 -60
q-5 -32 11.5 -48.5t59.5 -22.5l81 -12q88 -13 122 -52t22 -111q-12 -77 -72.5 -120.5t-158.5 -43.5h-28zM226 795h76l46 -58q14 -17 19 -25q3 -5 5 -8h3l8 8l10.5 10.5t17.5 15.5l65 57h80l-155 -145h-70z" />
    <glyph glyph-name="ugrave" unicode="&#xf9;" 
d="M84 194l56 356h90l-58 -356q-21 -125 99 -125q121 0 141 125l56 356h88l-56 -356q-16 -98 -78 -151t-164 -53q-98 0 -143.5 54t-30.5 150zM256 796h110l86 -146h-90z" />
    <glyph glyph-name="uacute" unicode="&#xfa;" 
d="M84 194l56 356h90l-58 -356q-21 -125 99 -125q121 0 141 125l56 356h88l-56 -356q-16 -98 -78 -151t-164 -53q-98 0 -143.5 54t-30.5 150zM462 796h-110l-109 -146h90z" />
    <glyph glyph-name="ucircumflex" unicode="&#xfb;" 
d="M84 194l56 356h90l-58 -356q-21 -125 99 -125q121 0 141 125l56 356h88l-56 -356q-16 -98 -78 -151t-164 -53q-98 0 -143.5 54t-30.5 150zM211 650l155 145h70l105 -145h-75l-45 57q-15 20 -19 26q-4 5 -5 8h-3q-3 -3 -8 -7q-6 -7 -28 -26l-66 -58h-81z" />
    <glyph glyph-name="udieresis" unicode="&#xfc;" 
d="M84 194l56 356h90l-58 -356q-21 -125 99 -125q121 0 141 125l56 356h88l-56 -356q-16 -98 -78 -151t-164 -53q-98 0 -143.5 54t-30.5 150zM237 727q5 27 24.5 43.5t46.5 16.5t40.5 -16.5t8.5 -43.5t-24 -43.5t-46 -16.5t-41 16.5t-9 43.5zM437 727q5 27 24.5 43.5
t46.5 16.5t40.5 -16.5t8.5 -43.5t-24 -43.5t-46 -16.5t-41 16.5t-9 43.5z" />
    <glyph glyph-name="yacute" unicode="&#xfd;" 
d="M75 239l49 311h90l-46 -291q-10 -63 17 -98t84 -35t95.5 34.5t47.5 94.5l47 295h88l-87 -537q-14 -85 -69.5 -131.5t-146.5 -46.5h-176l12 78h176q48 0 78 26t38 74l8 47l20 95h-6q-21 -50 -65 -77.5t-103 -27.5q-41 0 -72 13.5t-51 38.5t-27.5 59.5t-0.5 77.5zM451 796
h-110l-109 -146h90z" />
    <glyph glyph-name="ydieresis" unicode="&#xff;" 
d="M75 239l49 311h90l-46 -291q-10 -63 17 -98t84 -35t95.5 34.5t47.5 94.5l47 295h88l-87 -537q-14 -85 -69.5 -131.5t-146.5 -46.5h-176l12 78h176q48 0 78 26t38 74l8 47l20 95h-6q-21 -50 -65 -77.5t-103 -27.5q-41 0 -72 13.5t-51 38.5t-27.5 59.5t-0.5 77.5zM226 727
q5 27 24.5 43.5t46.5 16.5t40.5 -16.5t8.5 -43.5t-24 -43.5t-46 -16.5t-41 16.5t-9 43.5zM426 727q5 27 24.5 43.5t46.5 16.5t40.5 -16.5t8.5 -43.5t-24 -43.5t-46 -16.5t-41 16.5t-9 43.5z" />
    <glyph glyph-name="zcaron" unicode="&#x17e;" 
d="M125 550h421l-16 -101l-385 -366q0 -1 -0.5 -3.5t-0.5 -3.5q11 1 24 2q11 1 24.5 1.5t27.5 0.5h263l-13 -80h-440l16 100l387 367q0 1 0.5 3t0.5 3q-13 -1 -26 -1q-12 -1 -26.5 -1.5t-28.5 -0.5h-241zM225 795h76l46 -58q14 -17 19 -25q3 -5 5 -8h3l8 8l10.5 10.5
t17.5 15.5l65 57h80l-155 -145h-70z" />
    <glyph glyph-name="Ntilde" unicode="&#xd1;" 
d="M149 720h115l111 -483q5 -18 8.5 -41.5t6.5 -44.5q4 -25 7 -51h7l0.5 10.5t1.5 28.5t3.5 41.5t6.5 49.5l78 490h85l-114 -720h-115l-107 484q-5 23 -9.5 47t-7.5 44q-4 23 -7 46h-7q-1 -16 -2 -36q-2 -17 -4.5 -40.5t-7.5 -52.5l-78 -492h-85zM466 875q21 0 35.5 14.5
t19.5 40.5l3 20h65l-3 -20q-11 -58 -45 -89t-86 -31q-34 0 -54 12.5t-35 27.5t-29.5 27.5t-37.5 12.5q-21 0 -35.5 -14.5t-19.5 -40.5l-4 -20h-65l4 20q11 58 45 89t86 31q34 0 54 -12.5t35 -27.5t30 -27.5t37 -12.5z" />
    <glyph glyph-name="Dcroat" unicode="&#x110;" 
d="M40 395h61l51 325h201q52 0 92 -16t66 -44.5t36 -69t2 -89.5l-44 -281q-8 -49 -31 -90t-58 -69.5t-80 -44.5t-97 -16h-201l51 320h-61zM179 320l-38 -240h111q63 0 107.5 38.5t54.5 101.5l44 281q11 63 -22 101t-96 38h-111l-38 -245h114l-12 -75h-114z" />
    <glyph glyph-name="Eth" unicode="&#xd0;" 
d="M40 395h61l51 325h201q52 0 92 -16t66 -44.5t36 -69t2 -89.5l-44 -281q-8 -49 -31 -90t-58 -69.5t-80 -44.5t-97 -16h-201l51 320h-61zM179 320l-38 -240h111q63 0 107.5 38.5t54.5 101.5l44 281q11 63 -22 101t-96 38h-111l-38 -245h114l-12 -75h-114z" />
    <glyph glyph-name="thorn" unicode="&#xfe;" 
d="M42 59h1l108 671h88l-27 -170q-2 -12 -5 -27.5t-6.5 -30.5t-6 -28t-4.5 -19h8q20 49 64.5 77t104.5 28q42 0 73.5 -15.5t51 -43.5t27 -68t-0.5 -88l-22 -140q-8 -48 -27.5 -88t-48.5 -68t-65.5 -43.5t-78.5 -15.5q-60 0 -95 28t-40 77h-8l-41 -260h-85zM156 205
q-11 -63 17.5 -100t88.5 -37q58 0 96.5 36.5t49.5 100.5l22 140q10 64 -18 100.5t-90 36.5q-56 0 -95 -37t-49 -100z" />
    <glyph glyph-name="Oslash" unicode="&#xd8;" 
d="M152 204v-2l292 409q-30 39 -91 39q-60 0 -100.5 -36t-50.5 -98zM460 508l-287 -402q30 -36 88 -36q60 0 100.5 36t50.5 98zM112 516q16 100 83.5 157t170.5 57q83 0 133 -42l45 62h90l-90 -126q17 -47 8 -108l-50 -312q-16 -100 -83.5 -157t-170.5 -57q-80 0 -130 39
l-49 -69h-90l93 131q-20 49 -10 113z" />
    <glyph glyph-name="oslash" unicode="&#xf8;" 
d="M-20 -30l94 110q-11 24 -14.5 54.5t2.5 65.5l23 150q17 100 82.5 155t169.5 55q76 0 123 -32l54 62h95l-101 -117q24 -50 14 -122l-24 -151q-16 -100 -81.5 -155t-170.5 -55q-77 0 -125 34l-47 -54h-94zM180 93q29 -23 79 -23q60 0 100 33.5t51 96.5l23 150q3 23 2 39z
M401 459q-28 21 -77 21q-61 0 -101 -34.5t-50 -95.5l-23 -150q-3 -19 -3 -36z" />
    <glyph glyph-name="lslash" unicode="&#x142;" 
d="M87 728h248l-48 -302l220 134l-13 -80l-220 -134l-29 -186q-6 -41 16 -65.5t65 -24.5q44 0 74.5 25t37.5 67l11 73h88l-11 -73q-6 -39 -24.5 -70.5t-46.5 -54t-64.5 -35t-78.5 -12.5q-41 0 -72.5 12t-52 34.5t-28.5 54t-2 69.5l20 126l-92 -56l13 80l92 56l44 280h-160z
" />
    <glyph glyph-name="Lslash" unicode="&#x141;" 
d="M231 356l-43 -274h340l-13 -82h-430l47 295l-107 -65l13 80l106 65l55 345h90l-45 -284l203 124l-13 -80z" />
    <glyph glyph-name="Amacron" unicode="&#x100;" 
d="M148 274v4h2l190 442h126l76 -720h-92l-18 203h-222l-84 -203h-96zM241 278h185l-25 285q-3 42 -3 70v27h-4l-9 -27q-5 -14 -11.5 -31.5t-15.5 -38.5zM308 930h260l-11 -75h-260z" />
    <glyph glyph-name="amacron" unicode="&#x101;" 
d="M66 205l22 140q6 48 25.5 88t48.5 68t66 43.5t79 15.5q60 0 95 -28t40 -77h8l15 95h83l-87 -550h-83l15 95h-8q-20 -49 -64.5 -77t-104.5 -28q-42 0 -73.5 15.5t-51 43.5t-26.5 68t1 88zM256 68q57 0 96 34t52 92l25 160q7 59 -21 93.5t-82 34.5q-62 0 -101 -36.5
t-49 -100.5l-22 -140q-11 -64 16.5 -100.5t85.5 -36.5zM243 770h260l-11 -75h-260z" />
    <glyph glyph-name="Abreve" unicode="&#x102;" 
d="M148 274v4h2l190 442h126l76 -720h-92l-18 203h-222l-84 -203h-96zM241 278h185l-25 285q-3 42 -3 70v27h-4l-9 -27q-5 -14 -11.5 -31.5t-15.5 -38.5zM279 950h75q-6 -34 17 -52t65 -18t72 18t36 52h75q-5 -30 -22.5 -55t-43.5 -43t-59 -27.5t-69 -9.5t-65.5 9.5
t-49 27.5t-28 43t-3.5 55z" />
    <glyph glyph-name="abreve" unicode="&#x103;" 
d="M66 205l22 140q6 48 25.5 88t48.5 68t66 43.5t79 15.5q60 0 95 -28t40 -77h8l15 95h83l-87 -550h-83l15 95h-8q-20 -49 -64.5 -77t-104.5 -28q-42 0 -73.5 15.5t-51 43.5t-26.5 68t1 88zM256 68q57 0 96 34t52 92l25 160q7 59 -21 93.5t-82 34.5q-62 0 -101 -36.5
t-49 -100.5l-22 -140q-11 -64 16.5 -100.5t85.5 -36.5zM222 790h75q-6 -34 17 -52t65 -18t72 18t36 52h75q-5 -30 -22.5 -55t-43.5 -43t-59 -27.5t-69 -9.5t-65.5 9.5t-49 27.5t-28 43t-3.5 55z" />
    <glyph glyph-name="Aogonek" unicode="&#x104;" 
d="M148 274v4h2l190 442h126l76 -720h-92l-18 203h-222l-84 -203h-96zM241 278h185l-25 285q-3 42 -3 70v27h-4l-9 -27q-5 -14 -11.5 -31.5t-15.5 -38.5zM304 -99q7 38 35 64t59 43q37 19 82 30h25l-15.5 -11t-35 -28.5t-37 -39.5t-21.5 -45q-3 -21 8 -33.5t32 -12.5
q15 0 28.5 3t24 6.5t17 6.5l6.5 3l-9 -55q-11 -6 -25 -11q-12 -5 -28.5 -8t-37.5 -3q-55 0 -84.5 24.5t-23.5 66.5z" />
    <glyph glyph-name="aogonek" unicode="&#x105;" 
d="M66 205l22 140q6 48 25.5 88t48.5 68t66 43.5t79 15.5q60 0 95 -28t40 -77h8l15 95h83l-87 -550h-83l15 95h-8q-20 -49 -64.5 -77t-104.5 -28q-42 0 -73.5 15.5t-51 43.5t-26.5 68t1 88zM256 68q57 0 96 34t52 92l25 160q7 59 -21 93.5t-82 34.5q-62 0 -101 -36.5
t-49 -100.5l-22 -140q-11 -64 16.5 -100.5t85.5 -36.5zM267 -99q7 38 35 64t59 43q37 19 82 30h25l-15.5 -11t-35 -28.5t-37 -39.5t-21.5 -45q-3 -21 8 -33.5t32 -12.5q15 0 28.5 3t24 6.5t17 6.5l6.5 3l-9 -55q-11 -6 -25 -11q-12 -5 -28.5 -8t-37.5 -3q-55 0 -84.5 24.5
t-23.5 66.5z" />
    <glyph glyph-name="Cacute" unicode="&#x106;" 
d="M384 730q91 0 141 -52t46 -143h-88q2 54 -28 85.5t-84 31.5q-60 0 -100.5 -37t-50.5 -100l-49 -310q-11 -64 18.5 -100.5t89.5 -36.5q55 0 94.5 31.5t53.5 85.5h88q-25 -93 -90.5 -144t-158.5 -51q-102 0 -151 55.5t-33 154.5l50 320q16 99 83 154.5t169 55.5zM463 956
h-110l-109 -146h90z" />
    <glyph glyph-name="cacute" unicode="&#x107;" 
d="M261 -10q-49 0 -86.5 15.5t-61.5 43.5t-33.5 67.5t-1.5 88.5l22 140q16 101 82.5 158t169.5 57q42 0 77.5 -13.5t60 -38t38 -58.5t12.5 -75h-88q2 47 -30 76t-83 29q-60 0 -100.5 -36t-50.5 -99l-22 -140q-11 -63 18 -99t90 -36q55 0 94 28t53 77h88q-26 -89 -90 -137
t-158 -48zM455 796h-110l-109 -146h90z" />
    <glyph glyph-name="Ccircumflex" unicode="&#x108;" 
d="M384 730q91 0 141 -52t46 -143h-88q2 54 -28 85.5t-84 31.5q-60 0 -100.5 -37t-50.5 -100l-49 -310q-11 -64 18.5 -100.5t89.5 -36.5q55 0 94.5 31.5t53.5 85.5h88q-25 -93 -90.5 -144t-158.5 -51q-102 0 -151 55.5t-33 154.5l50 320q16 99 83 154.5t169 55.5zM212 810
l155 145h70l105 -145h-75l-45 57q-15 20 -19 26q-4 5 -5 8h-3q-3 -3 -8 -7q-6 -7 -28 -26l-66 -58h-81z" />
    <glyph glyph-name="ccircumflex" unicode="&#x109;" 
d="M261 -10q-49 0 -86.5 15.5t-61.5 43.5t-33.5 67.5t-1.5 88.5l22 140q16 101 82.5 158t169.5 57q42 0 77.5 -13.5t60 -38t38 -58.5t12.5 -75h-88q2 47 -30 76t-83 29q-60 0 -100.5 -36t-50.5 -99l-22 -140q-11 -63 18 -99t90 -36q55 0 94 28t53 77h88q-26 -89 -90 -137
t-158 -48zM204 650l155 145h70l105 -145h-75l-45 57q-15 20 -19 26q-4 5 -5 8h-3q-3 -3 -8 -7q-6 -7 -28 -26l-66 -58h-81z" />
    <glyph glyph-name="Cdotaccent" unicode="&#x10a;" 
d="M384 730q91 0 141 -52t46 -143h-88q2 54 -28 85.5t-84 31.5q-60 0 -100.5 -37t-50.5 -100l-49 -310q-11 -64 18.5 -100.5t89.5 -36.5q55 0 94.5 31.5t53.5 85.5h88q-25 -93 -90.5 -144t-158.5 -51q-102 0 -151 55.5t-33 154.5l50 320q16 99 83 154.5t169 55.5zM393 965
h20q29 0 45 -17t11 -44t-25.5 -43t-49.5 -16h-20q-29 0 -44.5 15.5t-10.5 43.5q5 27 25 44t49 17z" />
    <glyph glyph-name="cdotaccent" unicode="&#x10b;" 
d="M261 -10q-49 0 -86.5 15.5t-61.5 43.5t-33.5 67.5t-1.5 88.5l22 140q16 101 82.5 158t169.5 57q42 0 77.5 -13.5t60 -38t38 -58.5t12.5 -75h-88q2 47 -30 76t-83 29q-60 0 -100.5 -36t-50.5 -99l-22 -140q-11 -63 18 -99t90 -36q55 0 94 28t53 77h88q-26 -89 -90 -137
t-158 -48zM380 805h20q29 0 45 -17t11 -44t-25.5 -43t-49.5 -16h-20q-29 0 -44.5 15.5t-10.5 43.5q5 27 25 44t49 17z" />
    <glyph glyph-name="Ccaron" unicode="&#x10c;" 
d="M384 730q91 0 141 -52t46 -143h-88q2 54 -28 85.5t-84 31.5q-60 0 -100.5 -37t-50.5 -100l-49 -310q-11 -64 18.5 -100.5t89.5 -36.5q55 0 94.5 31.5t53.5 85.5h88q-25 -93 -90.5 -144t-158.5 -51q-102 0 -151 55.5t-33 154.5l50 320q16 99 83 154.5t169 55.5zM237 955
h76l46 -58q14 -17 19 -25q3 -5 5 -8h3l8 8l10.5 10.5t17.5 15.5l65 57h80l-155 -145h-70z" />
    <glyph glyph-name="Dcaron" unicode="&#x10e;" 
d="M252 80q63 0 107.5 38.5t54.5 101.5l44 281q11 63 -22 101t-96 38h-111l-88 -560h111zM38 0l114 720h201q52 0 92 -16t66 -44.5t36 -69t2 -89.5l-44 -281q-8 -49 -31 -90t-58 -69.5t-80 -44.5t-97 -16h-201zM225 955h76l46 -58q14 -17 19 -25q3 -5 5 -8h3l8 8l10.5 10.5
t17.5 15.5l65 57h80l-155 -145h-70z" />
    <glyph glyph-name="dcaron" unicode="&#x10f;" 
d="M43 205l22 140q6 48 25.5 88t48.5 68t66 43.5t79 15.5q60 0 95 -28t40 -77h7q1 6 2 17.5t2.5 25t3.5 27.5t3 25l29 180h88l-116 -730h-83l15 95h-8q-20 -49 -64.5 -77t-104.5 -28q-42 0 -73.5 15.5t-51 43.5t-26.5 68t1 88zM233 68q56 0 94.5 33t52.5 90l27 169
q5 56 -23.5 89t-80.5 33q-62 0 -101 -36.5t-49 -100.5l-22 -140q-11 -64 16.5 -100.5t85.5 -36.5zM635 756h90l-93 -146h-70z" />
    <glyph glyph-name="Emacron" unicode="&#x112;" 
d="M159 720h425l-13 -82h-335l-36 -226h300l-13 -82h-300l-39 -248h335l-13 -82h-425zM260 930h260l-11 -75h-260z" />
    <glyph glyph-name="emacron" unicode="&#x113;" 
d="M252 -10q-50 0 -88.5 15t-62.5 42t-33.5 66t-1.5 87l23 150q16 98 83.5 154t170.5 56q50 0 88.5 -15t62.5 -42t33.5 -66t1.5 -87l-16 -101h-349l-7 -44q-11 -63 18 -99t90 -36q45 0 80.5 14t55.5 41h90q-27 -63 -91.5 -99t-147.5 -36zM435 324l4 26q10 62 -18.5 96
t-90.5 34t-101.5 -34t-49.5 -96l-4 -26h260zM244 770h260l-11 -75h-260z" />
    <glyph glyph-name="Ebreve" unicode="&#x114;" 
d="M159 720h425l-13 -82h-335l-36 -226h300l-13 -82h-300l-39 -248h335l-13 -82h-425zM219 950h75q-6 -34 17 -52t65 -18t72 18t36 52h75q-5 -30 -22.5 -55t-43.5 -43t-59 -27.5t-69 -9.5t-65.5 9.5t-49 27.5t-28 43t-3.5 55z" />
    <glyph glyph-name="ebreve" unicode="&#x115;" 
d="M252 -10q-50 0 -88.5 15t-62.5 42t-33.5 66t-1.5 87l23 150q16 98 83.5 154t170.5 56q50 0 88.5 -15t62.5 -42t33.5 -66t1.5 -87l-16 -101h-349l-7 -44q-11 -63 18 -99t90 -36q45 0 80.5 14t55.5 41h90q-27 -63 -91.5 -99t-147.5 -36zM435 324l4 26q10 62 -18.5 96
t-90.5 34t-101.5 -34t-49.5 -96l-4 -26h260zM223 790h75q-6 -34 17 -52t65 -18t72 18t36 52h75q-5 -30 -22.5 -55t-43.5 -43t-59 -27.5t-69 -9.5t-65.5 9.5t-49 27.5t-28 43t-3.5 55z" />
    <glyph glyph-name="Edotaccent" unicode="&#x116;" 
d="M159 720h425l-13 -82h-335l-36 -226h300l-13 -82h-300l-39 -248h335l-13 -82h-425zM391 965h20q29 0 45 -17t11 -44t-25.5 -43t-49.5 -16h-20q-29 0 -44.5 15.5t-10.5 43.5q5 27 25 44t49 17z" />
    <glyph glyph-name="edotaccent" unicode="&#x117;" 
d="M252 -10q-50 0 -88.5 15t-62.5 42t-33.5 66t-1.5 87l23 150q16 98 83.5 154t170.5 56q50 0 88.5 -15t62.5 -42t33.5 -66t1.5 -87l-16 -101h-349l-7 -44q-11 -63 18 -99t90 -36q45 0 80.5 14t55.5 41h90q-27 -63 -91.5 -99t-147.5 -36zM435 324l4 26q10 62 -18.5 96
t-90.5 34t-101.5 -34t-49.5 -96l-4 -26h260zM373 805h20q29 0 45 -17t11 -44t-25.5 -43t-49.5 -16h-20q-29 0 -44.5 15.5t-10.5 43.5q5 27 25 44t49 17z" />
    <glyph glyph-name="Eogonek" unicode="&#x118;" 
d="M159 720h425l-13 -82h-335l-36 -226h300l-13 -82h-300l-39 -248h335l-13 -82h-425zM274 -99q7 38 35 64t59 43q37 19 82 30h25l-15.5 -11t-35 -28.5t-37 -39.5t-21.5 -45q-3 -21 8 -33.5t32 -12.5q15 0 28.5 3t24 6.5t17 6.5l6.5 3l-9 -55q-11 -6 -25 -11
q-12 -5 -28.5 -8t-37.5 -3q-55 0 -84.5 24.5t-23.5 66.5z" />
    <glyph glyph-name="eogonek" unicode="&#x119;" 
d="M252 -10q-50 0 -88.5 15t-62.5 42t-33.5 66t-1.5 87l23 150q16 98 83.5 154t170.5 56q50 0 88.5 -15t62.5 -42t33.5 -66t1.5 -87l-16 -101h-349l-7 -44q-11 -63 18 -99t90 -36q45 0 80.5 14t55.5 41h90q-27 -63 -91.5 -99t-147.5 -36zM435 324l4 26q10 62 -18.5 96
t-90.5 34t-101.5 -34t-49.5 -96l-4 -26h260zM218 -99q7 38 35 64t59 43q37 19 82 30h25l-15.5 -11t-35 -28.5t-37 -39.5t-21.5 -45q-3 -21 8 -33.5t32 -12.5q15 0 28.5 3t24 6.5t17 6.5l6.5 3l-9 -55q-11 -6 -25 -11q-12 -5 -28.5 -8t-37.5 -3q-55 0 -84.5 24.5t-23.5 66.5z
" />
    <glyph glyph-name="Ecaron" unicode="&#x11a;" 
d="M159 720h425l-13 -82h-335l-36 -226h300l-13 -82h-300l-39 -248h335l-13 -82h-425zM225 955h76l46 -58q14 -17 19 -25q3 -5 5 -8h3l8 8l10.5 10.5t17.5 15.5l65 57h80l-155 -145h-70z" />
    <glyph glyph-name="ecaron" unicode="&#x11b;" 
d="M252 -10q-50 0 -88.5 15t-62.5 42t-33.5 66t-1.5 87l23 150q16 98 83.5 154t170.5 56q50 0 88.5 -15t62.5 -42t33.5 -66t1.5 -87l-16 -101h-349l-7 -44q-11 -63 18 -99t90 -36q45 0 80.5 14t55.5 41h90q-27 -63 -91.5 -99t-147.5 -36zM435 324l4 26q10 62 -18.5 96
t-90.5 34t-101.5 -34t-49.5 -96l-4 -26h260zM229 795h76l46 -58q14 -17 19 -25q3 -5 5 -8h3l8 8l10.5 10.5t17.5 15.5l65 57h80l-155 -145h-70z" />
    <glyph glyph-name="Gcircumflex" unicode="&#x11c;" 
d="M365 650q-62 0 -101.5 -35.5t-49.5 -99.5l-49 -310q-11 -63 18.5 -99t89.5 -36q61 0 101 35.5t51 99.5l11 73h-146l13 80h236l-25 -158q-16 -100 -82.5 -155t-171.5 -55q-103 0 -152.5 55.5t-33.5 154.5l50 320q16 100 83 155t171 55q88 0 139.5 -47.5t56.5 -132.5h-92
q-5 47 -36 73.5t-81 26.5zM212 810l155 145h70l105 -145h-75l-45 57q-15 20 -19 26q-4 5 -5 8h-3q-3 -3 -8 -7q-6 -7 -28 -26l-66 -58h-81z" />
    <glyph glyph-name="gcircumflex" unicode="&#x11d;" 
d="M227 50q-44 0 -77 15t-54 42.5t-28.5 66t-0.5 86.5l14 90q8 48 27.5 87t49 66.5t67 42t81.5 14.5q67 0 103 -32t34 -88h2l17 110h88l-87 -537q-14 -85 -69.5 -131.5t-146.5 -46.5h-176l12 78h176q48 0 78 26t38 74l8 47l23 110h-6q-16 -56 -61.5 -88t-111.5 -32zM159 260
q-10 -62 19 -97t89 -35t99.5 35t49.5 97l14 90q10 62 -18.5 97t-88.5 35t-100 -35t-50 -97zM203 650l155 145h70l105 -145h-75l-45 57q-15 20 -19 26q-4 5 -5 8h-3q-3 -3 -8 -7q-6 -7 -28 -26l-66 -58h-81z" />
    <glyph glyph-name="Gbreve" unicode="&#x11e;" 
d="M365 650q-62 0 -101.5 -35.5t-49.5 -99.5l-49 -310q-11 -63 18.5 -99t89.5 -36q61 0 101 35.5t51 99.5l11 73h-146l13 80h236l-25 -158q-16 -100 -82.5 -155t-171.5 -55q-103 0 -152.5 55.5t-33.5 154.5l50 320q16 100 83 155t171 55q88 0 139.5 -47.5t56.5 -132.5h-92
q-5 47 -36 73.5t-81 26.5zM231 950h75q-6 -34 17 -52t65 -18t72 18t36 52h75q-5 -30 -22.5 -55t-43.5 -43t-59 -27.5t-69 -9.5t-65.5 9.5t-49 27.5t-28 43t-3.5 55z" />
    <glyph glyph-name="gbreve" unicode="&#x11f;" 
d="M227 50q-44 0 -77 15t-54 42.5t-28.5 66t-0.5 86.5l14 90q8 48 27.5 87t49 66.5t67 42t81.5 14.5q67 0 103 -32t34 -88h2l17 110h88l-87 -537q-14 -85 -69.5 -131.5t-146.5 -46.5h-176l12 78h176q48 0 78 26t38 74l8 47l23 110h-6q-16 -56 -61.5 -88t-111.5 -32zM159 260
q-10 -62 19 -97t89 -35t99.5 35t49.5 97l14 90q10 62 -18.5 97t-88.5 35t-100 -35t-50 -97zM222 790h75q-6 -34 17 -52t65 -18t72 18t36 52h75q-5 -30 -22.5 -55t-43.5 -43t-59 -27.5t-69 -9.5t-65.5 9.5t-49 27.5t-28 43t-3.5 55z" />
    <glyph glyph-name="Gdotaccent" unicode="&#x120;" 
d="M365 650q-62 0 -101.5 -35.5t-49.5 -99.5l-49 -310q-11 -63 18.5 -99t89.5 -36q61 0 101 35.5t51 99.5l11 73h-146l13 80h236l-25 -158q-16 -100 -82.5 -155t-171.5 -55q-103 0 -152.5 55.5t-33.5 154.5l50 320q16 100 83 155t171 55q88 0 139.5 -47.5t56.5 -132.5h-92
q-5 47 -36 73.5t-81 26.5zM410 965h20q29 0 45 -17t11 -44t-25.5 -43t-49.5 -16h-20q-29 0 -44.5 15.5t-10.5 43.5q5 27 25 44t49 17z" />
    <glyph glyph-name="gdotaccent" unicode="&#x121;" 
d="M227 50q-44 0 -77 15t-54 42.5t-28.5 66t-0.5 86.5l14 90q8 48 27.5 87t49 66.5t67 42t81.5 14.5q67 0 103 -32t34 -88h2l17 110h88l-87 -537q-14 -85 -69.5 -131.5t-146.5 -46.5h-176l12 78h176q48 0 78 26t38 74l8 47l23 110h-6q-16 -56 -61.5 -88t-111.5 -32zM159 260
q-10 -62 19 -97t89 -35t99.5 35t49.5 97l14 90q10 62 -18.5 97t-88.5 35t-100 -35t-50 -97zM369 805h20q29 0 45 -17t11 -44t-25.5 -43t-49.5 -16h-20q-29 0 -44.5 15.5t-10.5 43.5q5 27 25 44t49 17z" />
    <glyph glyph-name="Hcircumflex" unicode="&#x124;" 
d="M40 0l114 720h88l-48 -304h240l48 304h88l-114 -720h-88l53 334h-240l-53 -334h-88zM200 810l155 145h70l105 -145h-75l-45 57q-15 20 -19 26q-4 5 -5 8h-3q-3 -3 -8 -7q-6 -7 -28 -26l-66 -58h-81z" />
    <glyph glyph-name="hcircumflex" unicode="&#x125;" 
d="M103 0l116 730h88l-29 -180q-2 -14 -5.5 -30.5t-6.5 -30.5l-8 -34h8q21 50 65 77.5t103 27.5q41 0 71.5 -13.5t50 -38t27 -59.5t0.5 -78l-59 -371h-88l56 351q10 63 -17 98t-84 35q-55 0 -93 -32t-50 -89l-57 -363h-88zM100 810l155 145h70l105 -145h-75l-45 57
q-15 20 -19 26q-4 5 -5 8h-3q-3 -3 -8 -7q-6 -7 -28 -26l-66 -58h-81z" />
    <glyph glyph-name="Itilde" unicode="&#x128;" 
d="M45 0l13 79h159l89 562h-159l12 79h410l-12 -79h-159l-89 -562h159l-13 -79h-410zM461 875q21 0 35.5 14.5t19.5 40.5l3 20h65l-3 -20q-11 -58 -45 -89t-86 -31q-34 0 -54 12.5t-35 27.5t-29.5 27.5t-37.5 12.5q-21 0 -35.5 -14.5t-19.5 -40.5l-4 -20h-65l4 20
q11 58 45 89t86 31q34 0 54 -12.5t35 -27.5t30 -27.5t37 -12.5z" />
    <glyph glyph-name="itilde" unicode="&#x129;" 
d="M60 416l3 14q6 29 21.5 53t38.5 41t53 26.5t64 9.5q69 0 103.5 -35.5t23.5 -94.5l-58 -295q-5 -29 10.5 -47t46.5 -18q32 0 55.5 18.5t29.5 48.5l1 8h88l-1 -8q-6 -33 -23 -60t-41.5 -46.5t-56 -30t-67.5 -10.5q-71 0 -107 39.5t-23 105.5l58 295q5 25 -10 40t-44 15
t-49 -15t-25 -40l-3 -14h-88zM461 715q21 0 35.5 14.5t19.5 40.5l3 20h65l-3 -20q-11 -58 -45 -89t-86 -31q-34 0 -54 12.5t-35 27.5t-29.5 27.5t-37.5 12.5q-21 0 -35.5 -14.5t-19.5 -40.5l-4 -20h-65l4 20q11 58 45 89t86 31q34 0 54 -12.5t35 -27.5t30 -27.5t37 -12.5z
" />
    <glyph glyph-name="Imacron" unicode="&#x12a;" 
d="M45 0l13 79h159l89 562h-159l12 79h410l-12 -79h-159l-89 -562h159l-13 -79h-410zM270 930h260l-11 -75h-260z" />
    <glyph glyph-name="imacron" unicode="&#x12b;" 
d="M60 416l3 14q6 29 21.5 53t38.5 41t53 26.5t64 9.5q69 0 103.5 -35.5t23.5 -94.5l-58 -295q-5 -29 10.5 -47t46.5 -18q32 0 55.5 18.5t29.5 48.5l1 8h88l-1 -8q-6 -33 -23 -60t-41.5 -46.5t-56 -30t-67.5 -10.5q-71 0 -107 39.5t-23 105.5l58 295q5 25 -10 40t-44 15
t-49 -15t-25 -40l-3 -14h-88zM240 770h260l-11 -75h-260z" />
    <glyph glyph-name="Iogonek" unicode="&#x12e;" 
d="M45 0l13 79h159l89 562h-159l12 79h410l-12 -79h-159l-89 -562h159l-13 -79h-410zM244 -99q7 38 35 64t59 43q37 19 82 30h25l-15.5 -11t-35 -28.5t-37 -39.5t-21.5 -45q-3 -21 8 -33.5t32 -12.5q15 0 28.5 3t24 6.5t17 6.5l6.5 3l-9 -55q-11 -6 -25 -11q-12 -5 -28.5 -8
t-37.5 -3q-55 0 -84.5 24.5t-23.5 66.5z" />
    <glyph glyph-name="iogonek" unicode="&#x12f;" 
d="M60 416l3 14q6 29 21.5 53t38.5 41t53 26.5t64 9.5q69 0 103.5 -35.5t23.5 -94.5l-58 -295q-5 -29 10.5 -47t46.5 -18q32 0 55.5 18.5t29.5 48.5l1 8h88l-1 -8q-6 -33 -23 -60t-41.5 -46.5t-56 -30t-67.5 -10.5q-71 0 -107 39.5t-23 105.5l58 295q5 25 -10 40t-44 15
t-49 -15t-25 -40l-3 -14h-88zM365 765h20q29 0 43.5 -17t9.5 -44t-26 -43t-50 -16h-20q-29 0 -44 15.5t-10 43.5q5 27 26.5 44t50.5 17zM129 -99q7 38 35 64t59 43q37 19 82 30h25l-15.5 -11t-35 -28.5t-37 -39.5t-21.5 -45q-3 -21 8 -33.5t32 -12.5q15 0 28.5 3t24 6.5
t17 6.5l6.5 3l-9 -55q-11 -6 -25 -11q-12 -5 -28.5 -8t-37.5 -3q-55 0 -84.5 24.5t-23.5 66.5z" />
    <glyph glyph-name="Idotaccent" unicode="&#x130;" 
d="M45 0l13 79h159l89 562h-159l12 79h410l-12 -79h-159l-89 -562h159l-13 -79h-410zM397 965h20q29 0 45 -17t11 -44t-25.5 -43t-49.5 -16h-20q-29 0 -44.5 15.5t-10.5 43.5q5 27 25 44t49 17z" />
    <glyph glyph-name="Nacute" unicode="&#x143;" 
d="M149 720h115l111 -483q5 -18 8.5 -41.5t6.5 -44.5q4 -25 7 -51h7l0.5 10.5t1.5 28.5t3.5 41.5t6.5 49.5l78 490h85l-114 -720h-115l-107 484q-5 23 -9.5 47t-7.5 44q-4 23 -7 46h-7q-1 -16 -2 -36q-2 -17 -4.5 -40.5t-7.5 -52.5l-78 -492h-85zM451 956h-110l-109 -146h90
z" />
    <glyph glyph-name="nacute" unicode="&#x144;" 
d="M38 0l87 550h85l-14 -95h7q21 50 65 77.5t103 27.5q41 0 71.5 -13.5t50 -38t27 -59.5t0.5 -78l-59 -371h-88l56 351q10 63 -17 98t-84 35q-53 0 -90.5 -30t-50.5 -84l-59 -370h-90zM451 796h-110l-109 -146h90z" />
    <glyph glyph-name="Ncaron" unicode="&#x147;" 
d="M149 720h115l111 -483q5 -18 8.5 -41.5t6.5 -44.5q4 -25 7 -51h7l0.5 10.5t1.5 28.5t3.5 41.5t6.5 49.5l78 490h85l-114 -720h-115l-107 484q-5 23 -9.5 47t-7.5 44q-4 23 -7 46h-7q-1 -16 -2 -36q-2 -17 -4.5 -40.5t-7.5 -52.5l-78 -492h-85zM225 955h76l46 -58
q14 -17 19 -25q3 -5 5 -8h3l8 8l10.5 10.5t17.5 15.5l65 57h80l-155 -145h-70z" />
    <glyph glyph-name="ncaron" unicode="&#x148;" 
d="M38 0l87 550h85l-14 -95h7q21 50 65 77.5t103 27.5q41 0 71.5 -13.5t50 -38t27 -59.5t0.5 -78l-59 -371h-88l56 351q10 63 -17 98t-84 35q-53 0 -90.5 -30t-50.5 -84l-59 -370h-90zM225 795h76l46 -58q14 -17 19 -25q3 -5 5 -8h3l8 8l10.5 10.5t17.5 15.5l65 57h80
l-155 -145h-70z" />
    <glyph glyph-name="Omacron" unicode="&#x14c;" 
d="M155 204q-10 -62 19.5 -98t89.5 -36t100.5 36t50.5 98l50 312q10 62 -19.5 98t-89.5 36t-100.5 -36t-50.5 -98zM115 516q16 100 83.5 157t170.5 57q50 0 88 -15.5t62.5 -43.5t34 -67.5t1.5 -87.5l-50 -312q-16 -100 -83.5 -157t-170.5 -57q-50 0 -88 15.5t-62.5 43.5
t-33.5 67.5t-2 87.5zM243 930h260l-11 -75h-260z" />
    <glyph glyph-name="omacron" unicode="&#x14d;" 
d="M162 200q-11 -63 18.5 -96.5t90.5 -33.5q60 0 100 33.5t51 96.5l23 150q11 63 -19 96.5t-90 33.5q-61 0 -101 -34.5t-50 -95.5zM97 350q17 100 82.5 155t169.5 55q101 0 150.5 -56t34.5 -153l-24 -151q-16 -100 -81.5 -155t-170.5 -55q-102 0 -151 56.5t-33 153.5z
M252 770h260l-11 -75h-260z" />
    <glyph glyph-name="Obreve" unicode="&#x14e;" 
d="M155 204q-10 -62 19.5 -98t89.5 -36t100.5 36t50.5 98l50 312q10 62 -19.5 98t-89.5 36t-100.5 -36t-50.5 -98zM115 516q16 100 83.5 157t170.5 57q50 0 88 -15.5t62.5 -43.5t34 -67.5t1.5 -87.5l-50 -312q-16 -100 -83.5 -157t-170.5 -57q-50 0 -88 15.5t-62.5 43.5
t-33.5 67.5t-2 87.5zM222 950h75q-6 -34 17 -52t65 -18t72 18t36 52h75q-5 -30 -22.5 -55t-43.5 -43t-59 -27.5t-69 -9.5t-65.5 9.5t-49 27.5t-28 43t-3.5 55z" />
    <glyph glyph-name="obreve" unicode="&#x14f;" 
d="M162 200q-11 -63 18.5 -96.5t90.5 -33.5q60 0 100 33.5t51 96.5l23 150q11 63 -19 96.5t-90 33.5q-61 0 -101 -34.5t-50 -95.5zM97 350q17 100 82.5 155t169.5 55q101 0 150.5 -56t34.5 -153l-24 -151q-16 -100 -81.5 -155t-170.5 -55q-102 0 -151 56.5t-33 153.5z
M231 790h75q-6 -34 17 -52t65 -18t72 18t36 52h75q-5 -30 -22.5 -55t-43.5 -43t-59 -27.5t-69 -9.5t-65.5 9.5t-49 27.5t-28 43t-3.5 55z" />
    <glyph glyph-name="Ohungarumlaut" unicode="&#x150;" 
d="M155 204q-10 -62 19.5 -98t89.5 -36t100.5 36t50.5 98l50 312q10 62 -19.5 98t-89.5 36t-100.5 -36t-50.5 -98zM115 516q16 100 83.5 157t170.5 57q50 0 88 -15.5t62.5 -43.5t34 -67.5t1.5 -87.5l-50 -312q-16 -100 -83.5 -157t-170.5 -57q-50 0 -88 15.5t-62.5 43.5
t-33.5 67.5t-2 87.5zM417 956h-110l-132 -146h90zM617 956h-110l-132 -146h90z" />
    <glyph glyph-name="ohungarumlaut" unicode="&#x151;" 
d="M162 200q-11 -63 18.5 -96.5t90.5 -33.5q60 0 100 33.5t51 96.5l23 150q11 63 -19 96.5t-90 33.5q-61 0 -101 -34.5t-50 -95.5zM97 350q17 100 82.5 155t169.5 55q101 0 150.5 -56t34.5 -153l-24 -151q-16 -100 -81.5 -155t-170.5 -55q-102 0 -151 56.5t-33 153.5z
M426 796h-110l-132 -146h90zM626 796h-110l-132 -146h90z" />
    <glyph glyph-name="Racute" unicode="&#x154;" 
d="M154 720h228q48 0 85.5 -15t62 -42.5t34.5 -65t3 -82.5q-12 -76 -59 -127.5t-119 -69.5l106 -318h-99l-98 310h-119l-49 -310h-90zM330 390q57 0 95.5 33.5t48.5 91.5q8 56 -21 90.5t-84 34.5h-138l-39 -250h138zM451 956h-110l-109 -146h90z" />
    <glyph glyph-name="racute" unicode="&#x155;" 
d="M62 0l87 550h85l-15 -95h8q20 49 66 77t106 28q86 0 127.5 -53.5t26.5 -145.5l-6 -41h-90l4 30q11 63 -16.5 97t-87.5 34q-57 0 -95 -30t-52 -84l-58 -367h-90zM451 796h-110l-109 -146h90z" />
    <glyph glyph-name="Rcaron" unicode="&#x158;" 
d="M154 720h228q48 0 85.5 -15t62 -42.5t34.5 -65t3 -82.5q-12 -76 -59 -127.5t-119 -69.5l106 -318h-99l-98 310h-119l-49 -310h-90zM330 390q57 0 95.5 33.5t48.5 91.5q8 56 -21 90.5t-84 34.5h-138l-39 -250h138zM225 955h76l46 -58q14 -17 19 -25q3 -5 5 -8h3l8 8
l10.5 10.5t17.5 15.5l65 57h80l-155 -145h-70z" />
    <glyph glyph-name="rcaron" unicode="&#x159;" 
d="M62 0l87 550h85l-15 -95h8q20 49 66 77t106 28q86 0 127.5 -53.5t26.5 -145.5l-6 -41h-90l4 30q11 63 -16.5 97t-87.5 34q-57 0 -95 -30t-52 -84l-58 -367h-90zM225 795h76l46 -58q14 -17 19 -25q3 -5 5 -8h3l8 8l10.5 10.5t17.5 15.5l65 57h80l-155 -145h-70z" />
    <glyph glyph-name="Sacute" unicode="&#x15a;" 
d="M251 -10q-50 0 -89.5 14.5t-66 40t-38 61.5t-5.5 79h95q-4 -25 3 -46t23 -36.5t39.5 -24t53.5 -8.5q64 0 105.5 29t49.5 80q7 45 -15 80t-70 53l-71 28q-74 29 -110 81.5t-26 117.5q15 93 78.5 142t166.5 49q47 0 84 -14t61.5 -39t35 -60.5t4.5 -77.5h-95
q8 48 -21.5 79.5t-82.5 31.5q-57 0 -93.5 -27t-44.5 -76q-14 -86 84 -124l75 -29q75 -29 108.5 -84t22.5 -127q-14 -93 -82.5 -143t-178.5 -50zM454 956h-110l-109 -146h90z" />
    <glyph glyph-name="sacute" unicode="&#x15b;" 
d="M234 -10q-87 0 -137 39.5t-48 105.5h95q2 -29 30 -47t73 -18h28q54 0 87.5 22.5t39.5 60.5q10 65 -79 79l-81 12q-80 12 -113.5 51t-22.5 109q12 74 71 115t153 41h28q80 0 128 -38t48 -101h-95q-2 26 -27.5 42.5t-66.5 16.5h-28q-51 0 -82.5 -20t-37.5 -60
q-5 -32 11.5 -48.5t59.5 -22.5l81 -12q88 -13 122 -52t22 -111q-12 -77 -72.5 -120.5t-158.5 -43.5h-28zM452 796h-110l-109 -146h90z" />
    <glyph glyph-name="Scircumflex" unicode="&#x15c;" 
d="M251 -10q-50 0 -89.5 14.5t-66 40t-38 61.5t-5.5 79h95q-4 -25 3 -46t23 -36.5t39.5 -24t53.5 -8.5q64 0 105.5 29t49.5 80q7 45 -15 80t-70 53l-71 28q-74 29 -110 81.5t-26 117.5q15 93 78.5 142t166.5 49q47 0 84 -14t61.5 -39t35 -60.5t4.5 -77.5h-95
q8 48 -21.5 79.5t-82.5 31.5q-57 0 -93.5 -27t-44.5 -76q-14 -86 84 -124l75 -29q75 -29 108.5 -84t22.5 -127q-14 -93 -82.5 -143t-178.5 -50zM203 810l155 145h70l105 -145h-75l-45 57q-15 20 -19 26q-4 5 -5 8h-3q-3 -3 -8 -7q-6 -7 -28 -26l-66 -58h-81z" />
    <glyph glyph-name="scircumflex" unicode="&#x15d;" 
d="M234 -10q-87 0 -137 39.5t-48 105.5h95q2 -29 30 -47t73 -18h28q54 0 87.5 22.5t39.5 60.5q10 65 -79 79l-81 12q-80 12 -113.5 51t-22.5 109q12 74 71 115t153 41h28q80 0 128 -38t48 -101h-95q-2 26 -27.5 42.5t-66.5 16.5h-28q-51 0 -82.5 -20t-37.5 -60
q-5 -32 11.5 -48.5t59.5 -22.5l81 -12q88 -13 122 -52t22 -111q-12 -77 -72.5 -120.5t-158.5 -43.5h-28zM201 650l155 145h70l105 -145h-75l-45 57q-15 20 -19 26q-4 5 -5 8h-3q-3 -3 -8 -7q-6 -7 -28 -26l-66 -58h-81z" />
    <glyph glyph-name="Scedilla" unicode="&#x15e;" 
d="M251 -10q-50 0 -89.5 14.5t-66 40t-38 61.5t-5.5 79h95q-4 -25 3 -46t23 -36.5t39.5 -24t53.5 -8.5q64 0 105.5 29t49.5 80q7 45 -15 80t-70 53l-71 28q-74 29 -110 81.5t-26 117.5q15 93 78.5 142t166.5 49q47 0 84 -14t61.5 -39t35 -60.5t4.5 -77.5h-95
q8 48 -21.5 79.5t-82.5 31.5q-57 0 -93.5 -27t-44.5 -76q-14 -86 84 -124l75 -29q75 -29 108.5 -84t22.5 -127q-14 -93 -82.5 -143t-178.5 -50zM271 26h57l-45 -61q33 -3 58 -12q21 -8 37.5 -24t11.5 -42q-5 -35 -41.5 -56t-90.5 -21q-24 0 -40.5 2t-27.5 4q-12 3 -20 7
l9 55q9 -4 20 -7q9 -2 22.5 -4t30.5 -2q22 0 36.5 8t16.5 22q3 18 -23.5 29t-74.5 11z" />
    <glyph glyph-name="scedilla" unicode="&#x15f;" 
d="M234 -10q-87 0 -137 39.5t-48 105.5h95q2 -29 30 -47t73 -18h28q54 0 87.5 22.5t39.5 60.5q10 65 -79 79l-81 12q-80 12 -113.5 51t-22.5 109q12 74 71 115t153 41h28q80 0 128 -38t48 -101h-95q-2 26 -27.5 42.5t-66.5 16.5h-28q-51 0 -82.5 -20t-37.5 -60
q-5 -32 11.5 -48.5t59.5 -22.5l81 -12q88 -13 122 -52t22 -111q-12 -77 -72.5 -120.5t-158.5 -43.5h-28zM269 26h57l-45 -61q33 -3 58 -12q21 -8 37.5 -24t11.5 -42q-5 -35 -41.5 -56t-90.5 -21q-24 0 -40.5 2t-27.5 4q-12 3 -20 7l9 55q9 -4 20 -7q9 -2 22.5 -4t30.5 -2
q22 0 36.5 8t16.5 22q3 18 -23.5 29t-74.5 11z" />
    <glyph glyph-name="Tcaron" unicode="&#x164;" 
d="M97 641l12 79h510l-12 -79h-209l-102 -641h-92l102 641h-209zM225 955h76l46 -58q14 -17 19 -25q3 -5 5 -8h3l8 8l10.5 10.5t17.5 15.5l65 57h80l-155 -145h-70z" />
    <glyph glyph-name="Utilde" unicode="&#x168;" 
d="M260 -10q-100 0 -148.5 56t-32.5 154l82 520h90l-82 -520q-10 -61 17.5 -95.5t86.5 -34.5q60 0 98 33.5t48 96.5l82 520h90l-82 -520q-16 -101 -80.5 -155.5t-168.5 -54.5zM473 875q21 0 35.5 14.5t19.5 40.5l3 20h65l-3 -20q-11 -58 -45 -89t-86 -31q-34 0 -54 12.5
t-35 27.5t-29.5 27.5t-37.5 12.5q-21 0 -35.5 -14.5t-19.5 -40.5l-4 -20h-65l4 20q11 58 45 89t86 31q34 0 54 -12.5t35 -27.5t30 -27.5t37 -12.5z" />
    <glyph glyph-name="utilde" unicode="&#x169;" 
d="M84 194l56 356h90l-58 -356q-21 -125 99 -125q121 0 141 125l56 356h88l-56 -356q-16 -98 -78 -151t-164 -53q-98 0 -143.5 54t-30.5 150zM472 715q21 0 35.5 14.5t19.5 40.5l3 20h65l-3 -20q-11 -58 -45 -89t-86 -31q-34 0 -54 12.5t-35 27.5t-29.5 27.5t-37.5 12.5
q-21 0 -35.5 -14.5t-19.5 -40.5l-4 -20h-65l4 20q11 58 45 89t86 31q34 0 54 -12.5t35 -27.5t30 -27.5t37 -12.5z" />
    <glyph glyph-name="Umacron" unicode="&#x16a;" 
d="M260 -10q-100 0 -148.5 56t-32.5 154l82 520h90l-82 -520q-10 -61 17.5 -95.5t86.5 -34.5q60 0 98 33.5t48 96.5l82 520h90l-82 -520q-16 -101 -80.5 -155.5t-168.5 -54.5zM252 930h260l-11 -75h-260z" />
    <glyph glyph-name="umacron" unicode="&#x16b;" 
d="M84 194l56 356h90l-58 -356q-21 -125 99 -125q121 0 141 125l56 356h88l-56 -356q-16 -98 -78 -151t-164 -53q-98 0 -143.5 54t-30.5 150zM251 770h260l-11 -75h-260z" />
    <glyph glyph-name="Ubreve" unicode="&#x16c;" 
d="M260 -10q-100 0 -148.5 56t-32.5 154l82 520h90l-82 -520q-10 -61 17.5 -95.5t86.5 -34.5q60 0 98 33.5t48 96.5l82 520h90l-82 -520q-16 -101 -80.5 -155.5t-168.5 -54.5zM231 950h75q-6 -34 17 -52t65 -18t72 18t36 52h75q-5 -30 -22.5 -55t-43.5 -43t-59 -27.5
t-69 -9.5t-65.5 9.5t-49 27.5t-28 43t-3.5 55z" />
    <glyph glyph-name="ubreve" unicode="&#x16d;" 
d="M84 194l56 356h90l-58 -356q-21 -125 99 -125q121 0 141 125l56 356h88l-56 -356q-16 -98 -78 -151t-164 -53q-98 0 -143.5 54t-30.5 150zM230 790h75q-6 -34 17 -52t65 -18t72 18t36 52h75q-5 -30 -22.5 -55t-43.5 -43t-59 -27.5t-69 -9.5t-65.5 9.5t-49 27.5t-28 43
t-3.5 55z" />
    <glyph glyph-name="Uring" unicode="&#x16e;" 
d="M260 -10q-100 0 -148.5 56t-32.5 154l82 520h90l-82 -520q-10 -61 17.5 -95.5t86.5 -34.5q60 0 98 33.5t48 96.5l82 520h90l-82 -520q-16 -101 -80.5 -155.5t-168.5 -54.5zM304 880q8 48 46 76.5t92 28.5t82 -28.5t20 -76.5t-46.5 -76.5t-92.5 -28.5t-81.5 28.5
t-19.5 76.5zM364 880q-5 -26 7.5 -40t41.5 -14t47.5 14t23.5 40t-8.5 40.5t-42.5 14.5q-28 0 -46 -14.5t-23 -40.5z" />
    <glyph glyph-name="uring" unicode="&#x16f;" 
d="M84 194l56 356h90l-58 -356q-21 -125 99 -125q121 0 141 125l56 356h88l-56 -356q-16 -98 -78 -151t-164 -53q-98 0 -143.5 54t-30.5 150zM263 720q8 48 46 76.5t92 28.5t82 -28.5t20 -76.5t-46.5 -76.5t-92.5 -28.5t-81.5 28.5t-19.5 76.5zM323 720q-5 -26 7.5 -40
t41.5 -14t47.5 14t23.5 40t-8.5 40.5t-42.5 14.5q-28 0 -46 -14.5t-23 -40.5z" />
    <glyph glyph-name="Wcircumflex" unicode="&#x174;" 
d="M48 0l41 720h75l-35 -522q-1 -19 -3.5 -43.5t-5.5 -46.5q-3 -26 -6 -53h11q5 27 11 53q5 22 10.5 46.5t11.5 43.5l144 452h103l-4 -462q0 -18 -1 -41.5t-3 -43.5l-4 -48h11q4 24 9 48q4 20 8.5 43t9.5 42l131 532h77l-188 -720h-122l9 459q1 29 3 53.5t4 41.5q3 21 7 38
h-13q-2 -17 -6 -38q-4 -17 -9.5 -41.5t-14.5 -53.5l-139 -459h-122zM200 810l155 145h70l105 -145h-75l-45 57q-15 20 -19 26q-4 5 -5 8h-3q-3 -3 -8 -7q-6 -7 -28 -26l-66 -58h-81z" />
    <glyph glyph-name="wcircumflex" unicode="&#x175;" 
d="M68 550h79l-17 -377q0 -15 -1 -36t-2 -40q-2 -23 -3 -47h9q6 24 13 47q5 20 11 41t11 35l113 332h98l3 -332q1 -15 0.5 -36t-0.5 -41q0 -22 -1 -46h10q6 24 11 47q5 19 10.5 40t9.5 36l104 377h80l-165 -550h-121v50l-2 294q0 17 1.5 36t3.5 36q1 20 4 39h-10
q-3 -19 -7 -39q-3 -17 -7.5 -36t-10.5 -36l-116 -344h-118zM200 650l155 145h70l105 -145h-75l-45 57q-15 20 -19 26q-4 5 -5 8h-3q-3 -3 -8 -7q-6 -7 -28 -26l-66 -58h-81z" />
    <glyph glyph-name="Ycircumflex" unicode="&#x176;" 
d="M185 720l98 -317q5 -15 7.5 -29.5t4.5 -25.5q1 -13 2 -24h4q4 11 10 24q5 11 12.5 25.5t16.5 29.5l194 317h100l-299 -470l-40 -250h-90l40 250l-151 470h91zM200 810l155 145h70l105 -145h-75l-45 57q-15 20 -19 26q-4 5 -5 8h-3q-3 -3 -8 -7q-6 -7 -28 -26l-66 -58h-81
z" />
    <glyph glyph-name="ycircumflex" unicode="&#x177;" 
d="M75 239l49 311h90l-46 -291q-10 -63 17 -98t84 -35t95.5 34.5t47.5 94.5l47 295h88l-87 -537q-14 -85 -69.5 -131.5t-146.5 -46.5h-176l12 78h176q48 0 78 26t38 74l8 47l20 95h-6q-21 -50 -65 -77.5t-103 -27.5q-41 0 -72 13.5t-51 38.5t-27.5 59.5t-0.5 77.5zM200 650
l155 145h70l105 -145h-75l-45 57q-15 20 -19 26q-4 5 -5 8h-3q-3 -3 -8 -7q-6 -7 -28 -26l-66 -58h-81z" />
    <glyph glyph-name="Zacute" unicode="&#x179;" 
d="M568 720l-13 -81l-408 -562v-2l71 4h260l-13 -79h-430l13 80l408 562v2l-72 -3h-239l12 79h411zM451 956h-110l-109 -146h90z" />
    <glyph glyph-name="zacute" unicode="&#x17a;" 
d="M125 550h421l-16 -101l-385 -366q0 -1 -0.5 -3.5t-0.5 -3.5q11 1 24 2q11 1 24.5 1.5t27.5 0.5h263l-13 -80h-440l16 100l387 367q0 1 0.5 3t0.5 3q-13 -1 -26 -1q-12 -1 -26.5 -1.5t-28.5 -0.5h-241zM451 796h-110l-109 -146h90z" />
    <glyph glyph-name="Zdotaccent" unicode="&#x17b;" 
d="M568 720l-13 -81l-408 -562v-2l71 4h260l-13 -79h-430l13 80l408 562v2l-72 -3h-239l12 79h411zM390 965h20q29 0 45 -17t11 -44t-25.5 -43t-49.5 -16h-20q-29 0 -44.5 15.5t-10.5 43.5q5 27 25 44t49 17z" />
    <glyph glyph-name="zdotaccent" unicode="&#x17c;" 
d="M125 550h421l-16 -101l-385 -366q0 -1 -0.5 -3.5t-0.5 -3.5q11 1 24 2q11 1 24.5 1.5t27.5 0.5h263l-13 -80h-440l16 100l387 367q0 1 0.5 3t0.5 3q-13 -1 -26 -1q-12 -1 -26.5 -1.5t-28.5 -0.5h-241zM362 805h20q29 0 45 -17t11 -44t-25.5 -43t-49.5 -16h-20
q-29 0 -44.5 15.5t-10.5 43.5q5 27 25 44t49 17z" />
    <glyph glyph-name="Wgrave" unicode="&#x1e80;" 
d="M48 0l41 720h75l-35 -522q-1 -19 -3.5 -43.5t-5.5 -46.5q-3 -26 -6 -53h11q5 27 11 53q5 22 10.5 46.5t11.5 43.5l144 452h103l-4 -462q0 -18 -1 -41.5t-3 -43.5l-4 -48h11q4 24 9 48q4 20 8.5 43t9.5 42l131 532h77l-188 -720h-122l9 459q1 29 3 53.5t4 41.5q3 21 7 38
h-13q-2 -17 -6 -38q-4 -17 -9.5 -41.5t-14.5 -53.5l-139 -459h-122zM245 956h110l86 -146h-90z" />
    <glyph glyph-name="wgrave" unicode="&#x1e81;" 
d="M68 550h79l-17 -377q0 -15 -1 -36t-2 -40q-2 -23 -3 -47h9q6 24 13 47q5 20 11 41t11 35l113 332h98l3 -332q1 -15 0.5 -36t-0.5 -41q0 -22 -1 -46h10q6 24 11 47q5 19 10.5 40t9.5 36l104 377h80l-165 -550h-121v50l-2 294q0 17 1.5 36t3.5 36q1 20 4 39h-10
q-3 -19 -7 -39q-3 -17 -7.5 -36t-10.5 -36l-116 -344h-118zM245 796h110l86 -146h-90z" />
    <glyph glyph-name="Wacute" unicode="&#x1e82;" 
d="M48 0l41 720h75l-35 -522q-1 -19 -3.5 -43.5t-5.5 -46.5q-3 -26 -6 -53h11q5 27 11 53q5 22 10.5 46.5t11.5 43.5l144 452h103l-4 -462q0 -18 -1 -41.5t-3 -43.5l-4 -48h11q4 24 9 48q4 20 8.5 43t9.5 42l131 532h77l-188 -720h-122l9 459q1 29 3 53.5t4 41.5q3 21 7 38
h-13q-2 -17 -6 -38q-4 -17 -9.5 -41.5t-14.5 -53.5l-139 -459h-122zM451 956h-110l-109 -146h90z" />
    <glyph glyph-name="wacute" unicode="&#x1e83;" 
d="M68 550h79l-17 -377q0 -15 -1 -36t-2 -40q-2 -23 -3 -47h9q6 24 13 47q5 20 11 41t11 35l113 332h98l3 -332q1 -15 0.5 -36t-0.5 -41q0 -22 -1 -46h10q6 24 11 47q5 19 10.5 40t9.5 36l104 377h80l-165 -550h-121v50l-2 294q0 17 1.5 36t3.5 36q1 20 4 39h-10
q-3 -19 -7 -39q-3 -17 -7.5 -36t-10.5 -36l-116 -344h-118zM451 796h-110l-109 -146h90z" />
    <glyph glyph-name="Wdieresis" unicode="&#x1e84;" 
d="M48 0l41 720h75l-35 -522q-1 -19 -3.5 -43.5t-5.5 -46.5q-3 -26 -6 -53h11q5 27 11 53q5 22 10.5 46.5t11.5 43.5l144 452h103l-4 -462q0 -18 -1 -41.5t-3 -43.5l-4 -48h11q4 24 9 48q4 20 8.5 43t9.5 42l131 532h77l-188 -720h-122l9 459q1 29 3 53.5t4 41.5q3 21 7 38
h-13q-2 -17 -6 -38q-4 -17 -9.5 -41.5t-14.5 -53.5l-139 -459h-122zM226 887q5 27 24.5 43.5t46.5 16.5t40.5 -16.5t8.5 -43.5t-24 -43.5t-46 -16.5t-41 16.5t-9 43.5zM426 887q5 27 24.5 43.5t46.5 16.5t40.5 -16.5t8.5 -43.5t-24 -43.5t-46 -16.5t-41 16.5t-9 43.5z" />
    <glyph glyph-name="wdieresis" unicode="&#x1e85;" 
d="M68 550h79l-17 -377q0 -15 -1 -36t-2 -40q-2 -23 -3 -47h9q6 24 13 47q5 20 11 41t11 35l113 332h98l3 -332q1 -15 0.5 -36t-0.5 -41q0 -22 -1 -46h10q6 24 11 47q5 19 10.5 40t9.5 36l104 377h80l-165 -550h-121v50l-2 294q0 17 1.5 36t3.5 36q1 20 4 39h-10
q-3 -19 -7 -39q-3 -17 -7.5 -36t-10.5 -36l-116 -344h-118zM226 727q5 27 24.5 43.5t46.5 16.5t40.5 -16.5t8.5 -43.5t-24 -43.5t-46 -16.5t-41 16.5t-9 43.5zM426 727q5 27 24.5 43.5t46.5 16.5t40.5 -16.5t8.5 -43.5t-24 -43.5t-46 -16.5t-41 16.5t-9 43.5z" />
    <glyph glyph-name="grave.case" 
d="M285 956h110l86 -146h-90z" />
    <glyph glyph-name="dieresis.case" 
d="M256 887q5 27 24.5 43.5t46.5 16.5t40.5 -16.5t8.5 -43.5t-24 -43.5t-46 -16.5t-41 16.5t-9 43.5zM456 887q5 27 24.5 43.5t46.5 16.5t40.5 -16.5t8.5 -43.5t-24 -43.5t-46 -16.5t-41 16.5t-9 43.5z" />
    <glyph glyph-name="macron.case" 
d="M280 930h260l-11 -75h-260z" />
    <glyph glyph-name="acute.case" 
d="M450 946l-130 -146h-90l110 146h110z" />
    <glyph glyph-name="circumflex.case" 
d="M200 810l155 145h70l105 -145h-75l-45 57q-15 20 -19 26q-4 5 -5 8h-3q-3 -3 -8 -7q-6 -7 -28 -26l-66 -58h-81z" />
    <glyph glyph-name="caron.case" 
d="M225 955h76l46 -58q14 -17 19 -25q3 -5 5 -8h3l8 8l10.5 10.5t17.5 15.5l65 57h80l-155 -145h-70z" />
    <glyph glyph-name="breve.case" 
d="M268 940h75q-12 -70 71 -70q42 0 67.5 18t31.5 52h75q-6 -30 -22 -55t-40 -43t-55 -27.5t-67 -9.5q-72 0 -109.5 37t-26.5 98z" />
    <glyph glyph-name="dotaccent.case" 
d="M346 965h20q29 0 45 -17t11 -44t-25.5 -43t-49.5 -16h-20q-29 0 -44.5 15.5t-10.5 43.5q5 27 25 44t49 17z" />
    <glyph glyph-name="ring.case" 
d="M292 880q8 48 46 76.5t92 28.5t82 -28.5t20 -76.5t-46.5 -76.5t-92.5 -28.5t-81.5 28.5t-19.5 76.5zM352 880q-5 -26 7.5 -40t41.5 -14t47.5 14t23.5 40t-8.5 40.5t-42.5 14.5q-28 0 -46 -14.5t-23 -40.5z" />
    <glyph glyph-name="tilde.case" 
d="M461 875q21 0 35.5 14.5t19.5 40.5l3 20h65l-3 -20q-11 -58 -45 -89t-86 -31q-34 0 -54 12.5t-35 27.5t-29.5 27.5t-37.5 12.5q-21 0 -35.5 -14.5t-19.5 -40.5l-4 -20h-65l4 20q11 58 45 89t86 31q34 0 54 -12.5t35 -27.5t30 -27.5t37 -12.5z" />
    <glyph glyph-name="hungarumlaut.case" 
d="M371 810l134 146h110l-154 -146h-90zM171 810l134 146h110l-154 -146h-90z" />
    <glyph glyph-name="caron.salt" 
d="M225 795h76l46 -58q14 -17 19 -25q3 -5 5 -8h3l8 8l10.5 10.5t17.5 15.5l65 57h80l-155 -145h-70z" />
    <glyph glyph-name="commaaccent" 
d="M345 -94l-103 -146h-90l83 146h110z" />
    <glyph glyph-name="commaaccent.salt" 
d="M345 -94l-103 -146h-90l83 146h110z" />
    <glyph glyph-name="Ldot" unicode="&#x13f;" 
d="M289 720l-101 -638h340l-13 -82h-430l114 720h90zM316 349q6 39 33 62.5t66 23.5t59 -23.5t14 -62.5q-7 -40 -34.5 -64.5t-66.5 -24.5t-58.5 24.5t-12.5 64.5z" />
    <glyph glyph-name="ldot" unicode="&#x140;" 
d="M74 646l13 82h248l-90 -568q-6 -41 16 -65.5t65 -24.5q44 0 74.5 25t37.5 67h88q-6 -39 -24.5 -70.5t-46.5 -54t-64.5 -35t-78.5 -12.5q-41 0 -72.5 12t-52 34.5t-28.5 54t-2 69.5l77 486h-160zM381 349q6 39 33 62.5t66 23.5t59 -23.5t14 -62.5q-7 -40 -34.5 -64.5
t-66.5 -24.5t-58.5 24.5t-12.5 64.5z" />
    <glyph glyph-name="degree" unicode="&#xb0;" 
d="M201 640q11 66 58 105.5t115 39.5t103 -39.5t24 -105.5q-10 -66 -57.5 -105.5t-115.5 -39.5t-102.5 39.5t-24.5 105.5zM261 640q-6 -42 14.5 -68t60.5 -26q42 0 70.5 26t34.5 68q7 43 -13.5 69t-62.5 26q-40 0 -68.5 -26t-35.5 -69z" />
    <glyph glyph-name="uni021B" unicode="&#x21b;" 
d="M65 472l12 78h166l26 160h88l-26 -160h221l-12 -78h-221l-54 -339q-5 -32 14 -48.5t45 -16.5q14 0 27.5 4.5t25 13t20 21t10.5 28.5l1 5h88l-1 -5q-6 -33 -22.5 -60t-40.5 -46t-55 -29t-65 -10t-61 10t-45.5 28.5t-26 45t-2.5 59.5l54 339h-166zM345 -94l-103 -146h-90
l83 146h110z" />
    <glyph glyph-name="uni013B" unicode="&#x13b;" 
d="M289 720l-101 -638h340l-13 -82h-430l114 720h90zM345 -94l-103 -146h-90l83 146h110z" />
    <glyph glyph-name="uni0219" unicode="&#x219;" 
d="M234 -10q-87 0 -137 39.5t-48 105.5h95q2 -29 30 -47t73 -18h28q54 0 87.5 22.5t39.5 60.5q10 65 -79 79l-81 12q-80 12 -113.5 51t-22.5 109q12 74 71 115t153 41h28q80 0 128 -38t48 -101h-95q-2 26 -27.5 42.5t-66.5 16.5h-28q-51 0 -82.5 -20t-37.5 -60
q-5 -32 11.5 -48.5t59.5 -22.5l81 -12q88 -13 122 -52t22 -111q-12 -77 -72.5 -120.5t-158.5 -43.5h-28zM335 -94l-103 -146h-90l83 146h110z" />
    <glyph glyph-name="uni0146" unicode="&#x146;" 
d="M38 0l87 550h85l-14 -95h7q21 50 65 77.5t103 27.5q41 0 71.5 -13.5t50 -38t27 -59.5t0.5 -78l-59 -371h-88l56 351q10 63 -17 98t-84 35q-53 0 -90.5 -30t-50.5 -84l-59 -370h-90zM334 -94l-103 -146h-90l83 146h110z" />
    <glyph glyph-name="uni021A" unicode="&#x21a;" 
d="M97 641l12 79h510l-12 -79h-209l-102 -641h-92l102 641h-209zM345 -94l-103 -146h-90l83 146h110z" />
    <glyph glyph-name="uni0145" unicode="&#x145;" 
d="M149 720h115l111 -483q5 -18 8.5 -41.5t6.5 -44.5q4 -25 7 -51h7l0.5 10.5t1.5 28.5t3.5 41.5t6.5 49.5l78 490h85l-114 -720h-115l-107 484q-5 23 -9.5 47t-7.5 44q-4 23 -7 46h-7q-1 -16 -2 -36q-2 -17 -4.5 -40.5t-7.5 -52.5l-78 -492h-85zM345 -94l-103 -146h-90
l83 146h110z" />
    <glyph glyph-name="uni0136" unicode="&#x136;" 
d="M154 720h90l-48 -306h116l212 306h105l-245 -351l141 -369h-98l-124 335h-120l-53 -335h-90zM345 -94l-103 -146h-90l83 146h110z" />
    <glyph glyph-name="uni0137" unicode="&#x137;" 
d="M45 0l116 730h88l-65 -411h110l202 231h101l-232 -267l153 -283h-99l-130 241h-118l-38 -241h-88zM345 -94l-103 -146h-90l83 146h110z" />
    <glyph glyph-name="uni0122" unicode="&#x122;" 
d="M365 650q-62 0 -101.5 -35.5t-49.5 -99.5l-49 -310q-11 -63 18.5 -99t89.5 -36q61 0 101 35.5t51 99.5l11 73h-146l13 80h236l-25 -158q-16 -100 -82.5 -155t-171.5 -55q-103 0 -152.5 55.5t-33.5 154.5l50 320q16 100 83 155t171 55q88 0 139.5 -47.5t56.5 -132.5h-92
q-5 47 -36 73.5t-81 26.5zM357 -94l-103 -146h-90l83 146h110z" />
    <glyph glyph-name="lacute" unicode="&#x13a;" 
d="M74 646l13 82h248l-90 -568q-6 -41 16 -65.5t65 -24.5q44 0 74.5 25t37.5 67l11 73h88l-11 -73q-6 -39 -24.5 -70.5t-46.5 -54t-64.5 -35t-78.5 -12.5q-41 0 -72.5 12t-52 34.5t-28.5 54t-2 69.5l77 486h-160zM451 956h-110l-109 -146h90z" />
    <glyph glyph-name="uni013C" unicode="&#x13c;" 
d="M74 646l13 82h248l-90 -568q-6 -41 16 -65.5t65 -24.5q44 0 74.5 25t37.5 67l11 73h88l-11 -73q-6 -39 -24.5 -70.5t-46.5 -54t-64.5 -35t-78.5 -12.5q-41 0 -72.5 12t-52 34.5t-28.5 54t-2 69.5l77 486h-160zM345 -94l-103 -146h-90l83 146h110z" />
    <glyph glyph-name="uni0157" unicode="&#x157;" 
d="M62 0l87 550h85l-15 -95h8q20 49 66 77t106 28q86 0 127.5 -53.5t26.5 -145.5l-6 -41h-90l4 30q11 63 -16.5 97t-87.5 34q-57 0 -95 -30t-52 -84l-58 -367h-90zM345 -94l-103 -146h-90l83 146h110z" />
    <glyph glyph-name="uni0156" unicode="&#x156;" 
d="M154 720h228q48 0 85.5 -15t62 -42.5t34.5 -65t3 -82.5q-12 -76 -59 -127.5t-119 -69.5l106 -318h-99l-98 310h-119l-49 -310h-90zM330 390q57 0 95.5 33.5t48.5 91.5q8 56 -21 90.5t-84 34.5h-138l-39 -250h138zM345 -94l-103 -146h-90l83 146h110z" />
    <glyph glyph-name="Lcaron" unicode="&#x13d;" 
d="M289 720l-101 -638h340l-13 -82h-430l114 720h90zM575 766h-110l-109 -146h90z" />
    <glyph glyph-name="lcaron" unicode="&#x13e;" 
d="M74 646l13 82h248l-90 -568q-6 -41 16 -65.5t65 -24.5q44 0 74.5 25t37.5 67l11 73h88l-11 -73q-6 -39 -24.5 -70.5t-46.5 -54t-64.5 -35t-78.5 -12.5q-41 0 -72.5 12t-52 34.5t-28.5 54t-2 69.5l77 486h-160zM641 766h-110l-109 -146h90z" />
    <glyph glyph-name="Tbar" unicode="&#x166;" 
d="M97 641l12 79h510l-12 -79h-209l-102 -641h-92l102 641h-209zM185 400h260l-11 -75h-260z" />
    <glyph glyph-name="tbar" unicode="&#x167;" 
d="M65 472l12 78h166l26 160h88l-26 -160h221l-12 -78h-221l-54 -339q-5 -32 14 -48.5t45 -16.5q14 0 27.5 4.5t25 13t20 21t10.5 28.5l1 5h88l-1 -5q-6 -33 -22.5 -60t-40.5 -46t-55 -29t-65 -10t-61 10t-45.5 28.5t-26 45t-2.5 59.5l54 339h-166zM127 330h260l-11 -75
h-260z" />
    <glyph glyph-name="hbar" unicode="&#x127;" 
d="M148 600h-68l11 75h69l9 55h88l-9 -55h103l-11 -75h-104l-8 -50q-2 -14 -5.5 -30.5t-6.5 -30.5l-8 -34h8q21 50 65 77.5t103 27.5q41 0 71.5 -13.5t50 -38t27 -59.5t0.5 -78l-59 -371h-88l56 351q10 63 -17 98t-84 35q-55 0 -93 -32t-50 -89l-57 -363h-88z" />
    <glyph glyph-name="Lacute" unicode="&#x139;" 
d="M289 720l-101 -638h340l-13 -82h-430l114 720h90zM360 946l-130 -146h-90l110 146h110z" />
    <glyph glyph-name="copyright" unicode="&#xa9;" 
d="M89 250q-7 -43 2 -78t31.5 -60t57 -38.5t79.5 -13.5t84 13.5t69 38.5t50 60t27 78l33 210q7 43 -2 78t-31.5 60t-57 38.5t-79.5 13.5t-84 -13.5t-69 -38.5t-50 -60t-27 -78zM67 460q9 54 34 98.5t63.5 76t88.5 48.5t107 17t101.5 -17t73 -48.5t40 -76t2.5 -98.5l-33 -210
q-9 -54 -34 -98t-63.5 -75.5t-88.5 -49t-107 -17.5t-101.5 17.5t-73 49t-40 75.5t-2.5 98zM240 290q-5 -27 9 -43.5t41 -16.5q21 0 38.5 10.5t27.5 29.5h65q-41 -95 -139 -95q-57 0 -86 31.5t-21 83.5l21 130q8 52 47 83.5t96 31.5q98 0 109 -95h-65q-4 19 -18 29.5
t-35 10.5q-27 0 -46 -16.5t-23 -43.5z" />
    <glyph glyph-name="registered" unicode="&#xae;" 
d="M35 250l33 210q9 54 34 98.5t63.5 76t88.5 48.5t107 17t101.5 -17t73 -48.5t40 -76t2.5 -98.5l-33 -210q-9 -54 -34 -98t-63.5 -75.5t-88.5 -49t-107 -17.5t-101.5 17.5t-73 49t-40 75.5t-2.5 98zM260 60q45 0 84 13.5t69 38.5t50 60t27 78l33 210q7 43 -2 78t-31.5 60
t-57 38.5t-79.5 13.5t-84 -13.5t-69 -38.5t-50 -60t-27 -78l-33 -210q-7 -43 2 -78t31.5 -60t57 -38.5t79.5 -13.5zM224 530h114q54 0 81 -28.5t19 -76.5q-5 -34 -24.5 -58t-49.5 -36l42 -151h-64l-37 140v0h-54l-22 -140h-60zM313 370q26 0 43 14.5t21 40.5q5 26 -8 40.5
t-39 14.5h-54l-17 -110h54z" />
    <glyph glyph-name="exclamdown" unicode="&#xa1;" 
d="M343 430h-20q-29 0 -45 17t-11 44t25.5 43t49.5 16h20q29 0 44.5 -15.5t10.5 -43.5q-5 -27 -25 -44t-49 -17zM287 -175h-102l25 160l77 345h58l-33 -345z" />
    <glyph glyph-name="questiondown" unicode="&#xbf;" 
d="M372 430h-20q-29 0 -43.5 17t-9.5 44t26 43t50 16h20q29 0 44 -15.5t10 -43.5q-5 -27 -26.5 -44t-50.5 -17zM78 30q7 42 26 77.5t48.5 61.5t66.5 42t80 19l17 110h90l-29 -185h-50q-65 0 -106 -32.5t-51 -92.5q-9 -60 22 -92.5t97 -32.5h125l-13 -80h-125
q-108 0 -160.5 54t-37.5 151z" />
    <glyph glyph-name="napostrophe" unicode="&#x149;" 
d="M38 0l87 550h85l-14 -95h7q21 50 65 77.5t103 27.5q41 0 71.5 -13.5t50 -38t27 -59.5t0.5 -78l-59 -371h-88l56 351q10 63 -17 98t-84 35q-53 0 -90.5 -30t-50.5 -84l-59 -370h-90zM225 731l-103 -146h-90l83 146h110z" />
    <glyph glyph-name="uni0218" unicode="&#x218;" 
d="M251 -10q-50 0 -89.5 14.5t-66 40t-38 61.5t-5.5 79h95q-4 -25 3 -46t23 -36.5t39.5 -24t53.5 -8.5q64 0 105.5 29t49.5 80q7 45 -15 80t-70 53l-71 28q-74 29 -110 81.5t-26 117.5q15 93 78.5 142t166.5 49q47 0 84 -14t61.5 -39t35 -60.5t4.5 -77.5h-95
q8 48 -21.5 79.5t-82.5 31.5q-57 0 -93.5 -27t-44.5 -76q-14 -86 84 -124l75 -29q75 -29 108.5 -84t22.5 -127q-14 -93 -82.5 -143t-178.5 -50zM348 -94l-103 -146h-90l83 146h110z" />
    <glyph glyph-name="Thorn" unicode="&#xde;" 
d="M130 0h-90l114 720h90l-23 -145h153q49 0 87 -14.5t62 -40.5t33.5 -63t2.5 -82q-7 -46 -28 -83t-53.5 -63t-74.5 -40t-92 -14h-153zM323 255q58 0 96.5 32t46.5 88q9 56 -19.5 88t-85.5 32h-153l-38 -240h153z" />
    <glyph glyph-name="uni0237" unicode="&#x237;" 
d="M361 415q5 32 -10 51t-44 19t-50 -19t-26 -51l-15 -95h-86l15 95q11 65 58 105t116 40q70 0 105.5 -39.5t24.5 -105.5l-60 -381q-15 -93 -78.5 -146t-160.5 -53h-166l12 78h167q56 0 92.5 32.5t45.5 88.5z" />
    <glyph glyph-name="uni0162" unicode="&#x162;" 
d="M97 641l12 79h510l-12 -79h-209l-102 -641h-92l102 641h-209zM238 26h57l-45 -61q33 -3 58 -12q21 -8 37.5 -24t11.5 -42q-5 -35 -41.5 -56t-90.5 -21q-24 0 -40.5 2t-27.5 4q-12 3 -20 7l9 55q9 -4 20 -7q9 -2 22.5 -4t30.5 -2q22 0 36.5 8t16.5 22q3 18 -23.5 29
t-74.5 11z" />
    <glyph glyph-name="uni0163" unicode="&#x163;" 
d="M65 472l12 78h166l26 160h88l-26 -160h221l-12 -78h-221l-54 -339q-5 -32 14 -48.5t45 -16.5q14 0 27.5 4.5t25 13t20 21t10.5 28.5l1 5h88l-1 -5q-6 -33 -22.5 -60t-40.5 -46t-55 -29t-65 -10t-61 10t-45.5 28.5t-26 45t-2.5 59.5l54 339h-166zM318 26h57l-45 -61
q33 -3 58 -12q21 -8 37.5 -24t11.5 -42q-5 -35 -41.5 -56t-90.5 -21q-24 0 -40.5 2t-27.5 4q-12 3 -20 7l9 55q9 -4 20 -7q9 -2 22.5 -4t30.5 -2q22 0 36.5 8t16.5 22q3 18 -23.5 29t-74.5 11z" />
    <glyph glyph-name="dcroat" unicode="&#x111;" 
d="M63 205l22 140q6 48 25.5 88t48.5 68t66 43.5t79 15.5q60 0 95 -28t40 -77h7q1 6 2 17.5t2.5 25t3.5 27.5t3 25l8 50h-101l11 75h102l9 55h88l-9 -55h70l-11 -75h-71l-95 -600h-83l15 95h-8q-20 -49 -64.5 -77t-104.5 -28q-42 0 -73.5 15.5t-51 43.5t-26.5 68t1 88z
M253 68q56 0 94.5 33t52.5 90l27 169q5 56 -23.5 89t-80.5 33q-62 0 -101 -36.5t-49 -100.5l-22 -140q-11 -64 16.5 -100.5t85.5 -36.5z" />
    <glyph glyph-name="uni0123" unicode="&#x123;" 
d="M227 50q-44 0 -77 15t-54 42.5t-28.5 66t-0.5 86.5l14 90q8 48 27.5 87t49 66.5t67 42t81.5 14.5q67 0 103 -32t34 -88h2l17 110h88l-87 -537q-14 -85 -69.5 -131.5t-146.5 -46.5h-176l12 78h176q48 0 78 26t38 74l8 47l23 110h-6q-16 -56 -61.5 -88t-111.5 -32zM159 260
q-10 -62 19 -97t89 -35t99.5 35t49.5 97l14 90q10 62 -18.5 97t-88.5 35t-100 -35t-50 -97zM258 678l103 146h90l-83 -146h-110z" />
    <glyph glyph-name="Hbar" unicode="&#x126;" 
d="M154 720h88l-19 -120h240l19 120h88l-19 -120h46l-13 -80h-46l-82 -520h-88l53 334h-240l-53 -334h-88l82 520h-48l13 80h48zM210 520l-16 -104h240l16 104h-240z" />
    <glyph glyph-name="Jcircumflex" unicode="&#x134;" 
d="M235 70q66 0 109 35.5t54 99.5l68 437h-280l12 78h368l-81 -515q-17 -103 -85.5 -159t-177.5 -56q-51 0 -89 15.5t-62 43.5t-33 67.5t-1 88.5h85q-11 -63 19.5 -99t93.5 -36zM244 810l155 145h70l105 -145h-75l-45 57q-15 20 -19 26q-4 5 -5 8h-3q-3 -3 -8 -7
q-6 -7 -28 -26l-66 -58h-81z" />
    <glyph glyph-name="jcircumflex" unicode="&#x135;" 
d="M210 650l155 145h70l105 -145h-75l-45 57q-15 20 -19 26q-4 5 -5 8h-3q-3 -3 -8 -7q-6 -7 -28 -26l-66 -58h-81zM361 415q5 32 -10 51t-44 19t-50 -19t-26 -51l-15 -95h-86l15 95q11 65 58 105t116 40q70 0 105.5 -39.5t24.5 -105.5l-60 -381q-15 -93 -78.5 -146
t-160.5 -53h-166l12 78h167q56 0 92.5 32.5t45.5 88.5z" />
    <glyph glyph-name="tcaron" unicode="&#x165;" 
d="M77 550h166l26 160h88l-26 -160h221l-12 -78h-221l-54 -339q-5 -32 14 -48.5t45 -16.5q14 0 27.5 4.5t25 13t20 21t10.5 28.5l1 5h88l-1 -5q-6 -33 -22.5 -60t-40.5 -46t-55 -29t-65 -10t-61 10t-45.5 28.5t-26 45t-2.5 59.5l54 339h-166zM440 610l50 146h90l-70 -146
h-70z" />
    <glyph glyph-name="ellipsis" unicode="&#x2026;" 
d="M61 115q4 25 20 40t39 15t34 -15t7 -40l-11 -70q-4 -25 -20 -40t-39 -15t-34 15t-7 40zM251 115q4 25 20 40t39 15t34 -15t7 -40l-11 -70q-4 -25 -20 -40t-39 -15t-34 15t-7 40zM441 115q4 25 20 40t39 15t34 -15t7 -40l-11 -70q-4 -25 -20 -40t-39 -15t-34 15t-7 40z
" />
    <glyph glyph-name="paragraph" unicode="&#xb6;" 
d="M253 300q-86 0 -131 46.5t-33 123.5l13 80q6 38 24.5 69.5t47 54t65.5 34.5t80 12h250l-114 -720h-80l103 649h-90l-103 -649h-80z" />
    <glyph glyph-name="mu" unicode="&#xb5;" 
d="M14 -165l113 715h90l-56 -356q-10 -60 13 -92.5t86 -32.5q62 0 96 31t45 94l56 356h90l-56 -356q-16 -98 -76.5 -151t-157.5 -53q-49 0 -77 12t-42 27q-17 16 -22 38h-4q1 0 2 -8t2 -20t1 -26t-1 -26l-13 -152h-89z" />
    <glyph glyph-name="OE" unicode="&#x152;" 
d="M346 540q8 51 -11.5 80.5t-61.5 29.5t-70.5 -29.5t-36.5 -80.5l-57 -360q-8 -51 11 -80.5t61 -29.5t71 29.5t37 80.5zM273 80h-5q-10 -25 -27 -45q-14 -17 -38 -31t-60 -14q-72 0 -105 51t-19 139l57 360q14 88 63.5 139t121.5 51q36 0 55 -14t28 -31q11 -20 12 -45h5
l13 80h265l-13 -82h-177l-36 -226h152l-13 -82h-152l-39 -248h177l-13 -82h-265z" />
    <glyph glyph-name="oe" unicode="&#x153;" 
d="M259 70q-8 -22 -24 -40q-14 -15 -39.5 -27.5t-67.5 -12.5q-68 0 -99.5 42.5t-19.5 117.5l39 250q12 75 57.5 117.5t113.5 42.5q42 0 63 -12.5t31 -27.5q11 -18 11 -40h4q8 22 24 40q14 15 39.5 27.5t67.5 12.5q68 0 99.5 -42.5t19.5 -117.5l-23 -150h-222l-16 -100
q-6 -38 9 -60.5t45 -22.5q26 0 46.5 16t29.5 42h85q-20 -63 -64 -99t-100 -36q-42 0 -63 12.5t-31 27.5q-11 18 -11 40h-4zM481 323l12 77q6 38 -8.5 60.5t-47.5 22.5q-32 0 -53.5 -22.5t-27.5 -60.5l-12 -77h137zM94 150q-6 -38 9.5 -60.5t47.5 -22.5q31 0 52.5 22.5
t27.5 60.5l39 250q6 38 -8 60.5t-45 22.5q-32 0 -55 -22.5t-29 -60.5z" />
    <glyph glyph-name="AE" unicode="&#xc6;" 
d="M238 710h395l-13 -82h-182l-35 -221h157l-13 -82h-157l-39 -243h182l-13 -82h-270l32 203h-140l-73 -203h-89zM169 278h125l56 350h-56z" />
    <glyph glyph-name="ae" unicode="&#xe6;" 
d="M8 130l9 60q10 62 57.5 98.5t117.5 36.5h74l11 74q7 44 -5.5 64t-47.5 20q-58 0 -73 -59h-85q19 66 58.5 101t96.5 35q42 0 63 -12.5t31 -27.5q11 -18 11 -40h4q13 22 32 40q16 15 40.5 27.5t58.5 12.5q66 0 98.5 -43.5t20.5 -116.5l-23 -145h-222l-16 -105
q-6 -38 9 -60.5t45 -22.5q26 0 46.5 16t29.5 42h85q-20 -64 -63.5 -99.5t-100.5 -35.5q-42 0 -63 12.5t-31 27.5q-11 18 -11 40h-4q-8 -22 -27 -40q-15 -15 -42 -27.5t-72 -12.5q-30 0 -53.5 10t-38 28.5t-20 44.5t-0.5 57zM153 67q32 0 55.5 22.5t29.5 60.5l16 105h-72
q-31 0 -50.5 -17.5t-24.5 -47.5l-9 -60q-5 -29 10 -46t45 -17zM484 325l11 75q6 38 -8.5 60.5t-47.5 22.5q-32 0 -53.5 -22.5t-27.5 -60.5l-11 -75h137z" />
    <glyph glyph-name="germandbls" unicode="&#xdf;" 
d="M92 551q6 40 25 73t48 56.5t66 36.5t79 13h73q43 0 76 -13t54.5 -36.5t29.5 -56.5t2 -73l-13 -81h-90q-88 0 -100 -70q-9 -61 57 -74l33 -7q68 -14 98 -58t19 -110q-12 -76 -63.5 -118.5t-132.5 -42.5q-76 0 -117.5 37t-39.5 103h95q1 -29 20.5 -44.5t54.5 -15.5
q39 0 63 20.5t30 58.5q5 36 -8 57t-48 29l-32 7q-140 30 -120 157q11 72 64.5 111.5t139.5 39.5q8 45 -15.5 72.5t-69.5 27.5h-73q-45 0 -76 -27.5t-39 -72.5l-87 -550h-90z" />
    <glyph glyph-name="eth" unicode="&#xf0;" 
d="M247 -10q-52 0 -91.5 16t-64.5 45.5t-35 71t-2 92.5q8 50 29.5 90.5t54 69.5t73.5 45t89 16q30 0 50 -8.5t32 -19.5q13 -12 21 -28h14q-7 9 -16 24q-8 12 -18.5 31t-24.5 45l-46 87l-167 -72l13 80l122 53l-54 102h109l32 -64l160 69l-12 -80l-117 -51l55 -111
q80 -160 61 -280q-8 -49 -31 -90.5t-58.5 -70.5t-80.5 -45.5t-97 -16.5zM144 215q-11 -66 21 -105.5t95 -39.5q32 0 59.5 10.5t49 29.5t36 45.5t19.5 59.5q11 66 -21.5 105.5t-96.5 39.5q-63 0 -107 -39.5t-55 -105.5z" />
    <glyph glyph-name="logicalnot" unicode="&#xac;" 
d="M86 415h460l-33 -210h-80l21 135h-380z" />
    <glyph glyph-name="trademark" unicode="&#x2122;" 
d="M310 360l58 360h80l17 -102q2 -10 2.5 -21.5t0.5 -22.5q0 -12 -1 -24h6q3 12 7 24q3 11 6.5 22.5t8.5 21.5l50 102h78l-58 -360h-55l40 251q2 9 5 20.5t6 22.5q3 13 7 26h-9q-4 -14 -9 -26q-4 -11 -8 -23t-8 -21l-47 -110h-52l-15 111q-1 9 -1.5 20.5t-1.5 22.5
q-1 13 -1 26h-8v-26q0 -11 -0.5 -22.5t-2.5 -20.5l-40 -251h-55zM66 670l8 50h260l-8 -50h-100l-50 -310h-60l50 310h-100z" />
    <glyph glyph-name="florin" unicode="&#x192;" 
d="M-35 -85h87q51 0 82 27t39 78l68 425h-155l12 80h155l11 68q11 66 56 101.5t118 35.5h151l-13 -78h-151q-64 0 -73 -60l-11 -67h215l-12 -80h-215l-68 -425q-14 -90 -71.5 -137.5t-151.5 -47.5h-85z" />
    <glyph glyph-name="section" unicode="&#xa7;" 
d="M25 -10h95q4 -33 32 -53.5t70 -20.5h30q57 0 90.5 23.5t39.5 62.5q12 73 -86 93l-74 15q-36 8 -64.5 23.5t-47.5 37t-27 48t-3 56.5q5 29 18.5 54t33.5 44t45.5 31t53.5 15l2 7q-35 2 -60 17q-22 14 -36.5 43t-6.5 83q12 74 71.5 117.5t153.5 43.5h30q79 0 126.5 -39.5
t48.5 -105.5h-95q-3 29 -28.5 47t-64.5 18h-30q-51 0 -83 -22t-38 -60q-5 -32 16.5 -56t66.5 -33l72 -15q36 -7 65 -23t47.5 -38t26.5 -48.5t3 -56.5q-4 -29 -18 -54t-34 -44t-46.5 -29.5t-56.5 -10.5l-1 -7q37 -4 64 -21q12 -7 22.5 -18t17.5 -26.5t9.5 -36t-1.5 -46.5
q-13 -78 -74.5 -123.5t-160.5 -45.5h-30q-41 0 -74.5 11t-58 31.5t-38 48.5t-13.5 63zM173 290q-6 -38 11 -65.5t50 -34.5l74 -15q10 -2 16 -2q38 0 66 34t36 82q5 35 -12.5 61t-51.5 34l-72 15q-10 2 -16 2q-38 0 -65.5 -32.5t-35.5 -78.5z" />
    <glyph glyph-name="currency" unicode="&#xa4;" 
d="M68 554l73 63l74 -88q51 28 110 28q63 0 105 -31l99 85l53 -63l-99 -85q10 -23 13.5 -50.5t-1.5 -57.5q-9 -62 -48 -110l73 -87l-73 -63l-73 87q-26 -14 -54.5 -21.5t-58.5 -7.5q-61 0 -102 29l-101 -87l-53 63l100 86q-24 47 -15 111q5 32 18 60.5t32 52.5zM273 226
q58 0 98.5 35.5t49.5 93.5t-20 93.5t-87 35.5t-99.5 -35.5t-50.5 -93.5t21 -93.5t88 -35.5z" />
    <glyph glyph-name="cent" unicode="&#xa2;" 
d="M209 -6q-75 14 -112 70t-23 141l22 140q14 88 67 143t135 68l13 84h90l-13 -83q69 -12 109.5 -61t38.5 -121h-88q2 47 -30 76t-83 29q-60 0 -100.5 -36t-50.5 -99l-22 -140q-11 -63 18 -99t90 -36q55 0 94 28t53 77h88q-23 -78 -76 -125t-130 -57l-13 -84h-90z" />
    <glyph glyph-name="sterling" unicode="&#xa3;" 
d="M25 0l16 100q33 20 61 42q23 19 44 42.5t25 49.5q4 23 4 46h-106l13 80h78q-7 20 -16 38.5t-15.5 37.5t-9.5 40.5t1 48.5q15 93 78.5 144t165.5 51q100 0 149.5 -50.5t36.5 -140.5h-95q8 51 -21 81t-84 30q-57 0 -94 -30.5t-46 -84.5q-4 -30 -0.5 -52t11 -40.5
t17.5 -35.5t17 -37h187l-13 -80h-161q-1 -8 -1.5 -17.5t-2.5 -19.5q-7 -45 -29 -75.5t-46 -50.5q-28 -23 -61 -37h370l-13 -80h-460z" />
    <glyph glyph-name="yen" unicode="&#xa5;" 
d="M41 195h195l12 75h-195l12 75h157l-128 375h95l101 -297q4 -12 7 -25t4.5 -24t2.5 -18.5t1 -10.5h4q1 3 4.5 10.5t8.5 18.5t11.5 24t14.5 25l190 297h96l-247 -375h158l-12 -75h-195l-12 -75h195l-12 -75h-195l-19 -120h-90l19 120h-195z" />
    <glyph glyph-name="ordfeminine" unicode="&#xaa;" 
d="M206 513q6 38 38 62.5t76 24.5h95l4 25q4 23 -11.5 36.5t-45.5 13.5q-26 0 -44.5 -10.5t-26.5 -29.5h-50q13 36 47.5 58t79.5 22q52 0 80 -24.5t21 -65.5l-31 -195h-47l9 55h-3q-15 -28 -43 -44t-63 -16q-45 0 -68 24t-17 64zM310 463q39 0 64 17.5t30 49.5l5 30h-95
q-22 0 -38 -13t-20 -34q-3 -23 11 -36.5t43 -13.5z" />
    <glyph glyph-name="ordmasculine" unicode="&#xba;" 
d="M267 520q-3 -23 12 -39t45 -16q29 0 49 15t24 40l16 100q4 23 -11 39t-45 16q-29 0 -49.5 -15t-24.5 -40zM447 520q-7 -44 -42 -69.5t-88 -25.5q-50 0 -78 26.5t-22 68.5l16 100q7 44 42 69.5t88 25.5q51 0 79 -26.5t21 -68.5z" />
    <glyph glyph-name="onesuperior" unicode="&#xb9;" 
d="M256 704l79 61h85l-51 -325h-60l37 233q4 24 7 35.5t3 12.5h-2q-5 -4 -11 -10q-5 -5 -12 -10.5t-16 -12.5l-70 -54z" />
    <glyph glyph-name="twosuperior" unicode="&#xb2;" 
d="M439 658q-5 -35 -37 -70t-81 -60l-69 -34v-4h176l-8 -50h-253l10 62l131 73q30 17 48.5 38t22.5 43q5 29 -8 46.5t-39 17.5q-28 0 -48 -18t-25 -46h-60q11 52 49 83t92 31q52 0 79.5 -30.5t19.5 -81.5z" />
    <glyph glyph-name="threesuperior" unicode="&#xb3;" 
d="M356 645q51 -3 75 -29t17 -71q-8 -50 -46 -80t-93 -30q-51 0 -80 28.5t-27 76.5h60q-1 -25 14 -40t41 -15q28 0 47 16.5t24 43.5q4 25 -10.5 40t-41.5 15h-30l10 62l62 37q7 4 11.5 6.5t7.5 4.5q4 2 7 4l1 2h-8q-5 -1 -11 -1h-14h-117l8 50h205l-10 -60l-75 -48
q-5 -3 -9.5 -4.5t-8.5 -3.5q-5 -1 -9 -2v-2z" />
    <glyph glyph-name="uni2070" unicode="&#x2070;" 
d="M354 715q-35 0 -56 -21.5t-27 -58.5l-10 -65q-6 -37 8 -58.5t49 -21.5q38 0 58 23.5t25 56.5l10 65q6 37 -8 58.5t-49 21.5zM309 435q-63 0 -90.5 36t-17.5 99l10 65q10 63 49.5 99t102.5 36t90.5 -36t17.5 -99l-10 -65q-10 -63 -49.5 -99t-102.5 -36z" />
    <glyph glyph-name="uni2074" unicode="&#x2074;" 
d="M268 576l-3 -16h116l13 79h60l-32 -199h-60l11 70h-176l13 84l154 171h69z" />
    <glyph glyph-name="uni2080" unicode="&#x2080;" 
d="M361 230q-35 0 -56 -21.5t-27 -58.5l-10 -65q-6 -37 8 -58.5t49 -21.5q38 0 58 23.5t25 56.5l10 65q6 37 -8 58.5t-49 21.5zM316 -50q-63 0 -90.5 36t-17.5 99l10 65q10 63 49.5 99t102.5 36t90.5 -36t17.5 -99l-10 -65q-10 -63 -49.5 -99t-102.5 -36z" />
    <glyph glyph-name="uni2081" unicode="&#x2081;" 
d="M256 218l79 61h85l-51 -325h-60l37 233q4 24 7 35.5t3 12.5h-2q-5 -4 -11 -10q-5 -5 -12 -10.5t-16 -12.5l-70 -54z" />
    <glyph glyph-name="uni2082" unicode="&#x2082;" 
d="M439 173q-5 -35 -37 -70t-81 -60l-69 -34v-4h176l-8 -50h-253l10 62l131 73q30 17 48.5 38t22.5 43q5 29 -8 46.5t-39 17.5q-28 0 -48 -18t-25 -46h-60q11 52 49 83t92 31q52 0 79.5 -30.5t19.5 -81.5z" />
    <glyph glyph-name="uni2083" unicode="&#x2083;" 
d="M357 160q51 -3 75 -29t17 -71q-8 -50 -46 -80t-93 -30q-51 0 -80 28.5t-27 76.5h60q-1 -25 14 -40t41 -15q28 0 47 16.5t24 43.5q4 25 -10.5 40t-41.5 15h-30l10 62l62 37q7 4 11.5 6.5t7.5 4.5q4 2 7 4l1 2h-8q-5 -1 -11 -1h-14h-117l8 50h205l-10 -60l-75 -48
q-5 -3 -9.5 -4.5t-8.5 -3.5q-5 -1 -9 -2v-2z" />
    <glyph glyph-name="uni2084" unicode="&#x2084;" 
d="M268 91l-3 -16h116l13 79h60l-32 -199h-60l11 70h-176l13 84l154 171h69z" />
    <glyph glyph-name="fraction" unicode="&#x2044;" 
d="M502 720h68l-459 -720h-69z" />
    <glyph glyph-name="onequarter" unicode="&#xbc;" 
d="M42 0l460 720h68l-459 -720h-69zM327 70l13 84l154 171h69l-165 -189l-3 -16h116l13 79h60l-32 -199h-60l11 70h-176zM106 659l79 61h85l-51 -325h-60l37 233q4 24 7 35.5t3 12.5h-2q-5 -4 -11 -10q-5 -5 -12 -10.5t-16 -12.5l-70 -54z" />
    <glyph glyph-name="onehalf" unicode="&#xbd;" 
d="M502 720h68l-459 -720h-69zM327 0l10 62l131 73q30 17 48.5 38t22.5 43q5 29 -8 46.5t-39 17.5q-28 0 -48 -18t-25 -46h-60q11 52 49 83t92 31q52 0 79.5 -30.5t19.5 -81.5q-5 -35 -37 -70t-81 -60l-69 -34v-4h176l-8 -50h-253zM95 589l11 70l79 61h85l-51 -325h-60
l37 233q4 24 7 35.5t3 12.5h-2q-5 -4 -11 -10q-5 -5 -12 -10.5t-16 -12.5z" />
    <glyph glyph-name="threequarters" unicode="&#xbe;" 
d="M42 0l460 720h68l-459 -720h-69zM52 495h60q-1 -25 14 -40t41 -15q28 0 47 16.5t24 43.5q4 25 -10.5 40t-41.5 15h-30l10 62l62 37q7 4 11.5 6.5t7.5 4.5q4 2 7 4l1 2h-8q-5 -1 -11 -1h-14h-117l8 50h205l-10 -60l-75 -48q-5 -3 -9.5 -4.5t-8.5 -3.5q-5 -1 -9 -2v-2
q51 -3 75 -29t17 -71q-8 -50 -46 -80t-93 -30q-51 0 -80 28.5t-27 76.5zM327 70l13 84l154 171h69l-165 -189l-3 -16h116l13 79h60l-32 -199h-60l11 70h-176z" />
    <glyph glyph-name="perthousand" unicode="&#x2030;" 
d="M187 105l15 90q8 53 41.5 81.5t82.5 28.5q29 0 44 -10t22 -22q9 -14 10 -32q7 18 20 32q11 12 30 22t47 10q49 0 73.5 -28.5t16.5 -81.5l-15 -90q-8 -53 -41.5 -81.5t-82.5 -28.5q-28 0 -43 10t-23 22q-9 14 -10 32q-7 -18 -20 -32q-11 -12 -29.5 -22t-47.5 -10
q-49 0 -73.5 28.5t-16.5 81.5zM423 195l-15 -90q-5 -29 7.5 -44t38.5 -15q25 0 41.5 14.5t21.5 44.5l15 90q5 30 -7.5 44.5t-37.5 14.5q-26 0 -42.5 -15t-21.5 -44zM289 46q26 0 42.5 15t21.5 44l15 90q5 29 -7.5 44t-38.5 15q-25 0 -41.5 -14.5t-21.5 -44.5l-15 -90
q-5 -30 7.5 -44.5t37.5 -14.5zM566 495v-57l-554 -158v57zM171 670q-35 0 -50.5 -20.5t-20.5 -49.5l-7 -45q-5 -29 4.5 -49.5t44.5 -20.5q19 0 32 6t21 16t12 22.5t6 25.5l7 45q5 29 -4.5 49.5t-44.5 20.5zM133 430q-63 0 -85.5 34.5t-14.5 90.5l7 45q9 56 43 90.5t97 34.5
t86 -34.5t14 -90.5l-7 -45q-8 -56 -42.5 -90.5t-97.5 -34.5z" />
    <glyph glyph-name="dagger" unicode="&#x2020;" 
d="M337 820h90l-149 -940h-90zM115 410h400l-12 -75h-400z" />
    <glyph glyph-name="daggerdbl" unicode="&#x2021;" 
d="M333 230l-55 -350h-90l55 350h-176l12 75h176l22 135h-177l12 75h177l48 305h90l-48 -305h173l-12 -75h-173l-22 -135h174l-12 -75h-174z" />
    <glyph glyph-name="kgreenlandic" unicode="&#x138;" 
d="M132 550h88l-36 -231h112l200 231h101l-232 -267l153 -283h-99l-130 241h-118l-38 -241h-88z" />
    <glyph glyph-name="ibreve" unicode="&#x12d;" 
d="M60 416l3 14q6 29 21.5 53t38.5 41t53 26.5t64 9.5q69 0 103.5 -35.5t23.5 -94.5l-58 -295q-5 -29 10.5 -47t46.5 -18q32 0 55.5 18.5t29.5 48.5l1 8h88l-1 -8q-6 -33 -23 -60t-41.5 -46.5t-56 -30t-67.5 -10.5q-71 0 -107 39.5t-23 105.5l58 295q5 25 -10 40t-44 15
t-49 -15t-25 -40l-3 -14h-88zM219 790h75q-6 -34 17 -52t65 -18t72 18t36 52h75q-5 -30 -22.5 -55t-43.5 -43t-59 -27.5t-69 -9.5t-65.5 9.5t-49 27.5t-28 43t-3.5 55z" />
    <glyph glyph-name="Ibreve" unicode="&#x12c;" 
d="M45 0l13 79h159l89 562h-159l12 79h410l-12 -79h-159l-89 -562h159l-13 -79h-410zM244 940h75q-12 -70 71 -70q42 0 67.5 18t31.5 52h75q-6 -30 -22 -55t-40 -43t-55 -27.5t-67 -9.5q-72 0 -109.5 37t-26.5 98z" />
    <glyph glyph-name="longs" unicode="&#x17f;" 
d="M576 730l-13 -80h-176q-35 0 -60.5 -22t-31.5 -58l-90 -570h-90l90 571q6 36 23 65t42.5 50t58.5 32.5t71 11.5h176z" />
    <glyph glyph-name="eng" unicode="&#x14b;" 
d="M38 0l87 550h85l-15 -95h8q21 50 65 77.5t101 27.5q42 0 73.5 -13.5t51.5 -38t27.5 -59.5t0.5 -78l-54 -341q-7 -44 -27.5 -80t-51 -61.5t-70.5 -39.5t-87 -14h-70l13 82h70q54 0 89.5 30t43.5 83l51 326q10 59 -17.5 92.5t-84.5 33.5t-95 -32.5t-47 -89.5l-57 -360h-90z
" />
    <glyph glyph-name="Eng" unicode="&#x14a;" 
d="M35 0l113 710h130l115 -427q4 -15 6.5 -33.5t4.5 -35.5q2 -20 4 -39h7l1 12t2.5 32t4 45.5t6.5 51.5l63 394h86l-108 -680q-7 -44 -27.5 -80t-51 -61.5t-70.5 -39.5t-87 -14h-70l13 82h70q54 0 89.5 30t43.5 83l-143 484q-5 18 -7.5 37t-4.5 34q-2 18 -2 35h-7
q-2 -19 -5 -41q-2 -19 -5.5 -43.5t-8.5 -53.5l-76 -482h-86z" />
    <glyph glyph-name="bar_bar_bar.liga" horiz-adv-x="1800" 
d="M1266 -120l149 940h90l-149 -940h-90zM786 -120l149 940h90l-149 -940h-90zM306 -120l149 940h90l-149 -940h-90z" />
    <glyph glyph-name="slash_slash_slash.liga" horiz-adv-x="1800" 
d="M616 830h97l-502 -940h-97zM1096 830h97l-502 -940h-97zM1576 830h97l-502 -940h-97z" />
    <glyph glyph-name="ampersand_ampersand_ampersand.liga" horiz-adv-x="1800" 
d="M1210 0q-48 16 -69 55.5t-11 99.5l19 125q9 54 43 89.5t88 47.5l-8 15q-21 38 -29.5 69t-3.5 59q6 36 23 65.5t44 50.5t62 32.5t76 11.5q85 0 130 -44t34 -116h-90q6 37 -17.5 59.5t-68.5 22.5q-41 0 -69 -22.5t-34 -59.5t20 -84l136 -242l90 126h94l-144 -198l91 -162
h-99l-49 87q-37 -40 -85.5 -68.5t-104.5 -28.5q-39 0 -68 10zM110 155l19 125q9 54 43 89t88 48l-8 15q-21 38 -29.5 69t-3.5 59q6 36 23 65.5t44 50.5t62 32.5t76 11.5q85 0 130 -44t34 -116h-90q6 37 -17.5 59.5t-68.5 22.5q-41 0 -69 -22.5t-34 -59.5t20 -84l267 -476
h-99l-49 87q-44 -48 -92.5 -72.5t-97.5 -24.5q-82 0 -121.5 43.5t-26.5 121.5zM700 0q-48 16 -69 55.5t-11 99.5l19 125q9 54 43 89.5t88 47.5l-8 15q-21 38 -29.5 69t-3.5 59q6 36 23 65.5t44 50.5t62 32.5t76 11.5q85 0 130 -44t34 -116h-90q6 37 -17.5 59.5t-68.5 22.5
q-41 0 -69 -22.5t-34 -59.5t20 -84l267 -476h-99l-49 87q-37 -40 -85.5 -68.5t-104.5 -28.5q-39 0 -68 10zM786 70q34 0 69 22.5t64 62.5l-120 211q-28 -8 -46.5 -29.5t-23.5 -56.5l-19 -125q-7 -41 13 -63t63 -22zM1296 70q34 0 69 22.5t64 62.5l-120 211
q-28 -8 -46.5 -29.5t-23.5 -56.5l-19 -125q-7 -41 13 -63t63 -22zM276 70q34 0 69 22.5t64 62.5l-120 211q-28 -8 -46.5 -29.5t-23.5 -56.5l-19 -125q-7 -41 13 -63t63 -22z" />
    <glyph glyph-name="equal_equal_equal.liga" horiz-adv-x="1800" 
d="M105 475h1640l-12 -75h-480l6 35h-90l-6 -35h-510l6 35h-90l-6 -35h-470zM72 265h470l-6 -35h90l6 35h510l-6 -35h90l6 35h480l-12 -75h-1640z" />
    <glyph glyph-name="plus_plus.liga" horiz-adv-x="1200" 
d="M125 364h190l33 205h80l-33 -205h420l33 205h80l-33 -205h190l-11 -70h-190l-32 -205h-80l32 205h-420l-32 -205h-80l32 205h-190z" />
    <glyph glyph-name="hyphen_hyphen.liga" horiz-adv-x="1200" 
d="M106 370h1000l-12 -75h-1000z" />
    <glyph glyph-name="equal_greater.liga" horiz-adv-x="1200" 
d="M64 265h899l11 11q16 16 29 26.5t22 16.5q11 8 19 12v3l-11 11q-5 7 -13.5 18.5t-20.5 28.5l-5 8h-909l12 75h848l-87 135h100l177 -277l-266 -277h-109l130 134h-838z" />
    <glyph glyph-name="uni041D" unicode="&#x41d;" 
d="M40 0l114 720h88l-48 -304h240l48 304h88l-114 -720h-88l53 334h-240l-53 -334h-88z" />
    <glyph glyph-name="uni041E" unicode="&#x41e;" 
d="M155 204q-10 -62 19.5 -98t89.5 -36t100.5 36t50.5 98l50 312q10 62 -19.5 98t-89.5 36t-100.5 -36t-50.5 -98zM115 516q16 100 83.5 157t170.5 57q50 0 88 -15.5t62.5 -43.5t34 -67.5t1.5 -87.5l-50 -312q-16 -100 -83.5 -157t-170.5 -57q-50 0 -88 15.5t-62.5 43.5
t-33.5 67.5t-2 87.5z" />
    <glyph glyph-name="uni0410" unicode="&#x410;" 
d="M148 274v4h2l190 442h126l76 -720h-92l-18 203h-222l-84 -203h-96zM241 278h185l-25 285q-3 42 -3 70v27h-4l-9 -27q-5 -14 -11.5 -31.5t-15.5 -38.5z" />
    <glyph glyph-name="uni0412" unicode="&#x412;" 
d="M550 530q-11 -65 -51.5 -105t-102.5 -45l-1 -6q65 -4 97 -51t20 -120q-15 -96 -80.5 -149.5t-169.5 -53.5h-220l114 720h209q49 0 86.5 -14t61.5 -39t34 -60t3 -77zM422 203q9 58 -23 92.5t-95 34.5h-123l-39 -248h123q65 0 106.5 32t50.5 89zM460 522q8 53 -21.5 84.5
t-86.5 31.5h-122l-36 -230h121q58 0 97.5 31t47.5 83z" />
    <glyph glyph-name="uni0420" unicode="&#x420;" 
d="M130 0h-90l114 720h243q48 0 85.5 -15t62 -42.5t34.5 -65t3 -82.5q-7 -47 -28.5 -85t-54 -64.5t-75 -41t-92.5 -14.5h-153zM345 390q57 0 95.5 33.5t48.5 91.5q8 56 -21 90.5t-84 34.5h-153l-39 -250h153z" />
    <glyph glyph-name="uni0421" unicode="&#x421;" 
d="M384 730q91 0 141 -52t46 -143h-88q2 54 -28 85.5t-84 31.5q-60 0 -100.5 -37t-50.5 -100l-49 -310q-11 -64 18.5 -100.5t89.5 -36.5q55 0 94.5 31.5t53.5 85.5h88q-25 -93 -90.5 -144t-158.5 -51q-102 0 -151 55.5t-33 154.5l50 320q16 99 83 154.5t169 55.5z" />
    <glyph glyph-name="uni0415" unicode="&#x415;" 
d="M159 720h425l-13 -82h-335l-36 -226h300l-13 -82h-300l-39 -248h335l-13 -82h-425z" />
    <glyph glyph-name="uni041A" unicode="&#x41a;" 
d="M154 720h90l-48 -306h116l212 306h105l-245 -351l141 -369h-98l-124 335h-120l-53 -335h-90z" />
    <glyph glyph-name="uni041C" unicode="&#x41c;" 
d="M28 0l114 720h108l48 -244q3 -11 5 -25.5t4 -26.5q1 -15 3 -29h6q7 14 13 29q6 12 12.5 26.5t11.5 25.5l121 244h112l-114 -720h-81l80 505q3 16 7 36t8 39q4 22 9 44h-6q-9 -21 -18 -41q-8 -18 -18 -39t-19 -39l-90 -185h-84l-32 185q-3 19 -6.5 40t-5.5 39q-3 21 -6 41
h-5q-3 -22 -5 -44q-2 -18 -5 -38.5t-6 -37.5l-80 -505h-81z" />
    <glyph glyph-name="uni0425" unicode="&#x425;" 
d="M-10 0l268 367l-143 353h104l80 -209q5 -11 9 -22.5t7 -21.5l6 -20h3q6 9 13 20q6 9 13.5 20.5t15.5 23.5l148 209h99l-254 -347l151 -373h-103l-89 229q-5 12 -8.5 23.5t-6.5 20.5q-3 11 -6 21h-3q-6 -10 -13 -21q-6 -9 -13.5 -20.5t-15.5 -22.5l-162 -230h-100z" />
    <glyph glyph-name="uni0430" unicode="&#x430;" 
d="M66 205l22 140q6 48 25.5 88t48.5 68t66 43.5t79 15.5q60 0 95 -28t40 -77h8l15 95h83l-87 -550h-83l15 95h-8q-20 -49 -64.5 -77t-104.5 -28q-42 0 -73.5 15.5t-51 43.5t-26.5 68t1 88zM256 68q57 0 96 34t52 92l25 160q7 59 -21 93.5t-82 34.5q-62 0 -101 -36.5
t-49 -100.5l-22 -140q-11 -64 16.5 -100.5t85.5 -36.5z" />
    <glyph glyph-name="uni0435" unicode="&#x435;" 
d="M252 -10q-50 0 -88.5 15t-62.5 42t-33.5 66t-1.5 87l23 150q16 98 83.5 154t170.5 56q50 0 88.5 -15t62.5 -42t33.5 -66t1.5 -87l-16 -101h-349l-7 -44q-11 -63 18 -99t90 -36q45 0 80.5 14t55.5 41h90q-27 -63 -91.5 -99t-147.5 -36zM435 324l4 26q10 62 -18.5 96
t-90.5 34t-101.5 -34t-49.5 -96l-4 -26h260z" />
    <glyph glyph-name="uni043E" unicode="&#x43e;" 
d="M162 200q-11 -63 18.5 -96.5t90.5 -33.5q60 0 100 33.5t51 96.5l23 150q11 63 -19 96.5t-90 33.5q-61 0 -101 -34.5t-50 -95.5zM97 350q17 100 82.5 155t169.5 55q101 0 150.5 -56t34.5 -153l-24 -151q-16 -100 -81.5 -155t-170.5 -55q-102 0 -151 56.5t-33 153.5z" />
    <glyph glyph-name="uni0441" unicode="&#x441;" 
d="M259 -10q-49 0 -86.5 15.5t-61.5 43.5t-33.5 67.5t-1.5 88.5l22 140q16 101 82.5 158t169.5 57q42 0 77.5 -13.5t60 -38t38 -58.5t12.5 -75h-88q2 47 -30 76t-83 29q-60 0 -100.5 -36t-50.5 -99l-22 -140q-11 -63 18 -99t90 -36q55 0 94 28t53 77h88q-26 -89 -90 -137
t-158 -48z" />
    <glyph glyph-name="uni0443" unicode="&#x443;" 
d="M83 239l49 311h90l-46 -291q-10 -63 17 -98t84 -35t95.5 34.5t47.5 94.5l47 295h88l-87 -537q-14 -85 -69.5 -131.5t-146.5 -46.5h-176l12 78h176q48 0 78 26t38 74l8 47l20 95h-6q-21 -50 -65 -77.5t-103 -27.5q-41 0 -72 13.5t-51 38.5t-27.5 59.5t-0.5 77.5z" />
    <glyph glyph-name="uni0445" unicode="&#x445;" 
d="M242 283l-145 267h98l90 -175q8 -14 11 -25q2 -5 3 -10h4q2 5 6 10q3 5 7.5 11.5t10.5 13.5l142 175h109l-229 -268l153 -282h-101l-95 186q-3 7 -6 13.5t-5 12.5q-3 7 -5 13h-4q-4 -7 -8 -13q-3 -6 -7.5 -13t-9.5 -13l-155 -186h-108z" />
    <glyph glyph-name="uni0440" unicode="&#x440;" 
d="M162 205h1q-11 -63 17 -100t84 -37q62 0 101 36.5t50 100.5l22 140q10 64 -18 100.5t-90 36.5q-54 0 -93.5 -36t-50.5 -96zM503 205q-8 -48 -27.5 -88t-48.5 -68t-65.5 -43.5t-78.5 -15.5q-60 0 -95 28t-40 77h-8q-1 -17 -3 -34q-1 -15 -3 -31t-4 -30l-26 -165h-88
l113 715h83l-15 -95h8q20 49 64.5 77t104.5 28q42 0 73.5 -15.5t51 -43.5t27 -68t-0.5 -88z" />
    <glyph glyph-name="uni041F" unicode="&#x41f;" 
d="M154 720h420l-114 -720h-90l101 638h-240l-101 -638h-90z" />
    <glyph glyph-name="uni0411" unicode="&#x411;" 
d="M425 211q10 61 -20.5 98t-89.5 37h-130l-42 -264h130q62 0 102.5 34.5t49.5 94.5zM569 720l-13 -82h-325l-33 -210h135q48 0 86 -16t62.5 -44.5t35 -67.5t2.5 -86q-16 -100 -83.5 -157t-170.5 -57h-225l114 720h415z" />
    <glyph glyph-name="uni0418" unicode="&#x418;" 
d="M149 720h86l-78 -490q-4 -26 -9 -49.5t-9.5 -41.5t-7.5 -28.5l-3 -10.5h7q11 26 22 51q10 21 21 44.5t21 41.5l265 483h115l-114 -720h-86l78 492q5 29 9.5 52.5t8.5 40.5l9 36h-7q-9 -23 -20 -46q-9 -20 -20.5 -44t-23.5 -47l-263 -484h-115z" />
    <glyph glyph-name="uni0422" unicode="&#x422;" 
d="M97 641l12 79h510l-12 -79h-209l-102 -641h-92l102 641h-209z" />
    <glyph glyph-name="uni0413" unicode="&#x413;" 
d="M599 720l-13 -82h-340l-101 -638h-90l114 720h430z" />
    <glyph glyph-name="uni0416" unicode="&#x416;" 
d="M149 383l-70 337h86l59 -313h51l49 313h80l-49 -313h51l154 313h89l-176 -348l72 -372h-86l-59 341h-56l-54 -341h-80l54 341h-51l-167 -341h-91z" />
    <glyph glyph-name="uni0426" unicode="&#x426;" 
d="M154 720h90l-101 -640h230l101 640h90l-101 -640h75l-35 -220h-80l22 140h-405z" />
    <glyph glyph-name="uni0429" unicode="&#x429;" 
d="M117 720h90l-102 -642h107l102 642h90l-102 -642h107l102 642h90l-102 -642h38l-34 -218h-80l22 140h-442z" />
    <glyph glyph-name="uni0428" unicode="&#x428;" 
d="M117 720h90l-101 -640h112l101 640h90l-101 -640h112l101 640h90l-114 -720h-494z" />
    <glyph glyph-name="uni0417" unicode="&#x417;" 
d="M97 525q23 92 92.5 143.5t171.5 51.5q51 0 90 -13.5t64 -38.5t35 -60t3 -78q-11 -66 -53 -107t-104 -46l-1 -6q68 -4 99.5 -49t19.5 -123q-8 -48 -30.5 -86.5t-57 -66t-80 -42t-98.5 -14.5q-51 0 -91.5 14t-68.5 39.5t-42.5 61.5t-11.5 80h91q0 -51 37 -82t99 -31
q64 0 106 33.5t52 93.5q9 58 -22 92t-94 34h-126l13 82h125q57 0 95.5 31t46.5 85q8 53 -21 84t-88 31q-58 0 -99.5 -29.5t-58.5 -83.5h-93z" />
    <glyph glyph-name="uni0419" unicode="&#x419;" 
d="M149 720h86l-78 -490q-4 -26 -9 -49.5t-9.5 -41.5t-7.5 -28.5l-3 -10.5h7q11 26 22 51q10 21 21 44.5t21 41.5l265 483h115l-114 -720h-86l78 492q5 29 9.5 52.5t8.5 40.5l9 36h-7q-9 -23 -20 -46q-9 -20 -20.5 -44t-23.5 -47l-263 -484h-115zM268 940h75q-12 -70 71 -70
q42 0 67.5 18t31.5 52h75q-6 -30 -22 -55t-40 -43t-55 -27.5t-67 -9.5q-72 0 -109.5 37t-26.5 98z" />
    <glyph glyph-name="uni0405" unicode="&#x405;" 
d="M251 -10q-50 0 -89.5 14.5t-66 40t-38 61.5t-5.5 79h95q-4 -25 3 -46t23 -36.5t39.5 -24t53.5 -8.5q64 0 105.5 29t49.5 80q7 45 -15 80t-70 53l-71 28q-74 29 -110 81.5t-26 117.5q15 93 78.5 142t166.5 49q47 0 84 -14t61.5 -39t35 -60.5t4.5 -77.5h-95
q8 48 -21.5 79.5t-82.5 31.5q-57 0 -93.5 -27t-44.5 -76q-14 -86 84 -124l75 -29q75 -29 108.5 -84t22.5 -127q-14 -93 -82.5 -143t-178.5 -50z" />
    <glyph glyph-name="uni0455" unicode="&#x455;" 
d="M234 -10q-87 0 -137 39.5t-48 105.5h95q2 -29 30 -47t73 -18h28q54 0 87.5 22.5t39.5 60.5q10 65 -79 79l-81 12q-80 12 -113.5 51t-22.5 109q12 74 71 115t153 41h28q80 0 128 -38t48 -101h-95q-2 26 -27.5 42.5t-66.5 16.5h-28q-51 0 -82.5 -20t-37.5 -60
q-5 -32 11.5 -48.5t59.5 -22.5l81 -12q88 -13 122 -52t22 -111q-12 -77 -72.5 -120.5t-158.5 -43.5h-28z" />
    <glyph glyph-name="uni0456" unicode="&#x456;" 
d="M60 416l3 14q6 29 21.5 53t38.5 41t53 26.5t64 9.5q69 0 103.5 -35.5t23.5 -94.5l-58 -295q-5 -29 10.5 -47t46.5 -18q32 0 55.5 18.5t29.5 48.5l1 8h88l-1 -8q-6 -33 -23 -60t-41.5 -46.5t-56 -30t-67.5 -10.5q-71 0 -107 39.5t-23 105.5l58 295q5 25 -10 40t-44 15
t-49 -15t-25 -40l-3 -14h-88zM365 765h20q29 0 43.5 -17t9.5 -44t-26 -43t-50 -16h-20q-29 0 -44 15.5t-10 43.5q5 27 26.5 44t50.5 17z" />
    <glyph glyph-name="uni042E" unicode="&#x42e;" 
d="M84 720h90l-48 -304h100l20 124q7 43 25.5 78t47 60t64.5 38.5t78 13.5t74 -13.5t52 -38.5t28 -60t1 -78l-57 -360q-7 -43 -26 -78t-47.5 -60t-64.5 -38.5t-78 -13.5t-73.5 13.5t-52 38.5t-28 60t-0.5 78l24 154h-100l-53 -334h-90zM448 650q-43 0 -73.5 -28t-38.5 -82
l-57 -360q-9 -54 12.5 -82t64.5 -28t73.5 28t39.5 82l57 360q8 54 -13.5 82t-64.5 28z" />
    <glyph glyph-name="uni042C" unicode="&#x42c;" 
d="M440 212q10 60 -20.5 97t-89.5 37h-145l-42 -264h145q60 0 101.5 35.5t50.5 94.5zM244 720l-46 -292h150q49 0 87 -15.5t62.5 -44t34.5 -68t2 -86.5q-16 -100 -83.5 -157t-170.5 -57h-240l114 720h90z" />
    <glyph glyph-name="uni042B" unicode="&#x42b;" 
d="M-5 0l114 720h90l-46 -292h65q47 0 83.5 -14.5t60 -40.5t32.5 -63t2 -82l-4 -29q-7 -45 -28 -81.5t-53 -62.5t-73 -40.5t-88 -14.5h-155zM415 0l114 720h90l-114 -720h-90zM98 80h65q54 0 92 33t47 87l4 28q9 54 -19 87t-82 33h-65z" />
    <glyph glyph-name="uni042A" unicode="&#x42a;" 
d="M61 638l13 82h200l-46 -292h135q49 0 87 -15.5t62.5 -44t34.5 -68t2 -86.5q-16 -100 -83.5 -157t-170.5 -57h-225l101 638h-110zM303 82q60 0 101.5 36t51.5 96q9 59 -21.5 95.5t-89.5 36.5h-130l-42 -264h130z" />
    <glyph glyph-name="uni042F" unicode="&#x42f;" 
d="M207 319q-66 18 -96.5 69.5t-18.5 126.5q7 46 28.5 83.5t54.5 64.5t75.5 42t90.5 15h233l-114 -720h-90l49 310h-119l-194 -310h-106zM185 515q-9 -57 19 -91t85 -34h143l39 250h-143q-57 0 -95.5 -34t-47.5 -91z" />
    <glyph glyph-name="uni042D" unicode="&#x42d;" 
d="M242 -10q-94 0 -143.5 51.5t-45.5 143.5h90q-2 -54 27.5 -84.5t84.5 -30.5q61 0 101 36t51 99l19 120h-248l12 80h249l17 110q10 63 -19.5 99t-89.5 36q-55 0 -94.5 -30.5t-53.5 -84.5h-90q25 92 91 143.5t160 51.5q103 0 152.5 -56t33.5 -154l-50 -320
q-16 -98 -83.5 -154t-170.5 -56z" />
    <glyph glyph-name="uni041B" unicode="&#x41b;" 
d="M184 720h400l-114 -720h-90l101 638h-220l-74 -468q-13 -83 -65 -129t-131 -46h-32l14 85h35q74 0 88 84z" />
    <glyph glyph-name="uni0414" unicode="&#x414;" 
d="M-12 80h25q32 0 56.5 37t34.5 97l80 506h390l-101 -640h65l-35 -220h-80l22 140h-390l-22 -140h-80zM383 80l88 558h-210l-66 -418q-8 -49 -22 -76t-28 -40q-17 -16 -35 -19l-1 -5h274z" />
    <glyph glyph-name="uni0423" unicode="&#x423;" 
d="M199 720l86 -347q6 -22 8.5 -42t3.5 -35q1 -18 1 -33h7q2 15 7 33q4 15 11.5 34.5t18.5 42.5l182 347h100l-387 -720h-96l104 189l-141 531h95z" />
    <glyph glyph-name="uni0424" unicode="&#x424;" 
d="M212 46q-46 0 -81.5 15t-58 42.5t-30.5 66.5t-1 86l34 220q16 98 79.5 154t159.5 56l9 60h90l-9 -60q46 0 81.5 -15t58 -42.5t31 -66.5t0.5 -86l-34 -220q-16 -98 -79.5 -154t-159.5 -56l-10 -66h-90zM130 256q-10 -60 15.5 -95t79.5 -35l76 480q-54 0 -90.5 -35
t-46.5 -95zM486 476q10 60 -15.5 95t-79.5 35l-76 -480q54 0 90.5 35t46.5 95z" />
    <glyph glyph-name="uni0427" unicode="&#x427;" 
d="M260 250q-91 0 -134.5 54t-28.5 151l42 265h90l-42 -265q-9 -60 17 -92.5t83 -32.5q38 0 65.5 8t44.5 17q20 11 33 25l54 340h90l-114 -720h-90l34 215q2 11 5.5 29.5t7.5 36.5q5 21 10 44h-5q-17 -21 -41 -37q-20 -14 -50 -26t-71 -12z" />
    <glyph glyph-name="uni043D" unicode="&#x43d;" 
d="M40 0l87 550h90l-37 -232h240l37 232h90l-87 -550h-90l37 236h-240l-37 -236h-90z" />
    <glyph glyph-name="uni0451" unicode="&#x451;" 
d="M252 -10q-50 0 -88.5 15t-62.5 42t-33.5 66t-1.5 87l23 150q16 98 83.5 154t170.5 56q50 0 88.5 -15t62.5 -42t33.5 -66t1.5 -87l-16 -101h-349l-7 -44q-11 -63 18 -99t90 -36q45 0 80.5 14t55.5 41h90q-27 -63 -91.5 -99t-147.5 -36zM435 324l4 26q10 62 -18.5 96
t-90.5 34t-101.5 -34t-49.5 -96l-4 -26h260zM230 727q5 27 24.5 43.5t46.5 16.5t40.5 -16.5t8.5 -43.5t-24 -43.5t-46 -16.5t-41 16.5t-9 43.5zM430 727q5 27 24.5 43.5t46.5 16.5t40.5 -16.5t8.5 -43.5t-24 -43.5t-46 -16.5t-41 16.5t-9 43.5z" />
    <glyph glyph-name="uni0438" unicode="&#x438;" 
d="M63 179l59 371h88l-55 -351q-11 -63 15 -98t83 -35q56 0 94 32t50 87l58 365h88l-87 -550h-83l15 95h-8q-20 -50 -64.5 -77.5t-103.5 -27.5q-81 0 -121.5 51.5t-27.5 137.5z" />
    <glyph glyph-name="uni044F" unicode="&#x44f;" 
d="M183 212q-61 15 -90 57.5t-18 107.5q13 81 73 127t154 46h245l-87 -550h-90l33 205h-128l-164 -205h-106zM167 377q-7 -43 17.5 -67.5t75.5 -24.5h155l29 185h-155q-51 0 -83 -24.5t-39 -68.5z" />
    <glyph glyph-name="uni043F" unicode="&#x43f;" 
d="M127 550h420l-87 -550h-90l74 468h-240l-74 -468h-90z" />
    <glyph glyph-name="uni043B" unicode="&#x43b;" 
d="M157 550h390l-87 -550h-90l74 468h-210l-47 -298q-6 -40 -23 -72t-42.5 -55t-58.5 -35.5t-71 -12.5h-23l13 84h29q71 0 85 85z" />
    <glyph glyph-name="uni0434" unicode="&#x434;" 
d="M412 200l13 81q10 66 -19 104.5t-89 38.5q-61 0 -101.5 -38.5t-51.5 -105.5l-12 -80q-10 -61 19 -95.5t90 -34.5t101 34.5t50 95.5zM541 445l-39 -245q-8 -49 -29.5 -88t-54 -66t-76 -41.5t-94.5 -14.5t-89 14.5t-62.5 41.5t-33.5 66t-1 88l13 81q17 113 75.5 166
t148.5 53q50 0 76 -15t38 -32q14 -21 16 -48h15l7 40q14 95 -23 145t-122 50h-150l15 90h150q125 0 183 -75t37 -210z" />
    <glyph glyph-name="uni0433" unicode="&#x433;" 
d="M230 -10q-98 0 -144.5 43.5t-34.5 120.5q12 72 58.5 111t137.5 52l85 12q45 6 67.5 22.5t27.5 48.5q6 40 -19.5 60t-76.5 20h-28q-41 0 -71.5 -16.5t-40.5 -42.5h-95q10 31 30.5 56.5t49.5 44t64.5 28.5t75.5 10h28q94 0 140 -41t34 -115q-11 -70 -57 -109t-129 -51
l-85 -12q-95 -14 -105 -79q-6 -38 20.5 -60.5t80.5 -22.5h28q45 0 78.5 18t44.5 47h95q-9 -33 -30 -59.5t-51 -45.5t-68.5 -29.5t-81.5 -10.5h-28z" />
    <glyph glyph-name="uni043A" unicode="&#x43a;" 
d="M132 550h88l-36 -231h112l200 231h101l-232 -267l153 -283h-99l-130 241h-118l-38 -241h-88z" />
    <glyph glyph-name="uni043C" unicode="&#x43c;" 
d="M107 550h112l57 -219q4 -11 6 -25.5t4 -26.5q2 -15 3 -29h6q6 14 13 29q6 12 12.5 26.5t12.5 25.5l122 219h112l-87 -550h-83l53 335q3 16 7.5 36t9.5 39q5 22 11 44h-6q-12 -23 -23 -45q-9 -19 -20 -39t-19 -35l-89 -160h-84l-39 160q-3 16 -7.5 36.5t-8.5 38.5
q-4 22 -9 45h-5q-2 -22 -3 -44q-2 -18 -4 -38.5t-5 -37.5l-53 -335h-83z" />
    <glyph glyph-name="uni0444" unicode="&#x444;" 
d="M5 -95h130q29 0 50.5 20.5t26.5 54.5l6 35h-1q-97 0 -144.5 54.5t-33.5 147.5l22 138q8 46 28.5 83t52 63t72.5 40t89 14l6 36q11 66 57 102.5t119 36.5h120l-11 -70h-120q-33 0 -56.5 -19t-28.5 -51l-6 -35q97 0 145 -53.5t33 -146.5l-22 -138q-7 -46 -27.5 -83.5
t-51.5 -63.5t-72 -40.5t-89 -14.5l-6 -35q-11 -66 -57 -105.5t-112 -39.5h-130zM119 217q-10 -62 19.5 -97t90.5 -35l63 400q-60 0 -100.5 -34.5t-50.5 -95.5zM310 85q60 0 99.5 35t49.5 97l22 138q10 61 -19.5 95.5t-89.5 34.5z" />
    <glyph glyph-name="uni0439" unicode="&#x439;" 
d="M72 179l59 371h88l-55 -351q-11 -63 15 -98t83 -35q56 0 94 32t50 87l58 365h88l-87 -550h-83l15 95h-8q-20 -50 -64.5 -77.5t-103.5 -27.5q-81 0 -121.5 51.5t-27.5 137.5zM228 790h75q-6 -34 17 -52t65 -18t72 18t36 52h75q-5 -30 -22.5 -55t-43.5 -43t-59 -27.5
t-69 -9.5t-65.5 9.5t-49 27.5t-28 43t-3.5 55z" />
    <glyph glyph-name="uni0442" unicode="&#x442;" 
d="M70 471l12 79h510l-12 -79h-209l-75 -471h-92l75 471h-209z" />
    <glyph glyph-name="uni0436" unicode="&#x436;" 
d="M122 283l-72 267h85l59 -236h66l37 236h80l-37 -236h59l134 236h91l-156 -266l77 -284h-87l-62 246h-67l-39 -246h-80l39 246h-60l-139 -246h-95z" />
    <glyph glyph-name="uni0432" unicode="&#x432;" 
d="M125 535q7 45 27 81t50.5 61.5t70.5 39t88 13.5q96 0 143 -46t34 -127q-9 -60 -46.5 -98t-91.5 -41l-1 -8q64 -4 97.5 -50.5t20.5 -123.5l-6 -41q-7 -47 -28.5 -85t-54.5 -64.5t-76 -41t-94 -14.5q-103 0 -152.5 56t-33.5 154zM162 200q-10 -61 19 -95.5t90 -34.5
t101 33.5t49 91.5l6 40q11 65 -18.5 102t-89.5 37h-130zM201 450h115q53 0 88.5 27t43.5 74q7 45 -19.5 72t-80.5 27t-89.5 -30.5t-43.5 -84.5z" />
    <glyph glyph-name="uni0448" unicode="&#x448;" 
d="M35 160l62 390h80l-62 -390q-6 -41 14.5 -65.5t61.5 -24.5h30l76 480h80l-76 -480h120l76 480h80l-87 -550h-310q-77 0 -116.5 44t-28.5 116z" />
    <glyph glyph-name="uni0449" unicode="&#x449;" 
d="M35 160l62 390h80l-62 -390q-6 -41 14.5 -65.5t61.5 -24.5h29l76 480h80l-76 -480h109l76 480h80l-76 -480h37l-33 -210h-80l22 140h-255q-77 0 -116.5 44t-28.5 116z" />
    <glyph glyph-name="uni044C" unicode="&#x44c;" 
d="M158 174q-8 -45 16 -69.5t76 -24.5h63q53 0 83.5 24.5t37.5 69.5q8 45 -15.5 69.5t-75.5 24.5h-170zM70 174l59 376h88l-32 -202h175q94 0 135 -45t28 -129q-14 -83 -69 -128.5t-149 -45.5h-70q-94 0 -136.5 45.5t-28.5 128.5z" />
    <glyph glyph-name="uni044A" unicode="&#x44a;" 
d="M197 174q-8 -45 16 -68.5t76 -23.5h42q49 0 80 24t38 68q8 44 -16 68t-73 24h-148zM107 174l47 296h-130l13 80h220l-32 -202h149q93 0 137.5 -46t31.5 -128q-14 -83 -72 -128.5t-152 -45.5h-45q-94 0 -137.5 45.5t-29.5 128.5z" />
    <glyph glyph-name="uni044D" unicode="&#x44d;" 
d="M240 -10q-90 0 -140 45.5t-52 129.5h90q3 -45 33.5 -70t81.5 -25q61 0 101 36t51 99l6 35h-198l13 80h197l4 25q10 63 -19.5 99t-89.5 36q-51 0 -89.5 -25t-55.5 -70h-90q29 85 93 130t155 45q50 0 88.5 -15t62.5 -42t33.5 -66t1.5 -87l-5 -30h1l-11 -65l-8 -55
q-16 -101 -82 -155.5t-172 -54.5z" />
    <glyph glyph-name="uni0446" unicode="&#x446;" 
d="M67 170l60 380h90l-60 -380q-7 -41 14 -65.5t62 -24.5h140l74 470h90l-74 -470h75l-35 -220h-80l22 140h-225q-40 0 -71.5 12t-51.5 34.5t-28 54t-2 69.5z" />
    <glyph glyph-name="uni044E" unicode="&#x44e;" 
d="M77 550h80l-37 -235h100l10 65q14 86 64.5 133t134.5 47t119.5 -47t21.5 -133l-33 -210q-14 -86 -64.5 -133t-134.5 -47t-119.5 47t-21.5 133l12 73h-100l-39 -243h-80zM418 490q-43 0 -71 -28t-37 -82l-33 -210q-8 -54 11 -82t62 -28t71 28t36 82l33 210q9 54 -10 82
t-62 28z" />
    <glyph glyph-name="uni0447" unicode="&#x447;" 
d="M245 155q-91 0 -134.5 53.5t-29.5 147.5l31 194h90l-31 -194q-9 -58 17.5 -89.5t83.5 -31.5q38 0 65 6t44 14q20 9 33 20l43 275h90l-87 -550h-90l19 120q2 11 5 26.5t6 29.5q4 16 8 34h-5q-16 -15 -39 -27q-20 -11 -49 -19.5t-70 -8.5z" />
    <glyph glyph-name="uni044B" unicode="&#x44b;" 
d="M35 143l64 407h83l-32 -202h80q75 0 113.5 -41t27.5 -109l-8 -54q-5 -33 -21.5 -61t-41.5 -47.5t-57 -30.5t-68 -11q-73 0 -111.5 41t-28.5 108zM405 0l87 550h83l-87 -550h-83zM186 64q35 0 61.5 22.5t32.5 57.5l8 54q6 36 -13 58t-56 22h-80l-21 -135q-6 -35 13.5 -57
t54.5 -22z" />
    <glyph glyph-name="uni0437" unicode="&#x437;" 
d="M81 415q10 31 30.5 57t50 45t65 29.5t75.5 10.5h60q88 0 131.5 -40.5t32.5 -111.5q-8 -50 -44.5 -81t-95.5 -35l-1 -4q70 -5 97 -38t17 -95q-12 -75 -71.5 -117t-152.5 -42h-57q-85 0 -135.5 37t-50.5 100h93q2 -26 30.5 -41.5t75.5 -15.5h57q49 0 80 23t37 60
q6 40 -17 63t-74 23h-142l13 78h139q46 0 73.5 22t32.5 58q6 37 -14.5 57t-65.5 20h-60q-41 0 -72.5 -18t-41.5 -44h-95z" />
    <glyph glyph-name="uni0431" unicode="&#x431;" 
d="M152 200q-10 -61 19 -95.5t90 -34.5t101 34.5t50 95.5l12 80q11 67 -17.5 105.5t-89.5 38.5q-60 0 -101 -38.5t-51 -104.5zM101 445q11 67 37 120t66 89.5t92.5 56t114.5 19.5h150l-15 -90h-150q-85 0 -138 -50t-67 -145l-7 -40h15q10 27 31 48q18 17 49 32t80 15
q91 0 132 -52.5t24 -166.5l-13 -81q-16 -98 -84 -154t-170 -56q-103 0 -152.5 56t-33.5 154z" />
    <glyph glyph-name="notequal" unicode="&#x2260;" 
d="M169 190h-112l12 75h146l85 135h-210l12 75h244l119 190h90l-119 -190h106l-12 -75h-140l-85 -135h204l-12 -75h-238l-119 -190h-90z" />
    <glyph glyph-name="uni0401" unicode="&#x401;" 
d="M159 720h425l-13 -82h-335l-36 -226h300l-13 -82h-300l-39 -248h335l-13 -82h-425zM256 887q5 27 24.5 43.5t46.5 16.5t40.5 -16.5t8.5 -43.5t-24 -43.5t-46 -16.5t-41 16.5t-9 43.5zM456 887q5 27 24.5 43.5t46.5 16.5t40.5 -16.5t8.5 -43.5t-24 -43.5t-46 -16.5
t-41 16.5t-9 43.5z" />
    <glyph glyph-name="uni0406" unicode="&#x406;" 
d="M45 0l13 79h159l89 562h-159l12 79h410l-12 -79h-159l-89 -562h159l-13 -79h-410z" />
    <glyph glyph-name="uni0407" unicode="&#x407;" 
d="M45 0l13 79h159l89 562h-159l12 79h410l-12 -79h-159l-89 -562h159l-13 -79h-410zM256 887q5 27 24.5 43.5t46.5 16.5t40.5 -16.5t8.5 -43.5t-24 -43.5t-46 -16.5t-41 16.5t-9 43.5zM456 887q5 27 24.5 43.5t46.5 16.5t40.5 -16.5t8.5 -43.5t-24 -43.5t-46 -16.5
t-41 16.5t-9 43.5z" />
    <glyph glyph-name="uni0408" unicode="&#x408;" 
d="M235 70q66 0 109 35.5t54 99.5l68 437h-280l12 78h368l-81 -515q-17 -103 -85.5 -159t-177.5 -56q-51 0 -89 15.5t-62 43.5t-33 67.5t-1 88.5h85q-11 -63 19.5 -99t93.5 -36z" />
    <glyph glyph-name="uni0457" unicode="&#x457;" 
d="M226 727q5 27 24.5 43.5t46.5 16.5t40.5 -16.5t8.5 -43.5t-24 -43.5t-46 -16.5t-41 16.5t-9 43.5zM426 727q5 27 24.5 43.5t46.5 16.5t40.5 -16.5t8.5 -43.5t-24 -43.5t-46 -16.5t-41 16.5t-9 43.5zM60 416l3 14q6 29 21.5 53t38.5 41t53 26.5t64 9.5q69 0 103.5 -35.5
t23.5 -94.5l-58 -295q-5 -29 10.5 -47t46.5 -18q32 0 55.5 18.5t29.5 48.5l1 8h88l-1 -8q-6 -33 -23 -60t-41.5 -46.5t-56 -30t-67.5 -10.5q-71 0 -107 39.5t-23 105.5l58 295q5 25 -10 40t-44 15t-49 -15t-25 -40l-3 -14h-88z" />
    <glyph glyph-name="uni0458" unicode="&#x458;" 
d="M361 415q5 32 -10 51t-44 19t-50 -19t-26 -51l-15 -95h-86l15 95q11 65 58 105t116 40q70 0 105.5 -39.5t24.5 -105.5l-60 -381q-15 -93 -78.5 -146t-160.5 -53h-166l12 78h167q56 0 92.5 32.5t45.5 88.5zM457 765h20q29 0 43.5 -17t9.5 -44t-26 -43t-50 -16h-20
q-29 0 -44 15.5t-10 43.5q5 27 26.5 44t50.5 17z" />
    <glyph glyph-name="uni0490" unicode="&#x490;" 
d="M514 720l17 105h85l-30 -187h-340l-101 -638h-90l114 720h345z" />
    <glyph glyph-name="uni0491" unicode="&#x491;" 
d="M487 550l17 105h85l-30 -187h-340l-74 -468h-90l87 550h345z" />
    <glyph glyph-name="uni0403" unicode="&#x403;" 
d="M599 720l-13 -82h-340l-101 -638h-90l114 720h430zM450 946l-130 -146h-90l110 146h110z" />
    <glyph glyph-name="uni0453" unicode="&#x453;" 
d="M239 -10q-98 0 -144.5 43.5t-34.5 120.5q12 72 58.5 111t137.5 52l85 12q45 6 67.5 22.5t27.5 48.5q6 40 -19.5 60t-76.5 20h-28q-41 0 -71.5 -16.5t-40.5 -42.5h-95q10 31 30.5 56.5t49.5 44t64.5 28.5t75.5 10h28q94 0 140 -41t34 -115q-11 -70 -57 -109t-129 -51
l-85 -12q-95 -14 -105 -79q-6 -38 20.5 -60.5t80.5 -22.5h28q45 0 78.5 18t44.5 47h95q-9 -33 -30 -59.5t-51 -45.5t-68.5 -29.5t-81.5 -10.5h-28zM470 796h-110l-109 -146h90z" />
    <glyph glyph-name="uni040C" unicode="&#x40c;" 
d="M154 720h90l-48 -306h116l212 306h105l-245 -351l141 -369h-98l-124 335h-120l-53 -335h-90zM450 946l-130 -146h-90l110 146h110z" />
    <glyph glyph-name="uni045C" unicode="&#x45c;" 
d="M132 550h88l-36 -231h112l200 231h101l-232 -267l153 -283h-99l-130 241h-118l-38 -241h-88zM451 796h-110l-109 -146h90z" />
    <glyph glyph-name="uni040E" unicode="&#x40e;" 
d="M199 720l86 -347q6 -22 8.5 -42t3.5 -35q1 -18 1 -33h7q2 15 7 33q4 15 11.5 34.5t18.5 42.5l182 347h100l-387 -720h-96l104 189l-141 531h95zM268 940h75q-12 -70 71 -70q42 0 67.5 18t31.5 52h75q-6 -30 -22 -55t-40 -43t-55 -27.5t-67 -9.5q-72 0 -109.5 37t-26.5 98
z" />
    <glyph glyph-name="uni045E" unicode="&#x45e;" 
d="M83 239l49 311h90l-46 -291q-10 -63 17 -98t84 -35t95.5 34.5t47.5 94.5l47 295h88l-87 -537q-14 -85 -69.5 -131.5t-146.5 -46.5h-176l12 78h176q48 0 78 26t38 74l8 47l20 95h-6q-21 -50 -65 -77.5t-103 -27.5q-41 0 -72 13.5t-51 38.5t-27.5 59.5t-0.5 77.5zM219 790
h75q-6 -34 17 -52t65 -18t72 18t36 52h75q-5 -30 -22.5 -55t-43.5 -43t-59 -27.5t-69 -9.5t-65.5 9.5t-49 27.5t-28 43t-3.5 55z" />
    <glyph glyph-name="uni040F" unicode="&#x40f;" 
d="M154 720h90l-101 -638h240l101 638h90l-114 -720h-165l-20 -125h-90l20 125h-165z" />
    <glyph glyph-name="uni045F" unicode="&#x45f;" 
d="M127 550h90l-74 -468h240l74 468h90l-87 -550h-165l-20 -125h-90l20 125h-165z" />
    <glyph glyph-name="uni040A" unicode="&#x40a;" 
d="M3 0l114 720h85l-46 -292h142l46 292h85l-46 -292h20q93 0 136 -50t29 -140l-8 -49q-14 -90 -73.5 -139.5t-151.5 -49.5h-105l55 350h-142l-55 -350h-85zM328 80h20q53 0 86 28.5t41 81.5l8 48q8 53 -16 82.5t-77 29.5h-20z" />
    <glyph glyph-name="uni045A" unicode="&#x45a;" 
d="M92 550h83l-32 -202h142l32 202h83l-32 -202h80q75 0 113.5 -41t27.5 -109l-8 -53q-5 -33 -21.5 -61t-41.5 -47.5t-57 -30.5t-68 -11q-73 0 -111.5 41t-28.5 108l21 131h-142l-44 -275h-83zM336 144q-6 -35 13.5 -57t54.5 -22t62 22.5t32 57.5l8 53q6 36 -13 58t-56 22
h-80z" />
    <glyph glyph-name="uni0409" unicode="&#x409;" 
d="M327 77h20q53 0 86.5 30t41.5 83l8 48q8 53 -15.5 83t-76.5 30h-20zM126 144q-11 -72 -54.5 -110.5t-112.5 -38.5h-15l14 85h18q54 0 65 64l91 576h297l-46 -292h20q91 0 135 -51t30 -139l-8 -49q-14 -88 -74.5 -138.5t-150.5 -50.5h-105l102 643h-127z" />
    <glyph glyph-name="uni0459" unicode="&#x459;" 
d="M-44 -5l14 85h18q54 0 65 64l64 406h288l-32 -202h80q75 0 113.5 -41t27.5 -109l-8 -53q-5 -33 -21.5 -61t-41.5 -47.5t-57 -30.5t-68 -11q-76 0 -113.5 40t-26.5 109l52 329h-122l-52 -329q-11 -72 -53.5 -110.5t-111.5 -38.5h-15zM341 144q-6 -36 12 -57.5t56 -21.5
q35 0 62 22.5t32 57.5l8 53q6 36 -13 58t-56 22h-80z" />
    <glyph glyph-name="uni0454" unicode="&#x454;" 
d="M54 200l23 150q8 48 30 87t55 66t76 42t93 15q91 0 140.5 -45t51.5 -130h-90q-3 45 -33.5 70t-81.5 25q-60 0 -100.5 -36t-50.5 -99l-4 -25h197l-13 -80h-196l-6 -35q-11 -63 18 -99t90 -36q51 0 89.5 25t55.5 70h90q-28 -84 -93 -129.5t-155 -45.5q-106 0 -154 54.5
t-32 155.5z" />
    <glyph glyph-name="uni0404" unicode="&#x404;" 
d="M56 200l50 320q16 98 83.5 154t170.5 56q94 0 143.5 -51.5t45.5 -143.5h-90q2 54 -27.5 84.5t-84.5 30.5q-60 0 -100.5 -36t-50.5 -99l-17 -110h247l-12 -80h-248l-19 -120q-11 -63 18 -99t90 -36q55 0 94.5 30.5t53.5 84.5h90q-25 -92 -91 -143.5t-160 -51.5
q-103 0 -152.5 56t-33.5 154z" />
    <glyph glyph-name="uni045B" unicode="&#x45b;" 
d="M148 600h-69l11 75h70l9 55h88l-9 -55h102l-11 -75h-103l-8 -50q-2 -14 -5.5 -30.5t-6.5 -30.5l-8 -34h8q21 50 65 77.5t103 27.5q41 0 71.5 -13.5t50 -38t27 -59.5t0.5 -78l-59 -371h-88l56 351q10 63 -17 98t-84 35q-55 0 -93 -32t-50 -89l-57 -363h-88z" />
    <glyph glyph-name="uni0452" unicode="&#x452;" 
d="M133 600h-70l12 75h70l9 55h90l-9 -55h100l-12 -75h-100l-8 -50q-2 -14 -5.5 -30.5t-6.5 -30.5l-8 -34h8q21 50 65 77.5t103 27.5q82 0 122 -51.5t29 -137.5l-54 -341q-7 -44 -27.5 -80t-51 -61.5t-70.5 -39.5t-87 -14h-70l13 82h70q54 0 89.5 30t43.5 83l51 321
q10 63 -16.5 98t-83.5 35t-96 -34.5t-49 -94.5l-56 -355h-90z" />
    <glyph glyph-name="uni040B" unicode="&#x40b;" 
d="M52 641l12 79h320l-12 -79h-120l-39 -244l19 19q38 38 79.5 58.5t81.5 20.5q38 0 67.5 -13t48 -36.5t25.5 -56.5t1 -73l-50 -316h-90l47 296q20 123 -72 123q-29 0 -57.5 -14.5t-60.5 -46.5l-53 -51l-49 -307h-90l102 641h-110z" />
    <glyph glyph-name="uni0402" unicode="&#x402;" 
d="M52 641l12 79h320l-12 -79h-120l-39 -244l19 19q38 38 79.5 58.5t81.5 20.5q38 0 67.5 -13t48 -36.5t25.5 -56.5t1 -73l-45 -286q-7 -44 -27.5 -80t-51 -61.5t-70.5 -39.5t-87 -14h-70l13 82h70q54 0 89.5 30t43.5 83l42 266q20 123 -72 123q-60 0 -119 -57l-52 -51
l-49 -311h-90l102 641h-110z" />
    <glyph glyph-name="ij" unicode="&#x133;" 
d="M134 -165l13 82h85q54 0 89.5 30t43.5 83l82 520h90l-82 -520q-7 -44 -27.5 -80t-51 -61.5t-70.5 -39.5t-87 -14h-85zM55 0l87 550h90l-87 -550h-90zM492 645q-29 0 -44.5 15.5t-11.5 42.5q5 28 25.5 45t49.5 17h20q29 0 44.5 -17t11.5 -44q-5 -27 -25.5 -43t-49.5 -16
h-20zM192 645q-29 0 -44.5 15.5t-11.5 42.5q5 28 25.5 45t49.5 17h20q29 0 44.5 -17t11.5 -44q-5 -27 -25.5 -43t-49.5 -16h-20z" />
    <glyph glyph-name="IJ" unicode="&#x132;" 
d="M222 74h60q60 0 97.5 31.5t46.5 89.5l70 445h-145l13 80h235l-83 -525q-15 -97 -79.5 -149t-167.5 -52h-60zM134 720h92l-114 -720h-92z" />
  </font>
</defs>
</svg>
